<?xml version="1.0" encoding="UTF-8" standalone="no"?>
<svg xmlns="http://www.w3.org/2000/svg" xmlns:xlink="http://www.w3.org/1999/xlink" width="148.000mm" height="50.000mm" viewBox="3.000000 -53.750000 148.000000 50.000000">
    <circle transform="matrix(1,0,0,-1,77,-25.75)" style="stroke:#0000ff;stroke-width:0.050000mm;fill:none" r="7.75" cx="0" cy="0"/>
    <circle transform="matrix(1,0,0,-1,118,-25.75)" style="stroke:#0000ff;stroke-width:0.050000mm;fill:none" r="7.75" cx="0" cy="0"/>
    <circle transform="matrix(1,0,0,-1,16,-49.75)" style="stroke:#0000ff;stroke-width:0.050000mm;fill:none" r="3" cx="0" cy="0"/>
    <circle transform="matrix(1,0,0,-1,16,-7.75)" style="stroke:#0000ff;stroke-width:0.050000mm;fill:none" r="3" cx="0" cy="0"/>
    <circle transform="matrix(1,0,0,-1,77,-7.75)" style="stroke:#0000ff;stroke-width:0.050000mm;fill:none" r="3" cx="0" cy="0"/>
    <circle transform="matrix(1,0,0,-1,136,-28.75)" style="stroke:#0000ff;stroke-width:0.050000mm;fill:none" r="3" cx="0" cy="0"/>
    <path transform="matrix(1,0,0,-1,0,0)" style="stroke:none;fill:#00e000;fill-rule:evenodd" d="M49.658344,18.174797C49.521759,18.185528,49.453468,18.25382,49.453468,18.379675C49.453468,18.506504,49.521759,18.575771,49.658344,18.587479L51.143707,18.587479C51.27932,18.576748,51.347122,18.507481,51.347122,18.379675C51.347122,18.252846,51.27932,18.184551,51.143707,18.174797L50.608101,18.174797L50.608101,15.795284C50.585663,15.658699,50.515419,15.590406,50.397369,15.590406C50.396393,15.590406,50.394928,15.590406,50.392979,15.590406C50.272003,15.592358,50.206146,15.66065,50.195419,15.795284L50.195419,18.174797L49.658344,18.174797z"/>
    <path transform="matrix(1,0,0,-1,0,0)" style="stroke:none;fill:#00e000;fill-rule:evenodd" d="M48.355904,16.84309C48.584198,16.886017,48.767612,17.006992,48.906151,17.206017C49.012489,17.359186,49.065659,17.520649,49.065659,17.690407C49.065659,17.691381,49.065659,17.692844,49.065659,17.694798C49.065659,17.745529,49.060783,17.797235,49.051025,17.849918C49.012001,18.063576,48.912003,18.239674,48.751026,18.378212C48.59005,18.517723,48.400295,18.587479,48.181759,18.587479L47.27298,18.587479C47.215416,18.587479,47.166637,18.567478,47.126637,18.527479C47.087612,18.48748,47.0681,18.439186,47.0681,18.382601L47.0681,15.796747C47.0681,15.728455,47.094929,15.674309,47.14859,15.634309C47.187614,15.604065,47.2281,15.588943,47.27005,15.588943C47.30127,15.589918,47.332977,15.59821,47.365173,15.61382C47.442245,15.650894,47.480782,15.711869,47.480782,15.796747L47.480782,16.826992L47.846634,16.826992L48.5681,15.686992C48.596394,15.637236,48.640785,15.606992,48.701271,15.59626C48.716881,15.593332,48.731514,15.591869,48.745171,15.591869C48.789078,15.591869,48.82859,15.604552,48.863708,15.629918C48.923222,15.675772,48.95298,15.727967,48.95298,15.786504C48.95298,15.824553,48.940781,15.86504,48.916393,15.907967L48.328102,16.838699L48.355904,16.84309zM47.480782,18.174797L48.202248,18.174797C48.356392,18.161137,48.477367,18.093821,48.56517,17.972845C48.622734,17.892845,48.651512,17.806992,48.651512,17.715284C48.651512,17.66748,48.643707,17.617723,48.628098,17.566015C48.598831,17.468454,48.541759,17.389431,48.456879,17.328941C48.372978,17.268456,48.281273,17.238211,48.181759,17.238211L47.480782,17.238211L47.480782,18.174797z"/>
    <path transform="matrix(1,0,0,-1,0,0)" style="stroke:none;fill:#00e000;fill-rule:evenodd" d="M46.6642,16.699675C46.678833,16.629431,46.68615,16.561138,46.68615,16.494797C46.68615,16.387478,46.66761,16.284065,46.630539,16.184551C46.570053,16.024551,46.46566,15.888943,46.317368,15.777723C46.169075,15.66748,45.985172,15.605041,45.765663,15.590406L45.761269,15.590406L44.982735,15.590406C44.862736,15.606992,44.793465,15.674796,44.774929,15.79382L44.774929,18.379675C44.791515,18.50065,44.860783,18.56992,44.982735,18.587479L45.891514,18.587479C46.076881,18.571869,46.232491,18.515772,46.358345,18.419186C46.485172,18.322601,46.572975,18.206017,46.621758,18.069431C46.650051,17.990406,46.6642,17.908943,46.6642,17.825039C46.6642,17.821136,46.6642,17.817722,46.6642,17.814796C46.6642,17.757236,46.656879,17.697723,46.642246,17.636261C46.607124,17.482113,46.520782,17.340649,46.383224,17.211868C46.533466,17.053822,46.627125,16.883089,46.6642,16.699675zM45.189075,17.450405L45.895905,17.450405C46.01688,17.463089,46.106636,17.506504,46.165173,17.58065C46.222733,17.65382,46.252003,17.731869,46.252975,17.814796C46.252975,17.902601,46.221756,17.982601,46.159317,18.054796C46.098831,18.12504,46.009563,18.164064,45.891514,18.171869L45.189075,18.171869L45.189075,17.450405zM45.189075,17.039186L45.778831,17.039186C45.949562,17.016747,46.075905,16.95187,46.157856,16.844551C46.236881,16.742113,46.27639,16.632359,46.27639,16.515285L46.27639,16.50065C46.272491,16.377724,46.227127,16.266016,46.140297,16.165527C46.053467,16.065041,45.927124,16.011381,45.761269,16.004551L45.189075,16.004551L45.189075,17.039186z"/>
    <path transform="matrix(1,0,0,-1,0,0)" style="stroke:none;fill:#00e000;fill-rule:evenodd" d="M27.204006,17.226603C27.340591,17.247089,27.408882,17.316845,27.408882,17.435871C27.408882,17.560749,27.340591,17.628067,27.204006,17.637821L26.260101,17.637821L26.260101,18.438309L27.470345,18.438309C27.607906,18.44709,27.676685,18.514896,27.676685,18.641724C27.676685,18.769529,27.608883,18.838799,27.473274,18.849529L26.056686,18.849529C25.935711,18.839773,25.866444,18.770504,25.848881,18.641724L25.848881,16.060261C25.868393,15.923676,25.937664,15.855383,26.056686,15.855383L26.062542,15.855383C26.185467,15.857334,26.25132,15.925627,26.260101,16.060261L26.260101,17.226603L27.204006,17.226603z"/>
    <path transform="matrix(1,0,0,-1,0,0)" style="stroke:none;fill:#00e000;fill-rule:evenodd" d="M24.966442,17.226603C25.103027,17.247089,25.171322,17.316845,25.171322,17.435871C25.171322,17.560749,25.103027,17.628067,24.966442,17.637821L24.022541,17.637821L24.022541,18.438309L25.232784,18.438309C25.370346,18.44709,25.439125,18.514896,25.439125,18.641724C25.439125,18.769529,25.371323,18.838799,25.23571,18.849529L23.819126,18.849529C23.698151,18.839773,23.628883,18.770504,23.61132,18.641724L23.61132,16.060261C23.630833,15.923676,23.7001,15.855383,23.819126,15.855383L23.824978,15.855383C23.947906,15.857334,24.01376,15.925627,24.022541,16.060261L24.022541,17.226603L24.966442,17.226603z"/>
    <path transform="matrix(1,0,0,-1,0,0)" style="stroke:none;fill:#00e000;fill-rule:evenodd" d="M22.623516,15.969529C22.50742,15.889529,22.382542,15.849529,22.248882,15.849529C22.208881,15.849529,22.167908,15.852943,22.125954,15.859774C21.830345,15.91148,21.604004,16.065628,21.44693,16.322212C21.289856,16.578796,21.199615,16.864162,21.176201,17.17831C21.172298,17.233919,21.170345,17.289042,21.170345,17.343676C21.170345,17.601236,21.215225,17.852943,21.304981,18.098797C21.412296,18.397335,21.584003,18.614407,21.820103,18.750017C21.935223,18.816359,22.05571,18.849529,22.181564,18.849529C22.421566,18.849529,22.617664,18.758797,22.769859,18.577335C22.922054,18.396847,23.037663,18.20026,23.116688,17.987579C23.188881,17.770018,23.224979,17.546116,23.224979,17.315872C23.224979,17.259285,23.22303,17.202702,23.219128,17.146114C23.197662,16.855383,23.117664,16.590017,22.979126,16.350018C22.892296,16.200748,22.773762,16.073919,22.623516,15.969529zM22.26059,18.42514C22.409859,18.385139,22.524979,18.291969,22.605957,18.145626C22.686932,18.000261,22.741077,17.836845,22.768394,17.655384C22.784004,17.548065,22.792297,17.439774,22.793274,17.330505C22.793274,17.321724,22.793274,17.313431,22.793274,17.305626C22.793274,17.240261,22.789856,17.174408,22.783028,17.108067C22.763515,16.925627,22.727905,16.778309,22.676201,16.666115C22.626442,16.556847,22.551807,16.453432,22.452297,16.355869C22.384003,16.28953,22.305954,16.256359,22.218151,16.256359C22.180103,16.256359,22.140102,16.262699,22.098152,16.275383C21.981079,16.311481,21.886444,16.384651,21.814247,16.494896C21.742054,16.606113,21.687908,16.730505,21.65181,16.868065C21.615711,17.006603,21.595222,17.146603,21.590347,17.288067C21.589371,17.31831,21.588882,17.347092,21.588882,17.374409C21.588882,17.478798,21.596199,17.570505,21.610832,17.649529C21.635223,17.786114,21.693272,17.950993,21.784981,18.144163C21.877663,18.337334,22.01376,18.43392,22.193272,18.43392C22.218639,18.43392,22.241077,18.430992,22.26059,18.42514z"/>
    <path transform="matrix(1,0,0,-1,0,0)" style="stroke:none;fill:#00e000;fill-rule:evenodd" d="M121.846817,41.790642C121.710236,41.801376,121.641937,41.869667,121.641937,41.995522C121.641937,42.122353,121.710236,42.19162,121.846817,42.203327L123.332184,42.203327C123.467796,42.192596,123.535599,42.123325,123.535599,41.995522C123.535599,41.86869,123.467796,41.8004,123.332184,41.790642L122.796577,41.790642L122.796577,39.411133C122.774139,39.274544,122.703896,39.206253,122.585846,39.206253C122.584869,39.206253,122.583405,39.206253,122.581451,39.206253C122.46048,39.208206,122.394623,39.276497,122.383896,39.411133L122.383896,41.790642L121.846817,41.790642z"/>
    <path transform="matrix(1,0,0,-1,0,0)" style="stroke:none;fill:#00e000;fill-rule:evenodd" d="M119.579987,42.102348C119.536087,42.171619,119.483894,42.206253,119.423409,42.206253C119.401947,42.206253,119.379501,42.201862,119.356094,42.193081C119.266335,42.160889,119.21463,42.094059,119.200966,41.992596L119.200966,39.408203C119.221451,39.271618,119.289749,39.203327,119.405846,39.203327C119.522919,39.203327,119.592186,39.271618,119.613647,39.408203L119.613647,41.27113L120.842918,39.299911C120.884872,39.235519,120.939011,39.203327,121.005356,39.203327L121.014137,39.203327C121.032669,39.203327,121.052673,39.206253,121.074142,39.212105C121.172676,39.239426,121.221939,39.303814,121.221939,39.405277L121.221939,39.408203L121.221939,41.992596C121.211212,42.129181,121.144379,42.198448,121.021454,42.200401C121.019501,42.200401,121.018524,42.200401,121.018524,42.200401C120.897552,42.200401,120.827797,42.13113,120.809265,41.992596L120.809265,40.128204L119.579987,42.102348z"/>
    <path transform="matrix(1,0,0,-1,0,0)" style="stroke:none;fill:#00e000;fill-rule:evenodd" d="M117.374626,40.994545L118.2995,40.994545C118.438042,40.97406,118.507309,40.904789,118.507309,40.786739C118.507309,40.667717,118.438042,40.59845,118.2995,40.578934L117.374626,40.578934L117.374626,39.617474L118.587799,39.617474C118.725357,39.596985,118.794136,39.528206,118.794136,39.411133C118.794136,39.29406,118.725357,39.225765,118.587799,39.206253L117.171211,39.206253C117.049255,39.221863,116.979996,39.29113,116.963409,39.414059L116.963409,41.998447C116.981941,42.127228,117.051208,42.195522,117.171211,42.203327L118.587799,42.203327C118.725357,42.192596,118.794136,42.124302,118.794136,41.998447C118.794136,41.87162,118.725357,41.803814,118.587799,41.795033L117.374626,41.795033L117.374626,40.994545z"/>
    <path transform="matrix(1,0,0,-1,0,0)" style="stroke:none;fill:#00e000;fill-rule:evenodd" d="M115.164871,42.033569C115.12487,42.137962,115.06292,42.190155,114.979019,42.190155C114.958527,42.190155,114.937065,42.187229,114.914627,42.181374C114.813164,42.155033,114.761948,42.088203,114.760971,41.980888C114.760971,41.963326,114.762436,41.945278,114.765358,41.926743L115.459015,39.352592C115.500969,39.255035,115.567307,39.206253,115.658035,39.206253C115.659012,39.206253,115.6595,39.206253,115.6595,39.206253C115.751205,39.206253,115.816574,39.256985,115.855606,39.358448L116.552185,41.944302C116.557068,41.968693,116.559509,41.991619,116.559509,42.013084C116.559509,42.10479,116.510239,42.165276,116.411697,42.194546C116.385361,42.202351,116.360962,42.206253,116.338531,42.206253C116.254623,42.206253,116.193161,42.154545,116.154137,42.051132L115.658035,40.20723L115.164871,42.033569z"/>
    <path transform="matrix(1,0,0,-1,0,0)" style="stroke:none;fill:#00e000;fill-rule:evenodd" d="M112.936089,40.994545L113.860962,40.994545C113.999504,40.97406,114.068771,40.904789,114.068771,40.786739C114.068771,40.667717,113.999504,40.59845,113.860962,40.578934L112.936089,40.578934L112.936089,39.617474L114.149261,39.617474C114.286819,39.596985,114.355606,39.528206,114.355606,39.411133C114.355606,39.29406,114.286819,39.225765,114.149261,39.206253L112.732674,39.206253C112.610718,39.221863,112.541458,39.29113,112.524872,39.414059L112.524872,41.998447C112.543411,42.127228,112.612671,42.195522,112.732674,42.203327L114.149261,42.203327C114.286819,42.192596,114.355606,42.124302,114.355606,41.998447C114.355606,41.87162,114.286819,41.803814,114.149261,41.795033L112.936089,41.795033L112.936089,40.994545z"/>
    <path transform="matrix(1,0,0,-1,0,0)" style="stroke:none;fill:#00e000;fill-rule:evenodd" d="M123.194954,46.878448C123.499344,46.935684,123.743896,47.096985,123.928612,47.36235C124.070404,47.566578,124.141296,47.78186,124.141296,48.008202C124.141296,48.009506,124.141296,48.011459,124.141296,48.014057C124.141296,48.081703,124.134796,48.150642,124.12178,48.220886C124.069748,48.505768,123.936417,48.740562,123.721786,48.925278C123.507149,49.111294,123.254143,49.2043,122.962761,49.2043L121.751053,49.2043C121.674301,49.2043,121.609268,49.177635,121.555931,49.124302C121.503899,49.070969,121.477882,49.006577,121.477882,48.931129L121.477882,45.483326C121.477882,45.392269,121.513657,45.320076,121.585197,45.266739C121.63723,45.226418,121.691216,45.206253,121.747147,45.206253C121.788773,45.207554,121.831055,45.218613,121.873978,45.239426C121.976746,45.288857,122.028122,45.370155,122.028122,45.483326L122.028122,46.856987L122.51593,46.856987L123.477882,45.336983C123.51561,45.270645,123.574799,45.230316,123.655441,45.216011C123.676254,45.212105,123.69577,45.210155,123.713974,45.210155C123.772514,45.210155,123.825195,45.227066,123.872025,45.260887C123.951378,45.322025,123.991058,45.391617,123.991058,45.469666C123.991058,45.520401,123.974792,45.574383,123.942276,45.631618L123.157883,46.872597L123.194954,46.878448zM122.028122,48.65406L122.990082,48.65406C123.195602,48.635849,123.356903,48.546089,123.473984,48.384789C123.550728,48.278122,123.589096,48.163651,123.589096,48.041374C123.589096,47.977638,123.57869,47.911293,123.557877,47.84235C123.51886,47.712269,123.442764,47.606903,123.32959,47.526253C123.21772,47.445602,123.095444,47.405277,122.962761,47.405277L122.028122,47.405277L122.028122,48.65406z"/>
    <path transform="matrix(1,0,0,-1,0,0)" style="stroke:none;fill:#00e000;fill-rule:evenodd" d="M118.261627,49.130157C118.312363,49.179588,118.37545,49.2043,118.450897,49.2043L119.367973,49.2043C119.824554,49.2043,120.166672,48.99617,120.394318,48.57991C120.621956,48.163651,120.735779,47.705765,120.735779,47.206253C120.735779,46.706741,120.621307,46.248856,120.392365,45.832596C120.164719,45.416336,119.823257,45.208206,119.367973,45.208206L118.45285,45.208206L118.448944,45.208206L118.378708,45.21991C118.243423,45.252434,118.175781,45.340889,118.175781,45.485275L118.175781,48.931129C118.175781,48.931129,118.175781,48.936985,118.175781,48.948692C118.196594,49.034546,118.225204,49.095032,118.261627,49.130157zM118.724075,45.764301L119.39724,45.764301C119.660004,45.764301,119.861633,45.906738,120.002121,46.19162C120.115288,46.420563,120.171875,46.754871,120.171875,47.194546L120.171875,47.210155C120.171875,47.626415,120.10553,47.944466,119.972855,48.164303C119.775131,48.490807,119.573502,48.65406,119.367973,48.65406L118.724075,48.65406L118.724075,45.764301z"/>
    <path transform="matrix(1,0,0,-1,0,0)" style="stroke:none;fill:#00e000;fill-rule:evenodd" d="M116.999191,47.040398C117.181305,47.067719,117.272362,47.160725,117.272362,47.319424C117.272362,47.485928,117.181305,47.575684,116.999191,47.588692L115.740654,47.588692L115.740654,48.65601L117.354309,48.65601C117.537727,48.667717,117.62944,48.758125,117.62944,48.927231C117.62944,49.097633,117.539032,49.189995,117.358215,49.2043L115.469437,49.2043C115.308136,49.191292,115.215775,49.098938,115.192368,48.927231L115.192368,45.485275C115.218384,45.303162,115.310738,45.212105,115.469437,45.212105L115.477242,45.212105C115.641144,45.214706,115.728943,45.305763,115.740654,45.485275L115.740654,47.040398L116.999191,47.040398z"/>
    <path transform="matrix(1,0,0,-1,0,0)" style="stroke:none;fill:#00e000;fill-rule:evenodd" d="M112.00502,49.130157C112.055756,49.179588,112.118835,49.2043,112.19429,49.2043L113.111359,49.2043C113.567947,49.2043,113.910057,48.99617,114.137695,48.57991C114.365341,48.163651,114.479164,47.705765,114.479164,47.206253C114.479164,46.706741,114.364693,46.248856,114.13575,45.832596C113.908112,45.416336,113.566643,45.208206,113.111359,45.208206L112.196243,45.208206L112.192337,45.208206L112.122093,45.21991C111.986809,45.252434,111.919167,45.340889,111.919167,45.485275L111.919167,48.931129C111.919167,48.931129,111.919167,48.936985,111.919167,48.948692C111.93998,49.034546,111.968597,49.095032,112.00502,49.130157zM112.467453,45.764301L113.140625,45.764301C113.403397,45.764301,113.605019,45.906738,113.745506,46.19162C113.858673,46.420563,113.915268,46.754871,113.915268,47.194546L113.915268,47.210155C113.915268,47.626415,113.848923,47.944466,113.716232,48.164303C113.518517,48.490807,113.316895,48.65406,113.111359,48.65406L112.467453,48.65406L112.467453,45.764301z"/>
    <path transform="matrix(1,0,0,-1,0,0)" style="stroke:none;fill:#00e000;fill-rule:evenodd" d="M80.31926,41.790642C80.182678,41.801376,80.11438,41.869667,80.11438,41.995522C80.11438,42.122353,80.182678,42.19162,80.31926,42.203327L81.804626,42.203327C81.940239,42.192596,82.008041,42.123325,82.008041,41.995522C82.008041,41.86869,81.940239,41.8004,81.804626,41.790642L81.269012,41.790642L81.269012,39.411133C81.246574,39.274544,81.176331,39.206253,81.058289,39.206253C81.057312,39.206253,81.055847,39.206253,81.053894,39.206253C80.932922,39.208206,80.867065,39.276497,80.856331,39.411133L80.856331,41.790642L80.31926,41.790642z"/>
    <path transform="matrix(1,0,0,-1,0,0)" style="stroke:none;fill:#00e000;fill-rule:evenodd" d="M78.052429,42.102348C78.00853,42.171619,77.956329,42.206253,77.895844,42.206253C77.874382,42.206253,77.851944,42.201862,77.828529,42.193081C77.73877,42.160889,77.687065,42.094059,77.673409,41.992596L77.673409,39.408203C77.693893,39.271618,77.762184,39.203327,77.878281,39.203327C77.995354,39.203327,78.064629,39.271618,78.08609,39.408203L78.08609,41.27113L79.315353,39.299911C79.357307,39.235519,79.411453,39.203327,79.477798,39.203327L79.48658,39.203327C79.505112,39.203327,79.525116,39.206253,79.546577,39.212105C79.645111,39.239426,79.694382,39.303814,79.694382,39.405277L79.694382,39.408203L79.694382,41.992596C79.683655,42.129181,79.616821,42.198448,79.493896,42.200401C79.491943,42.200401,79.490967,42.200401,79.490967,42.200401C79.369995,42.200401,79.300232,42.13113,79.2817,41.992596L79.2817,40.128204L78.052429,42.102348z"/>
    <path transform="matrix(1,0,0,-1,0,0)" style="stroke:none;fill:#00e000;fill-rule:evenodd" d="M77.257797,41.995522C77.236336,42.134056,77.167068,42.203327,77.049995,42.203327C77.049019,42.203327,77.048531,42.203327,77.048531,42.203327C76.932434,42.203327,76.863647,42.134056,76.842186,41.995522L76.842186,39.408203C76.863647,39.271618,76.932922,39.203327,77.049995,39.203327C77.050964,39.203327,77.051453,39.203327,77.051453,39.203327C77.167549,39.203327,77.236336,39.271618,77.257797,39.408203L77.257797,41.995522z"/>
    <path transform="matrix(1,0,0,-1,0,0)" style="stroke:none;fill:#00e000;fill-rule:evenodd" d="M75.744629,40.458935C75.972916,40.501862,76.156334,40.622837,76.294868,40.821861C76.401215,40.975033,76.454384,41.136497,76.454384,41.306252C76.454384,41.307228,76.454384,41.308693,76.454384,41.310642C76.454384,41.361374,76.449501,41.413082,76.439751,41.465767C76.400726,41.679424,76.30072,41.855522,76.139748,41.994057C75.978775,42.133568,75.789017,42.203327,75.57048,42.203327L74.661697,42.203327C74.604141,42.203327,74.555359,42.183327,74.515358,42.143326C74.476334,42.103325,74.456818,42.055035,74.456818,41.998447L74.456818,39.412594C74.456818,39.344303,74.48365,39.290154,74.537308,39.250156C74.576332,39.21991,74.616821,39.204788,74.658775,39.204788C74.689995,39.205765,74.721703,39.214058,74.753891,39.229668C74.830971,39.266739,74.869507,39.327717,74.869507,39.412594L74.869507,40.442841L75.235359,40.442841L75.956818,39.302837C75.985115,39.253082,76.029503,39.222839,76.089989,39.212105C76.105598,39.209179,76.120239,39.207718,76.133896,39.207718C76.177795,39.207718,76.217308,39.220398,76.252434,39.245766C76.311943,39.291618,76.341698,39.343815,76.341698,39.402351C76.341698,39.440399,76.329506,39.480888,76.305115,39.523815L75.71682,40.454544L75.744629,40.458935zM74.869507,41.790642L75.590965,41.790642C75.745117,41.776985,75.866089,41.709667,75.953896,41.588692C76.011452,41.50869,76.040237,41.422836,76.040237,41.331131C76.040237,41.283325,76.032433,41.23357,76.016823,41.181862C75.987556,41.084301,75.930481,41.00528,75.845604,40.94479C75.761696,40.8843,75.669991,40.854057,75.57048,40.854057L74.869507,40.854057L74.869507,41.790642z"/>
    <path transform="matrix(1,0,0,-1,0,0)" style="stroke:none;fill:#00e000;fill-rule:evenodd" d="M73.177795,40.479424L73.205605,40.480888C73.379257,40.491619,73.533897,40.542839,73.669502,40.634544C73.805115,40.72723,73.907555,40.855034,73.976822,41.01796C74.020721,41.121376,74.042679,41.226742,74.042679,41.334057C74.042679,41.438446,74.021698,41.544304,73.979752,41.651619C73.895844,41.868202,73.752922,42.023815,73.550964,42.118446C73.445602,42.166252,73.330482,42.194546,73.205605,42.203327L73.177795,42.203327L72.258774,42.203327L72.245605,42.203327C72.131454,42.187717,72.067062,42.119423,72.052429,41.998447L72.052429,39.412594C72.069016,39.275032,72.137794,39.206253,72.258774,39.206253C72.379745,39.206253,72.449013,39.275032,72.466576,39.412594L72.466576,40.479424L73.177795,40.479424zM72.466576,40.89357L73.177795,40.89357C73.289017,40.89357,73.387062,40.930641,73.471939,41.004791C73.5578,41.078934,73.60804,41.171619,73.622673,41.282837C73.625603,41.305279,73.627068,41.32674,73.627068,41.347229C73.627068,41.455521,73.589508,41.552593,73.514381,41.638447C73.424629,41.739914,73.312431,41.790642,73.177795,41.790642L72.466576,41.790642L72.466576,40.89357z"/>
    <path transform="matrix(1,0,0,-1,0,0)" style="stroke:none;fill:#00e000;fill-rule:evenodd" d="M76.686928,49.130157C76.737663,49.179588,76.800751,49.2043,76.876198,49.2043L77.793274,49.2043C78.249855,49.2043,78.591972,48.99617,78.819611,48.57991C79.047256,48.163651,79.161079,47.705765,79.161079,47.206253C79.161079,46.706741,79.046608,46.248856,78.817665,45.832596C78.590019,45.416336,78.248558,45.208206,77.793274,45.208206L76.878151,45.208206L76.874245,45.208206L76.804001,45.21991C76.668716,45.252434,76.601074,45.340889,76.601074,45.485275L76.601074,48.931129C76.601074,48.931129,76.601074,48.936985,76.601074,48.948692C76.621887,49.034546,76.650505,49.095032,76.686928,49.130157zM77.149368,45.764301L77.82254,45.764301C78.085304,45.764301,78.286934,45.906738,78.427422,46.19162C78.540588,46.420563,78.597176,46.754871,78.597176,47.194546L78.597176,47.210155C78.597176,47.626415,78.53083,47.944466,78.398155,48.164303C78.200424,48.490807,77.998802,48.65406,77.793274,48.65406L77.149368,48.65406L77.149368,45.764301z"/>
    <path transform="matrix(1,0,0,-1,0,0)" style="stroke:none;fill:#00e000;fill-rule:evenodd" d="M76.046928,48.927231C76.018311,49.111946,75.925957,49.2043,75.769859,49.2043C75.768555,49.2043,75.767906,49.2043,75.767906,49.2043C75.613113,49.2043,75.5214,49.111946,75.492783,48.927231L75.492783,45.47747C75.5214,45.295357,75.613762,45.2043,75.769859,45.2043C75.771156,45.2043,75.771812,45.2043,75.771812,45.2043C75.926605,45.2043,76.018311,45.295357,76.046928,45.47747L76.046928,48.927231z"/>
    <path transform="matrix(1,0,0,-1,0,0)" style="stroke:none;fill:#00e000;fill-rule:evenodd" d="M74.398773,45.941864L74.599747,45.389668C74.676498,45.26609,74.770157,45.2043,74.880722,45.2043L74.884628,45.2043L74.949013,45.225765C75.068687,45.259586,75.128525,45.340889,75.128525,45.469666C75.128525,45.50219,75.124626,45.537308,75.116821,45.575035L73.866089,49.024788C73.823158,49.143166,73.737305,49.203003,73.608528,49.2043L73.59877,49.2043C73.597473,49.2043,73.596817,49.2043,73.596817,49.2043C73.444626,49.093735,73.363327,49.033897,73.352921,49.024788C73.19162,48.859589,72.982834,48.285927,72.726578,47.303814C72.699257,47.198448,72.498932,46.621536,72.125603,45.573082L72.096329,45.467716C72.093735,45.453407,72.09243,45.440399,72.09243,45.428692C72.09243,45.344139,72.147713,45.279747,72.258286,45.235519C72.293404,45.221214,72.330475,45.214058,72.369507,45.214058C72.469666,45.214058,72.550964,45.275196,72.613403,45.397472L72.808525,45.941864L74.398773,45.941864zM73.009506,46.490158L74.199745,46.490158L73.606575,48.129181L73.009506,46.490158z"/>
    <path transform="matrix(1,0,0,-1,0,0)" style="stroke:none;fill:#00e000;fill-rule:evenodd" d="M81.944633,46.546741C81.960243,46.471294,81.968048,46.394547,81.968048,46.316498C81.968048,46.273571,81.965446,46.229996,81.960243,46.185768C81.93943,46.008858,81.876991,45.844952,81.772926,45.694057C81.670166,45.544464,81.540733,45.428692,81.384636,45.346741C81.216827,45.258286,81.043167,45.214058,80.863655,45.214058C80.561867,45.214058,80.273743,45.252434,79.999268,45.329178C79.724792,45.407227,79.529022,45.614708,79.411949,45.951618C79.396339,45.994545,79.384636,46.038773,79.376831,46.084305C79.369026,46.129829,79.359917,46.175362,79.34951,46.220886C79.345612,46.241699,79.343658,46.262512,79.343658,46.283325C79.343658,46.352272,79.368378,46.414059,79.417809,46.468693C79.471138,46.525928,79.534882,46.554546,79.609024,46.554546C79.625931,46.554546,79.644142,46.553246,79.663658,46.550644C79.766426,46.529831,79.837967,46.466091,79.878288,46.359425L79.884148,46.341866C79.945282,46.059586,80.053902,45.891129,80.209999,45.836494C80.351791,45.787064,80.54496,45.762352,80.789513,45.762352L80.859756,45.762352C81.114716,45.762352,81.289673,45.882027,81.384636,46.121376C81.409348,46.185116,81.421707,46.249504,81.421707,46.314545C81.421707,46.360077,81.415855,46.406254,81.404144,46.453083C81.375526,46.567554,81.318939,46.663815,81.23439,46.741863C81.196671,46.774384,81.14724,46.804955,81.086098,46.833572L80.182686,47.229668L80.153412,47.245277C79.858131,47.401375,79.674713,47.623161,79.603172,47.910645C79.577156,48.008205,79.564148,48.103165,79.564148,48.195522C79.564148,48.196823,79.564148,48.198776,79.564148,48.201378C79.564148,48.41861,79.637642,48.620239,79.784637,48.806252C79.992767,49.071617,80.267235,49.2043,80.608047,49.2043L80.822685,49.198448C80.892929,49.18544,80.960571,49.172432,81.025612,49.159424C81.090652,49.147717,81.156342,49.126904,81.222679,49.096985C81.386581,49.020237,81.512115,48.914871,81.599266,48.780888C81.686424,48.646904,81.765121,48.501862,81.835365,48.345764C81.841866,48.331459,81.847725,48.314545,81.852928,48.295036C81.858131,48.272919,81.860733,48.251457,81.860733,48.230644C81.860733,48.19162,81.851624,48.155197,81.833412,48.121376C81.817802,48.088852,81.801544,48.06414,81.784637,48.04723C81.767723,48.030319,81.754066,48.018612,81.74366,48.012108C81.695526,47.978287,81.644142,47.961372,81.589516,47.961372C81.567398,47.961372,81.544632,47.963974,81.521217,47.969177C81.440567,47.987389,81.378784,48.039425,81.335854,48.125278C81.302032,48.200726,81.26561,48.277473,81.226585,48.355522C81.188866,48.434872,81.135529,48.500565,81.066582,48.552597C81.037964,48.57341,81.010002,48.588367,80.982681,48.597473C80.956665,48.60788,80.927399,48.618935,80.894875,48.630646L80.768051,48.652107L80.588539,48.657959C80.41423,48.655357,80.280891,48.57991,80.188538,48.431618C80.139107,48.356171,80.114388,48.272919,80.114388,48.181862C80.114388,48.159752,80.115692,48.136986,80.118294,48.113571C80.136505,47.969181,80.204147,47.857307,80.32122,47.777962C80.326424,47.774055,80.332275,47.769505,80.338783,47.764301C80.345284,47.760399,80.35244,47.756496,80.360245,47.752594L80.381706,47.742836L80.405121,47.733082L81.306587,47.335033L81.337807,47.321373L81.372925,47.303814L81.404144,47.286255C81.413254,47.279747,81.423004,47.273247,81.433418,47.266739C81.445122,47.261536,81.456177,47.255684,81.466583,47.24918C81.724144,47.080074,81.883499,46.845928,81.944633,46.546741z"/>
    <path transform="matrix(1,0,0,-1,0,0)" style="stroke:none;fill:#00e000;fill-rule:evenodd" d="M37.455601,43.649181C37.493649,43.686253,37.540966,43.704788,37.597553,43.704788L38.285358,43.704788C38.627796,43.704788,38.88438,43.548691,39.055111,43.236496C39.225845,42.924301,39.311211,42.580887,39.311211,42.206253C39.311211,41.831619,39.225357,41.488205,39.05365,41.17601C38.882919,40.863815,38.62682,40.707718,38.285358,40.707718L37.599014,40.707718L37.596088,40.707718L37.543404,40.716496C37.441944,40.740887,37.391212,40.807228,37.391212,40.91552L37.391212,43.499912C37.391212,43.499912,37.391212,43.504303,37.391212,43.513084C37.406822,43.577473,37.428284,43.622841,37.455601,43.649181zM37.802429,41.12479L38.307308,41.12479C38.504383,41.12479,38.655602,41.231621,38.760967,41.445278C38.845844,41.616985,38.888283,41.867718,38.888283,42.197472L38.888283,42.209179C38.888283,42.521378,38.838528,42.759911,38.739014,42.924789C38.590725,43.16967,38.439503,43.292107,38.285358,43.292107L37.802429,43.292107L37.802429,41.12479z"/>
    <path transform="matrix(1,0,0,-1,0,0)" style="stroke:none;fill:#00e000;fill-rule:evenodd" d="M35.564869,42.49601L36.489746,42.49601C36.628284,42.475521,36.697552,42.406254,36.697552,42.288204C36.697552,42.169182,36.628284,42.099911,36.489746,42.080399L35.564869,42.080399L35.564869,41.118935L36.778038,41.118935C36.9156,41.09845,36.984383,41.029667,36.984383,40.912594C36.984383,40.795521,36.9156,40.72723,36.778038,40.707718L35.361454,40.707718C35.239502,40.723328,35.170235,40.792595,35.153648,40.91552L35.153648,43.499912C35.172188,43.628693,35.241455,43.696983,35.361454,43.704788L36.778038,43.704788C36.9156,43.694057,36.984383,43.625767,36.984383,43.499912C36.984383,43.373081,36.9156,43.305279,36.778038,43.296497L35.564869,43.296497L35.564869,42.49601z"/>
    <path transform="matrix(1,0,0,-1,0,0)" style="stroke:none;fill:#00e000;fill-rule:evenodd" d="M33.874626,41.980888L33.902431,41.982349C34.076088,41.99308,34.230724,42.044304,34.366333,42.136009C34.501942,42.228691,34.604382,42.356499,34.673649,42.519424C34.717552,42.622841,34.739502,42.728203,34.739502,42.835522C34.739502,42.939911,34.718529,43.045765,34.676579,43.153084C34.592674,43.369667,34.449749,43.525276,34.247795,43.619911C34.142429,43.667717,34.027309,43.696011,33.902431,43.704788L33.874626,43.704788L32.955601,43.704788L32.942429,43.704788C32.828285,43.689178,32.763893,43.620888,32.74926,43.499912L32.74926,40.914059C32.765846,40.776497,32.834625,40.707718,32.955601,40.707718C33.076576,40.707718,33.145844,40.776497,33.163406,40.914059L33.163406,41.980888L33.874626,41.980888zM33.163406,42.395035L33.874626,42.395035C33.985844,42.395035,34.083893,42.432106,34.16877,42.506252C34.254623,42.580399,34.304871,42.67308,34.319504,42.784302C34.32243,42.80674,34.323895,42.828205,34.323895,42.848694C34.323895,42.956985,34.286331,43.054058,34.211212,43.139912C34.121456,43.241375,34.009258,43.292107,33.874626,43.292107L33.163406,43.292107L33.163406,42.395035z"/>
    <path transform="matrix(1,0,0,-1,0,0)" style="stroke:none;fill:#00e000;fill-rule:evenodd" d="M45.575813,48.65406C45.3937,48.668365,45.302643,48.759422,45.302643,48.927231C45.302643,49.096336,45.3937,49.18869,45.575813,49.2043L47.556305,49.2043C47.737122,49.189995,47.827526,49.097633,47.827526,48.927231C47.827526,48.758125,47.737122,48.667068,47.556305,48.65406L46.842155,48.65406L46.842155,45.481377C46.812241,45.299263,46.718582,45.208206,46.561188,45.208206C46.559883,45.208206,46.55793,45.208206,46.555328,45.208206C46.394028,45.210808,46.306221,45.301865,46.291916,45.481377L46.291916,48.65406L45.575813,48.65406z"/>
    <path transform="matrix(1,0,0,-1,0,0)" style="stroke:none;fill:#00e000;fill-rule:evenodd" d="M43.405022,48.927231C43.390713,49.109344,43.302258,49.201698,43.139656,49.2043L43.131851,49.2043C42.974453,49.2043,42.882095,49.111946,42.854782,48.927231L42.854782,45.47747C42.879498,45.307068,42.971855,45.21666,43.131851,45.206253L45.204048,45.206253C45.388763,45.21796,45.481125,45.308365,45.481125,45.47747C45.481125,45.640076,45.389412,45.731781,45.205997,45.752594L43.405022,45.750641L43.405022,48.927231z"/>
    <path transform="matrix(1,0,0,-1,0,0)" style="stroke:none;fill:#00e000;fill-rule:evenodd" d="M36.535778,49.130157C36.58651,49.179588,36.649601,49.2043,36.725048,49.2043L37.64212,49.2043C38.098705,49.2043,38.440819,48.99617,38.668461,48.57991C38.896103,48.163651,39.009926,47.705765,39.009926,47.206253C39.009926,46.706741,38.895454,46.248856,38.666512,45.832596C38.438869,45.416336,38.097404,45.208206,37.64212,45.208206L36.726997,45.208206L36.723095,45.208206L36.652851,45.21991C36.517567,45.252434,36.449924,45.340889,36.449924,45.485275L36.449924,48.931129C36.449924,48.931129,36.449924,48.936985,36.449924,48.948692C36.470737,49.034546,36.499355,49.095032,36.535778,49.130157zM36.998219,45.764301L37.671391,45.764301C37.934155,45.764301,38.13578,45.906738,38.276268,46.19162C38.389439,46.420563,38.446022,46.754871,38.446022,47.194546L38.446022,47.210155C38.446022,47.626415,38.379681,47.944466,38.246998,48.164303C38.049274,48.490807,37.847649,48.65406,37.64212,48.65406L36.998219,48.65406L36.998219,45.764301z"/>
    <path transform="matrix(1,0,0,-1,0,0)" style="stroke:none;fill:#00e000;fill-rule:evenodd" d="M35.132851,45.364304C34.978054,45.257637,34.81155,45.2043,34.633339,45.2043C34.580006,45.2043,34.525372,45.208855,34.469437,45.21796C34.075291,45.286903,33.773502,45.492432,33.564072,45.834545C33.354641,46.176659,33.234314,46.557148,33.203094,46.976009C33.197891,47.050156,33.19529,47.12365,33.19529,47.196495C33.19529,47.539909,33.255127,47.875519,33.374802,48.203327C33.517891,48.601376,33.746834,48.890808,34.06163,49.071617C34.21513,49.160072,34.375778,49.2043,34.543583,49.2043C34.863583,49.2043,35.125046,49.083328,35.327972,48.841377C35.530903,48.600723,35.685047,48.338612,35.790413,48.055031C35.886673,47.764954,35.934803,47.466415,35.934803,47.159424C35.934803,47.083977,35.932201,47.00853,35.926998,46.933083C35.89838,46.545441,35.791714,46.19162,35.606998,45.87162C35.491226,45.672592,35.333176,45.503487,35.132851,45.364304zM34.648949,48.638451C34.847973,48.585114,35.001469,48.460888,35.109436,48.265766C35.217403,48.071945,35.2896,47.854057,35.326023,47.612106C35.346836,47.469017,35.357891,47.324627,35.359196,47.178936C35.359196,47.167229,35.359196,47.156174,35.359196,47.145767C35.359196,47.058609,35.354641,46.970806,35.345535,46.882351C35.319519,46.639099,35.272038,46.442677,35.203094,46.293083C35.136753,46.147392,35.037243,46.009506,34.90456,45.879425C34.813503,45.79097,34.709438,45.746742,34.592365,45.746742C34.541634,45.746742,34.4883,45.755196,34.432365,45.772106C34.276268,45.820236,34.150089,45.917797,34.053825,46.064789C33.957569,46.213081,33.885372,46.378937,33.837242,46.562351C33.789112,46.747066,33.761795,46.933731,33.755291,47.122353C33.75399,47.162674,33.753342,47.20105,33.753342,47.237473C33.753342,47.376659,33.763096,47.498936,33.782608,47.604301C33.815128,47.786415,33.892529,48.006256,34.014801,48.263817C34.138378,48.521378,34.319843,48.650154,34.559193,48.650154C34.593014,48.650154,34.622932,48.646255,34.648949,48.638451z"/>
    <path transform="matrix(1,0,0,-1,0,0)" style="stroke:none;fill:#00e000;fill-rule:evenodd" d="M31.87822,45.364304C31.723419,45.257637,31.556915,45.2043,31.378704,45.2043C31.325371,45.2043,31.270737,45.208855,31.214802,45.21796C30.820656,45.286903,30.518867,45.492432,30.309437,45.834545C30.100006,46.176659,29.979683,46.557148,29.94846,46.976009C29.943256,47.050156,29.940659,47.12365,29.940659,47.196495C29.940659,47.539909,30.000496,47.875519,30.120171,48.203327C30.26326,48.601376,30.492203,48.890808,30.806999,49.071617C30.960495,49.160072,31.121143,49.2043,31.288948,49.2043C31.608948,49.2043,31.870411,49.083328,32.073341,48.841377C32.276268,48.600723,32.430412,48.338612,32.535778,48.055031C32.632038,47.764954,32.680168,47.466415,32.680168,47.159424C32.680168,47.083977,32.677567,47.00853,32.672363,46.933083C32.643745,46.545441,32.537079,46.19162,32.352364,45.87162C32.236591,45.672592,32.078545,45.503487,31.87822,45.364304zM31.394314,48.638451C31.593338,48.585114,31.746838,48.460888,31.854805,48.265766C31.962772,48.071945,32.034966,47.854057,32.071388,47.612106C32.092201,47.469017,32.10326,47.324627,32.104561,47.178936C32.104561,47.167229,32.104561,47.156174,32.104561,47.145767C32.104561,47.058609,32.100006,46.970806,32.0909,46.882351C32.064884,46.639099,32.017406,46.442677,31.948463,46.293083C31.882122,46.147392,31.782608,46.009506,31.649925,45.879425C31.558868,45.79097,31.454803,45.746742,31.33773,45.746742C31.286999,45.746742,31.233665,45.755196,31.177731,45.772106C31.021633,45.820236,30.895454,45.917797,30.799194,46.064789C30.702934,46.213081,30.630737,46.378937,30.582607,46.562351C30.534477,46.747066,30.50716,46.933731,30.500656,47.122353C30.499355,47.162674,30.498707,47.20105,30.498707,47.237473C30.498707,47.376659,30.508461,47.498936,30.527973,47.604301C30.560493,47.786415,30.637894,48.006256,30.76017,48.263817C30.883747,48.521378,31.065208,48.650154,31.304558,48.650154C31.338379,48.650154,31.368298,48.646255,31.394314,48.638451z"/>
    <path transform="matrix(1,0,0,-1,0,0)" style="stroke:none;fill:#00e000;fill-rule:evenodd" d="M27.766605,48.927231C27.752296,49.109344,27.663841,49.201698,27.50124,49.2043L27.493435,49.2043C27.336037,49.2043,27.243679,49.111946,27.216362,48.927231L27.216362,45.47747C27.241077,45.307068,27.333435,45.21666,27.493435,45.206253L29.565628,45.206253C29.750343,45.21796,29.842701,45.308365,29.842701,45.47747C29.842701,45.640076,29.750996,45.731781,29.567581,45.752594L27.766605,45.750641L27.766605,48.927231z"/>
    <path transform="matrix(1,0,0,-1,0,0)" style="stroke:none;fill:#00e000;fill-rule:evenodd" d="M26.039776,47.040398C26.221889,47.067719,26.312946,47.160725,26.312946,47.319424C26.312946,47.485928,26.221889,47.575684,26.039776,47.588692L24.781239,47.588692L24.781239,48.65601L26.394897,48.65601C26.578312,48.667717,26.670017,48.758125,26.670017,48.927231C26.670017,49.097633,26.579613,49.189995,26.3988,49.2043L24.510017,49.2043C24.348717,49.191292,24.256359,49.098938,24.232944,48.927231L24.232944,45.485275C24.258961,45.303162,24.351318,45.212105,24.510017,45.212105L24.517822,45.212105C24.681725,45.214706,24.769531,45.305763,24.781239,45.485275L24.781239,47.040398L26.039776,47.040398z"/>
    <path transform="matrix(1,0,0,-1,0,0)" style="stroke:none;fill:#00e000;fill-rule:evenodd" d="M48.061028,20.076195L47.468365,23.017075L48.198456,22.845421C49.131844,26.815483,48.069809,30.991249,45.353096,34.032974C42.636383,37.074692,38.606636,38.599846,34.556763,38.119102C30.506889,37.638367,26.946186,35.212181,25.017075,31.618973C23.087963,28.025764,23.033039,23.717407,24.86993,20.076195L23.977104,19.625793C21.993263,23.558296,22.052578,28.211327,24.136021,32.091988C26.219463,35.972656,30.065022,38.592934,34.438885,39.112129C38.812748,39.631332,43.164879,37.984169,46.098927,34.699112C49.032978,31.414055,50.179977,26.904221,49.171921,22.616554L49.902008,22.444901L48.061028,20.076195z"/>
    <path transform="matrix(1,0,0,-1,0,0)" style="stroke:none;fill:#00e000;fill-rule:evenodd" d="M98.030235,49.706253L98.030235,7.706253C98.030235,7.430111,98.254089,7.206253,98.530235,7.206253C98.806381,7.206253,99.030235,7.430111,99.030235,7.706253L99.030235,49.706253C99.030235,49.982395,98.806381,50.206253,98.530235,50.206253C98.254089,50.206253,98.030235,49.982395,98.030235,49.706253z"/>
    <path transform="matrix(1,0,0,-1,0,0)" style="stroke:none;fill:#00e000;fill-rule:evenodd" d="M58.030235,49.706253L58.030235,7.706253C58.030235,7.430111,58.254093,7.206253,58.530235,7.206253C58.806377,7.206253,59.030235,7.430111,59.030235,7.706253L59.030235,49.706253C59.030235,49.982395,58.806377,50.206253,58.530235,50.206253C58.254093,50.206253,58.030235,49.982395,58.030235,49.706253z"/>
    <path transform="matrix(1,0,0,-1,0,0)" style="stroke:none;fill:#00e000;fill-rule:evenodd" d="M45.030235,25.706253C45.030235,20.735691,41.000797,16.706253,36.030235,16.706253C31.059673,16.706253,27.030235,20.735691,27.030235,25.706253C27.030235,30.676815,31.059673,34.706253,36.030235,34.706253C41.000797,34.706253,45.030235,30.676815,45.030235,25.706253z"/>
    <path transform="matrix(1,0,0,-1,0,0)" style="stroke:none;fill:#000000;fill-rule:evenodd" d="M9,33.75L5.5,33.75C4.67157,33.75,4,33.078426,4,32.25L4,5.25C4,4.421572,4.67157,3.75,5.5,3.75L77,3.75L148.5,3.75C149.32843,3.75,150,4.421574,150,5.25L150,10.25C150,11.078426,149.32843,11.75,148.5,11.75L145.590118,11.75L145,11.75"/>
    <path transform="matrix(1,0,0,-1,0,0)" style="stroke:none;fill:#000000;fill-rule:evenodd" d="M9,45.75L8.409874,45.75L5.5,45.75C4.67157,45.75,4,46.42157,4,47.25L4,52.25C4,53.078426,4.67157,53.75,5.5,53.75L77,53.75L148.5,53.75C149.32843,53.75,150,53.078426,150,52.25L150,25.25C150,24.421574,149.32843,23.75,148.5,23.75L145,23.75"/>
    <path transform="matrix(1,0,0,-1,0,0)" style="stroke:none;fill:#000000;fill-rule:evenodd" d="M151,17.75C151,14.436292,148.313705,11.75,145,11.75C141.686295,11.75,139,14.436292,139,17.75C139,21.063709,141.686295,23.75,145,23.75C148.313705,23.75,151,21.063709,151,17.75z"/>
    <path transform="matrix(1,0,0,-1,0,0)" style="stroke:none;fill:#000000;fill-rule:evenodd" d="M15,39.75C15,36.436291,12.313708,33.75,9,33.75C5.686292,33.75,3,36.436291,3,39.75C3,43.063709,5.686292,45.75,9,45.75C12.313708,45.75,15,43.063709,15,39.75z"/>
</svg>
