<?xml version="1.0" encoding="UTF-8" standalone="no"?>
<svg  version="1.1" xmlns="http://www.w3.org/2000/svg" width="570.107px" height="229.054px">
<path d="M570.107 219.213 L10.7373 219.213 L10.7373 0 L570.107 0 L570.107 219.213 Z " stroke="black" stroke-width="1" fill="none" />

<circle cx="33.415" cy="49.1339" r="9.44882" stroke="black" stroke-width="1" fill="none" />


<path d="M133.572 177.638 L57.9814 177.638 L57.9814 102.047 L133.572 102.047 L133.572 177.638 Z " stroke="black" stroke-width="1" fill="none" />

<circle cx="73.0998" cy="20.7874" r="6.04724" stroke="black" stroke-width="1" fill="none" />


<circle cx="182.707" cy="139.843" r="22.6772" stroke="black" stroke-width="1" fill="none" />


<circle cx="280.974" cy="71.811" r="9.44882" stroke="black" stroke-width="1" fill="none" />


<circle cx="328.218" cy="198.426" r="6.04724" stroke="black" stroke-width="1" fill="none" />


<circle cx="366.014" cy="132.283" r="22.6772" stroke="black" stroke-width="1" fill="none" />


<circle cx="507.746" cy="20.7874" r="6.04724" stroke="black" stroke-width="1" fill="none" />


<circle cx="547.431" cy="170.079" r="9.44882" stroke="black" stroke-width="1" fill="none" />


<path d="M290.262 72.1986 L290.969 70.3076 L291.585 68.0537 L291.865 66.3385 L291.949 64.3042 L291.803 62.7646 L291.355 60.9494 L290.784 59.5844 L289.807 57.9866 L288.815 56.7945 L287.316 55.4111 L285.909 54.3888 L283.895 53.2148 L279.57 51.3856 L273.742 49.7628 L266.158 48.4396 L257.449 47.5454 L246.831 46.9747 L233.25 46.7187 L218.744 46.7861 L200.464 47.1654 L134.717 49.3662 L123.339 49.3626 L115.383 48.8613 L111.311 48.2069 L108.071 47.2047 L106.63 46.4602 L105.659 45.7543 L104.186 44.0285 L103.669 43.0092 L103.212 41.6003 L102.831 38.4384 L103.082 34.1612 L103.441 32.0882 L103.875 30.5581 L104.363 29.486 L105.011 28.605 L105.872 27.9095 L106.751 27.4767 L109.501 26.8431 L114.067 26.546 L122.665 26.5351 L155.362 27.0462 L175.707 27.1111 L197.828 26.9252 L242.307 26.1995 L249.698 26.3437 L255.166 26.8341 L257.088 27.2058 L259.02 27.7998 L260.652 28.5768 L262.106 29.5573 L264.213 31.4389 L271.799 39.1904 L276.593 43.5432 L282.985 48.6555 L289.83 53.4354 L296.011 57.2433 L302.586 60.8227 L309.412 64.0569 L316.343 66.8447 L323.234 69.1075 L329.953 70.7951 L336.39 71.8925 L342.469 72.4266 L346.923 72.4961 L351.714 72.2719 L357.266 71.668 L370.19 69.7599 L373.961 69.5356 L377.506 69.7255 L380.823 70.4104 L383.872 71.6272 L386.575 73.3587 L388.809 75.5248 L390.116 77.4202 L390.95 79.4058 L391.222 81.3851 L390.854 83.2595 L389.789 84.9357 L388.304 86.1538 L386.298 87.1283 L383.797 87.8336 L381.363 88.2076 L378.641 88.3896 L371.797 88.1753 L364.095 87.3018 L344.123 84.388 L338.559 83.8928 L333.401 83.792 L328.215 84.2622 L324.239 85.2588 L322.491 85.9665 L320.536 87.0408 L319.156 88.042 L317.653 89.4486 L315.936 91.6392 L314.45 94.3082 L313.13 97.6149 L310.75 105.039 L309.822 107.011 L308.789 108.627 L307.172 110.536 L304.981 112.561 L296.923 118.567 L294.385 120.758 L293.298 121.968 L292.355 123.302 L291.56 124.788 L290.914 126.438 L290.337 128.574 L289.931 130.924 L289.502 136.955 L289.252 167.749 L289.369 181.994 L289.112 183.481 L288.628 184.382 L287.796 184.966 L286.262 185.305 L282.867 185.313 L269.32 184.495 L262.451 184.394 L255.569 184.705 L246.702 185.739 L245.532 185.485 L244.953 184.794 L244.688 183.552 L244.674 181.303 L246.147 159.005 L246.441 150.453 L246.539 141.476 L246.419 132.481 L246.102 123.875 L244.57 101.313 L244.548 98.9422 L244.752 97.1543 L245.376 95.7068 L246.522 94.803 L248.275 94.2901 L251.067 94.0209 L274.644 94.0989 L299.573 93.8879 L307.735 94.0586 L308.266 84.6247 L300.004 84.4399 L275.929 84.6238 L254.881 84.4944 L250.555 84.5846 L247.077 84.8764 L244.405 85.5014 L242.015 86.5025 L239.714 88.0556 L237.882 89.9514 L236.429 92.3975 L235.548 95.0212 L235.1 98.2937 L235.213 103.34 L236.214 116.63 L236.716 125.482 L237.074 140.614 L236.969 150.284 L236.67 159.146 L235.256 180.26 L235.202 183.249 L235.404 185.521 L235.814 187.345 L236.581 189.189 L237.674 190.887 L239.205 192.496 L240.632 193.56 L242.47 194.456 L244.145 194.938 L245.84 195.159 L247.737 195.175 L256.135 194.141 L263.417 193.837 L270.944 194.033 L282.983 194.79 L286.293 194.776 L288.679 194.519 L290.545 194.036 L292.648 193.096 L294.274 191.97 L296.186 190.034 L297.503 187.916 L298.355 185.538 L298.794 182.766 L298.882 180.298 L298.704 167.741 L298.927 138.323 L299.227 133.04 L299.858 129.486 L300.365 128.282 L301.288 127.232 L311.511 119.411 L314.14 116.905 L316.39 114.209 L317.944 111.839 L319.129 109.486 L320.195 106.726 L322.501 99.5554 L323.464 97.4536 L324.417 96.0453 L325.808 94.857 L328.102 93.9512 L331.081 93.4225 L334.882 93.2284 L338.849 93.3829 L343.323 93.8212 L364.704 96.9226 L373.454 97.7676 L378.207 97.8562 L382.533 97.5854 L386.235 96.9936 L389.584 96.0147 L391.667 95.1031 L393.463 94.0725 L394.982 92.9729 L396.408 91.6567 L397.695 90.1473 L398.796 88.4735 L399.666 86.6643 L400.194 85.0365 L400.553 83.1293 L400.663 81.2498 L400.523 79.175 L400.146 77.2219 L399.5 75.2064 L398.573 73.1575 L397.455 71.2905 L396.175 69.5882 L394.468 67.7386 L392.764 66.2129 L390.931 64.8538 L388.809 63.5637 L386.582 62.4776 L384.277 61.5983 L381.918 60.9289 L379.538 60.4691 L375.409 60.1055 L370.975 60.2104 L366.678 60.6651 L352.392 62.7193 L347.615 63.0304 L343.144 62.9927 L337.254 62.4649 L331.415 61.4409 L325.472 59.9163 L319.286 57.8471 L312.226 54.9524 L305.262 51.5631 L298.608 47.795 L292.046 43.5232 L286.796 39.6656 L281.923 35.6593 L277.315 31.3667 L270.015 23.8849 L268.146 22.2755 L266.227 20.9114 L263.83 19.6066 L261.206 18.5703 L258.663 17.8741 L255.441 17.3243 L249.93 16.8862 L242.024 16.7496 L198.585 17.4574 L177.623 17.6558 L153.901 17.5718 L119.807 17.0543 L109.794 17.2787 L106.642 17.7138 L103.746 18.5163 L101.317 19.6473 L99.1952 21.1215 L97.5541 22.7822 L96.0748 24.9551 L94.9649 27.4136 L94.1222 30.3656 L93.7421 32.6466 L93.4082 36.1038 L93.4634 40.4811 L93.7999 42.785 L94.3008 44.8179 L94.995 46.7125 L95.9358 48.5996 L96.983 50.2134 L98.2326 51.7155 L99.6525 53.045 L101.372 54.3056 L103.171 55.3359 L104.999 56.1552 L107.214 56.9137 L109.634 57.5327 L113.137 58.1253 L117.715 58.5576 L122.955 58.8067 L129.227 58.8777 L143.201 58.6097 L192.899 56.835 L218.185 56.2242 L240.442 56.2478 L250.171 56.5682 L257.226 57.0167 L263.839 57.6974 L270.014 58.6637 L274.855 59.8005 L278.595 61.1565 L281.142 62.5976 L281.882 63.2168 L282.398 63.8789 L282.505 64.6976 L282.39 65.8263 L281.536 68.5756 L290.262 72.1986 Z " stroke="black" stroke-width="1" fill="none" />

</svg>
