<?xml version="1.0" encoding="UTF-8" standalone="no"?>
<svg  version="1.1" xmlns="http://www.w3.org/2000/svg" width="572.419px" height="229.889px">
<path d="M553.523 22.6772 C540.999 22.6772, 530.846 32.8301, 530.846 45.3543 C530.846 57.8786, 540.999 68.0315, 553.523 68.0315 " stroke="black" stroke-width="1" fill="none" />

<path d="M447.698 179.528 L534.627 179.528 L534.627 92.5984 L447.698 92.5984 L447.698 179.528 Z " stroke="black" stroke-width="1" fill="none" />

<circle cx="513.839" cy="17.0079" r="6.04724" stroke="black" stroke-width="1" fill="none" />


<path d="M351.32 188.976 L457.147 188.976 L457.147 83.1496 L351.32 83.1496 L351.32 188.976 Z " stroke="black" stroke-width="1" fill="none" />

<circle cx="258.721" cy="194.646" r="6.04724" stroke="black" stroke-width="1" fill="none" />


<circle cx="220.925" cy="128.504" r="22.6772" stroke="black" stroke-width="1" fill="none" />


<circle cx="79.1938" cy="17.0079" r="6.04724" stroke="black" stroke-width="1" fill="none" />


<path d="M39.5077 188.976 C52.0319 188.976, 62.1848 178.823, 62.1848 166.299 C62.1848 153.775, 52.0319 143.622, 39.5077 143.622 " stroke="black" stroke-width="1" fill="none" />

<path d="M39.5091 143.622 L26.2087 143.622 L24.8296 143.433 L23.245 142.741 L21.9429 141.603 L21.0698 140.186 L20.6384 138.504 L20.6151 5.46625 L20.9899 3.63259 L21.8995 2.07129 L23.3042 0.844269 L24.9672 0.154277 L26.2808 2.84217e-14 L566.825 0.00045799 L568.599 0.308927 L570.187 1.15803 L571.091 2.01915 L571.788 3.06318 L572.236 4.22862 L572.416 5.39196 L572.402 17.4921 L572.018 19.1117 L571.22 20.4985 L570.403 21.3458 L569.549 21.9396 L568.601 22.3675 L567.513 22.626 L553.525 22.6772 " stroke="black" stroke-width="1" fill="none" />

<path d="M39.5091 188.976 L25.5208 189.028 L24.4327 189.286 L23.4846 189.714 L22.6306 190.308 L21.8135 191.155 L21.0163 192.542 L20.6322 194.161 L20.6183 206.262 L20.8146 207.488 L21.246 208.59 L21.9429 209.634 L22.8472 210.496 L24.4349 211.345 L26.2087 211.653 L566.753 211.654 L567.997 211.516 L569.668 210.847 L571.088 209.638 L572.044 208.021 L572.419 206.187 L572.396 73.1491 L571.992 71.5342 L571.091 70.0506 L569.789 68.9128 L568.198 68.2187 L566.825 68.032 L553.525 68.0315 " stroke="black" stroke-width="1" fill="none" />

<path d="M296.677 68.4191 L295.97 66.5281 L295.354 64.2742 L295.074 62.5589 L294.99 60.5247 L295.136 58.985 L295.585 57.1698 L296.155 55.8049 L297.132 54.2071 L298.124 53.015 L299.624 51.6316 L301.03 50.6093 L303.044 49.4353 L307.369 47.606 L313.197 45.9833 L320.781 44.66 L329.49 43.7659 L340.108 43.1952 L353.689 42.9391 L368.195 43.0065 L386.475 43.3859 L452.222 45.5867 L463.6 45.5831 L471.556 45.0818 L475.628 44.4273 L478.869 43.4252 L480.309 42.6807 L481.28 41.9748 L482.753 40.249 L483.27 39.2297 L483.727 37.8208 L484.108 34.6588 L483.857 30.3816 L483.498 28.3087 L483.064 26.7785 L482.577 25.7064 L481.929 24.8255 L481.068 24.13 L480.188 23.6972 L477.438 23.0636 L472.872 22.7665 L464.274 22.7556 L431.578 23.2667 L411.232 23.3316 L389.111 23.1457 L344.632 22.42 L337.242 22.5641 L331.774 23.0545 L329.852 23.4263 L327.919 24.0202 L326.288 24.7973 L324.833 25.7777 L322.726 27.6594 L315.14 35.4109 L310.347 39.7637 L303.954 44.876 L297.11 49.6559 L290.928 53.4638 L284.353 57.0432 L277.527 60.2773 L270.596 63.0652 L263.705 65.328 L256.986 67.0156 L250.549 68.113 L244.47 68.6471 L240.016 68.7166 L235.225 68.4924 L229.673 67.8884 L216.749 65.9804 L212.978 65.7561 L209.433 65.9459 L206.117 66.6308 L203.068 67.8477 L200.364 69.5792 L198.13 71.7452 L196.823 73.6406 L195.99 75.6262 L195.718 77.6056 L196.086 79.4799 L197.15 81.1562 L198.635 82.3742 L200.641 83.3488 L203.142 84.0541 L205.576 84.428 L208.298 84.6101 L215.142 84.3958 L222.845 83.5223 L242.816 80.6085 L248.38 80.1133 L253.538 80.0125 L258.724 80.4827 L262.701 81.4793 L264.449 82.1869 L266.403 83.2613 L267.783 84.2625 L269.286 85.6691 L271.003 87.8597 L272.489 90.5286 L273.809 93.8354 L276.189 101.26 L277.117 103.231 L278.15 104.847 L279.767 106.756 L281.958 108.781 L290.016 114.788 L292.554 116.978 L293.641 118.188 L294.585 119.523 L295.379 121.008 L296.026 122.659 L296.602 124.795 L297.008 127.144 L297.437 133.175 L297.687 163.97 L297.57 178.214 L297.827 179.702 L298.311 180.603 L299.143 181.187 L300.677 181.525 L304.072 181.533 L317.619 180.716 L324.488 180.615 L331.37 180.925 L340.237 181.96 L341.407 181.706 L341.987 181.014 L342.251 179.773 L342.265 177.524 L340.792 155.226 L340.498 146.674 L340.401 137.697 L340.52 128.702 L340.837 120.096 L342.369 97.5332 L342.392 95.1627 L342.187 93.3748 L341.563 91.9272 L340.417 91.0234 L338.664 90.5106 L335.872 90.2414 L312.296 90.3193 L287.366 90.1083 L279.204 90.2791 L278.673 80.8452 L286.935 80.6604 L311.01 80.8443 L332.058 80.7149 L336.384 80.8051 L339.863 81.0969 L342.534 81.7219 L344.924 82.723 L347.225 84.276 L349.057 86.1719 L350.511 88.618 L351.392 91.2417 L351.839 94.5142 L351.726 99.5604 L350.726 112.851 L350.223 121.702 L349.865 136.835 L349.971 146.504 L350.269 155.366 L351.683 176.481 L351.738 179.469 L351.536 181.741 L351.125 183.565 L350.358 185.41 L349.265 187.108 L347.734 188.716 L346.308 189.78 L344.469 190.676 L342.795 191.159 L341.099 191.38 L339.202 191.395 L330.805 190.361 L323.523 190.057 L315.996 190.253 L303.956 191.01 L300.647 190.996 L298.261 190.739 L296.395 190.256 L294.291 189.317 L292.666 188.19 L290.753 186.255 L289.436 184.136 L288.584 181.759 L288.145 178.987 L288.058 176.519 L288.235 163.961 L288.013 134.544 L287.712 129.261 L287.081 125.707 L286.575 124.503 L285.652 123.452 L275.428 115.632 L272.799 113.126 L270.549 110.429 L268.996 108.059 L267.81 105.706 L266.744 102.947 L264.438 95.7758 L263.475 93.6741 L262.522 92.2658 L261.131 91.0775 L258.838 90.1717 L255.859 89.643 L252.057 89.4489 L248.09 89.6034 L243.617 90.0417 L222.235 93.1431 L213.485 93.9881 L208.733 94.0766 L204.406 93.8059 L200.704 93.2141 L197.355 92.2352 L195.272 91.3236 L193.476 90.293 L191.957 89.1934 L190.531 87.8772 L189.244 86.3678 L188.143 84.694 L187.274 82.8848 L186.746 81.257 L186.387 79.3498 L186.277 77.4703 L186.416 75.3954 L186.793 73.4424 L187.439 71.4269 L188.366 69.378 L189.484 67.511 L190.764 65.8086 L192.471 63.959 L194.175 62.4334 L196.008 61.0742 L198.13 59.7842 L200.357 58.698 L202.662 57.8188 L205.021 57.1494 L207.401 56.6895 L211.531 56.326 L215.964 56.4309 L220.261 56.8856 L234.548 58.9398 L239.325 59.2508 L243.796 59.2132 L249.685 58.6853 L255.524 57.6613 L261.468 56.1368 L267.654 54.0676 L274.713 51.1729 L281.678 47.7835 L288.331 44.0155 L294.893 39.7436 L300.144 35.8861 L305.016 31.8797 L309.624 27.5872 L316.924 20.1054 L318.793 18.496 L320.713 17.1319 L323.109 15.8271 L325.733 14.7908 L328.277 14.0945 L331.498 13.5448 L337.01 13.1067 L344.915 12.9701 L388.354 13.6779 L409.317 13.8762 L433.038 13.7923 L467.132 13.2748 L477.145 13.4992 L480.297 13.9343 L483.193 14.7368 L485.623 15.8678 L487.744 17.342 L489.385 19.0026 L490.865 21.1756 L491.974 23.634 L492.817 26.5861 L493.197 28.8671 L493.531 32.3243 L493.476 36.7016 L493.139 39.0055 L492.639 41.0384 L491.944 42.933 L491.004 44.8201 L489.956 46.4339 L488.707 47.936 L487.287 49.2655 L485.567 50.5261 L483.768 51.5564 L481.941 52.3757 L479.725 53.1342 L477.305 53.7532 L473.802 54.3458 L469.225 54.7781 L463.985 55.0271 L457.712 55.0982 L443.738 54.8302 L394.04 53.0555 L368.755 52.4446 L346.497 52.4682 L336.768 52.7886 L329.713 53.2371 L323.1 53.9179 L316.925 54.8842 L312.084 56.021 L308.344 57.377 L305.797 58.818 L305.057 59.4372 L304.541 60.0994 L304.435 60.9181 L304.549 62.0468 L305.404 64.7961 L296.677 68.4191 Z " stroke="black" stroke-width="1" fill="none" />

</svg>
