<?xml version="1.0" encoding="UTF-8" standalone="no"?>
<svg  version="1.1" xmlns="http://www.w3.org/2000/svg" width="572.419px" height="229.889px">
<path d="M39.5105 22.6772 C52.0348 22.6772, 62.1877 32.8301, 62.1877 45.3543 C62.1877 57.8786, 52.0348 68.0315, 39.5105 68.0315 " stroke="black" stroke-width="1" fill="none" />

<path d="M145.336 179.528 L58.4067 179.528 L58.4067 92.5984 L145.336 92.5984 L145.336 179.528 Z " stroke="black" stroke-width="1" fill="none" />

<circle cx="79.1945" cy="17.0079" r="6.04724" stroke="black" stroke-width="1" fill="none" />


<path d="M241.714 188.976 L135.887 188.976 L135.887 83.1496 L241.714 83.1496 L241.714 188.976 Z " stroke="black" stroke-width="1" fill="none" />

<circle cx="334.313" cy="194.646" r="6.04724" stroke="black" stroke-width="1" fill="none" />


<circle cx="372.109" cy="128.504" r="22.6772" stroke="black" stroke-width="1" fill="none" />


<circle cx="513.84" cy="17.0079" r="6.04724" stroke="black" stroke-width="1" fill="none" />


<path d="M553.526 188.976 C541.002 188.976, 530.849 178.823, 530.849 166.299 C530.849 153.775, 541.002 143.622, 553.526 143.622 " stroke="black" stroke-width="1" fill="none" />

<path d="M553.525 143.622 L566.825 143.622 L568.204 143.433 L569.789 142.741 L571.091 141.603 L571.964 140.186 L572.396 138.504 L572.419 5.46625 L572.044 3.63259 L571.134 2.07129 L569.73 0.844269 L568.067 0.154277 L566.753 2.84217e-14 L26.2087 0.00045799 L24.4349 0.308927 L22.8472 1.15803 L21.9429 2.01915 L21.246 3.06318 L20.7976 4.22862 L20.6183 5.39196 L20.6322 17.4921 L21.0163 19.1117 L21.8135 20.4985 L22.6306 21.3458 L23.4846 21.9396 L24.4327 22.3675 L25.5208 22.626 L39.5091 22.6772 " stroke="black" stroke-width="1" fill="none" />

<path d="M553.525 188.976 L567.513 189.028 L568.601 189.286 L569.549 189.714 L570.403 190.308 L571.22 191.155 L572.018 192.542 L572.402 194.161 L572.416 206.262 L572.219 207.488 L571.788 208.59 L571.091 209.634 L570.187 210.496 L568.599 211.345 L566.825 211.653 L26.2808 211.654 L25.0374 211.516 L23.3657 210.847 L21.9456 209.638 L20.9899 208.021 L20.6151 206.187 L20.6384 73.1491 L21.0418 71.5342 L21.9429 70.0506 L23.245 68.9128 L24.836 68.2187 L26.2087 68.032 L39.5091 68.0315 " stroke="black" stroke-width="1" fill="none" />

</svg>
