<?xml version="1.0" encoding="UTF-8" standalone="no"?>
<svg xmlns="http://www.w3.org/2000/svg" xmlns:xlink="http://www.w3.org/1999/xlink" width="148.000mm" height="56.000mm" viewBox="5.750000 -61.000000 148.000000 56.000000">
    <circle transform="matrix(1,0,0,-1,99.75,-27)" style="stroke:#000000;stroke-width:0.050000mm;fill:none" r="7.75" cx="0" cy="0"/>
    <circle transform="matrix(1,0,0,-1,11.75,-49)" style="stroke:#000000;stroke-width:0.050000mm;fill:none" r="6" cx="0" cy="0"/>
    <circle transform="matrix(1,0,0,-1,147.75,-17)" style="stroke:#000000;stroke-width:0.050000mm;fill:none" r="6" cx="0" cy="0"/>
    <circle transform="matrix(1,0,0,-1,22.25,-56.5)" style="stroke:#000000;stroke-width:0.050000mm;fill:none" r="3" cx="0" cy="0"/>
    <circle transform="matrix(1,0,0,-1,137.25,-56.5)" style="stroke:#000000;stroke-width:0.050000mm;fill:none" r="3" cx="0" cy="0"/>
    <circle transform="matrix(1,0,0,-1,89.75,-9.5)" style="stroke:#000000;stroke-width:0.050000mm;fill:none" r="3" cx="0" cy="0"/>
    <path transform="matrix(1,0,0,-1,79.75,-33)" style="stroke:#000000;stroke-width:0.050000mm;fill:none" d="M68,-10L71.5,-10C72.32843,-10,73,-9.328426,73,-8.5L73,26.5C73,27.328426,72.32843,28,71.5,28L0,28L-71.5,28C-72.32843,28,-73,27.328426,-73,26.5L-73,23.5C-73,22.671572,-72.32843,22,-71.5,22L-68,22"/>
    <path transform="matrix(1,0,0,-1,79.75,-33)" style="stroke:#000000;stroke-width:0.050000mm;fill:none" d="M-68,10L-71.5,10C-72.32843,10,-73,9.328427,-73,8.5L-73,-26.5C-73,-27.328428,-72.32843,-28,-71.5,-28L0,-28L71.5,-28C72.32843,-28,73,-27.328426,73,-26.5L73,-23.5C73,-22.671574,72.32843,-22,71.5,-22L68,-22"/>
    <path transform="matrix(1,0,0,-1,79.75,-33)" style="stroke:#000000;stroke-width:0.050000mm;fill:none" d="M-41.5,-22L-15.5,-22C-14.947716,-22,-14.5,-21.552284,-14.5,-21L-14.5,5C-14.5,5.552285,-14.947716,6,-15.5,6L-41.5,6C-42.052284,6,-42.5,5.552285,-42.5,5L-42.5,3C-42.5,2.447715,-42.947716,2,-43.5,2L-60,2C-60.828426,2,-61.5,1.328427,-61.5,0.5L-61.5,-16.5C-61.5,-17.328426,-60.828426,-18,-60,-18L-43.5,-18C-42.947716,-18,-42.5,-18.447716,-42.5,-19L-42.5,-21C-42.5,-21.552284,-42.052284,-22,-41.5,-22z"/>
    <path transform="matrix(1,0,0,-1,79.75,-33)" style="stroke:#000000;stroke-width:0.050000mm;fill:none" d="M-43,2L-42.5,2"/>
    <path transform="matrix(1,0,0,-1,79.486008,-33.042465)" style="stroke:#000000;stroke-width:0.050000mm;fill:none" d="M-9.633903,0.495853C-9.856992,0.339919,-10.094309,0.261951,-10.345854,0.261951C-10.361789,0.263089,-10.378293,0.263658,-10.395366,0.263658C-10.665122,0.27504,-10.912114,0.372926,-11.136341,0.557317C-11.359431,0.742845,-11.48065,1.013171,-11.5,1.368293L-11.5,1.402439L-11.5,3.50756C-11.5,3.541707,-11.49374,3.572439,-11.481219,3.599756C-11.435691,3.69878,-11.365691,3.748292,-11.271219,3.748292C-11.253008,3.748292,-11.23252,3.746016,-11.209756,3.741463C-11.082276,3.716423,-11.018537,3.638455,-11.018537,3.50756L-11.018537,1.402439C-11.002602,1.14065,-10.887642,0.944878,-10.673658,0.815122C-10.571219,0.75252,-10.465935,0.721219,-10.357805,0.721219C-10.240569,0.721219,-10.121057,0.758211,-9.999269,0.832195C-9.893414,0.894796,-9.816016,0.975609,-9.767074,1.074634C-9.716992,1.173658,-9.687399,1.282927,-9.678293,1.402439L-9.678293,3.50756C-9.678293,3.528049,-9.677155,3.543414,-9.674878,3.553658C-9.650976,3.681138,-9.577561,3.744878,-9.454635,3.744878C-9.442114,3.744878,-9.429594,3.744308,-9.417073,3.74317C-9.271382,3.729512,-9.198537,3.650975,-9.198537,3.50756L-9.198537,1.402439L-9.198537,1.368293C-9.201951,1.311382,-9.204227,1.277236,-9.205366,1.265853C-9.253171,0.918699,-9.396016,0.662032,-9.633903,0.495853z"/>
    <path transform="matrix(1,0,0,-1,79.486008,-33.042465)" style="stroke:#000000;stroke-width:0.050000mm;fill:none" d="M-8.339756,3.62878C-8.390976,3.709593,-8.45187,3.75,-8.522439,3.75C-8.54748,3.75,-8.573659,3.744878,-8.600976,3.734634C-8.705691,3.697073,-8.766016,3.619105,-8.781951,3.500731L-8.781951,0.48561C-8.758049,0.32626,-8.678374,0.246585,-8.542927,0.246585C-8.406342,0.246585,-8.325529,0.32626,-8.300488,0.48561L-8.300488,2.659024L-6.866342,0.359268C-6.817399,0.284146,-6.754228,0.246585,-6.676829,0.246585L-6.666585,0.246585C-6.644959,0.246585,-6.621626,0.25,-6.596585,0.256829C-6.481626,0.288699,-6.424147,0.363821,-6.424147,0.482195L-6.424147,0.48561L-6.424147,3.500731C-6.436666,3.660081,-6.514634,3.740894,-6.658049,3.74317C-6.660326,3.74317,-6.661464,3.74317,-6.661464,3.74317C-6.802602,3.74317,-6.883984,3.662357,-6.90561,3.500731L-6.90561,1.325609L-8.339756,3.62878z"/>
    <path transform="matrix(1,0,0,-1,79.486008,-33.042465)" style="stroke:#000000;stroke-width:0.050000mm;fill:none" d="M-5.452683,3.504146C-5.465204,3.663496,-5.542602,3.744308,-5.684878,3.746585L-5.691708,3.746585C-5.829432,3.746585,-5.910244,3.665772,-5.934147,3.504146L-5.934147,0.48561C-5.912521,0.336504,-5.831708,0.257398,-5.691708,0.248293L-3.878537,0.248293C-3.716911,0.258536,-3.636098,0.337642,-3.636098,0.48561C-3.636098,0.627886,-3.716342,0.70813,-3.87683,0.726341L-5.452683,0.724634L-5.452683,3.504146z"/>
    <path transform="matrix(1,0,0,-1,79.21492,-33.042465)" style="stroke:#000000;stroke-width:0.050000mm;fill:none" d="M-1.455854,0.386585C-1.591301,0.293252,-1.736992,0.246585,-1.892927,0.246585C-1.939594,0.246585,-1.987399,0.250569,-2.036342,0.258536C-2.38122,0.318861,-2.645285,0.498699,-2.828537,0.798048C-3.011789,1.097398,-3.117074,1.430325,-3.14439,1.796829C-3.148943,1.861707,-3.15122,1.926016,-3.15122,1.989756C-3.15122,2.290244,-3.098862,2.583902,-2.994147,2.870731C-2.868943,3.219024,-2.668618,3.472276,-2.393171,3.630487C-2.258862,3.707886,-2.118293,3.746585,-1.971464,3.746585C-1.691464,3.746585,-1.462683,3.640731,-1.285122,3.429024C-1.107561,3.218455,-0.972683,2.989105,-0.880488,2.740975C-0.796261,2.487154,-0.754147,2.225935,-0.754147,1.957317C-0.754147,1.8913,-0.756423,1.825284,-0.760976,1.759268C-0.786017,1.420081,-0.87935,1.110488,-1.040976,0.830488C-1.142277,0.656341,-1.28057,0.508374,-1.455854,0.386585z"/>
    <path transform="matrix(1,0,0,-1,79.21492,-33.042465)" style="stroke:#000000;stroke-width:0.050000mm;fill:none" d="M-1.879269,3.251463C-1.705122,3.204796,-1.570813,3.096097,-1.476342,2.925366C-1.38187,2.755772,-1.318699,2.565122,-1.28683,2.353414C-1.268618,2.228211,-1.258943,2.10187,-1.257805,1.97439C-1.257805,1.964146,-1.257805,1.954471,-1.257805,1.945366C-1.257805,1.869106,-1.261789,1.792276,-1.269757,1.714878C-1.292521,1.502032,-1.334065,1.330162,-1.39439,1.199268C-1.452439,1.071789,-1.539513,0.951138,-1.65561,0.837317C-1.735285,0.759918,-1.826342,0.721219,-1.928781,0.721219C-1.973171,0.721219,-2.019838,0.728618,-2.068781,0.743414C-2.205366,0.785528,-2.315773,0.870894,-2.4,0.999512C-2.484228,1.129268,-2.547399,1.27439,-2.589513,1.434878C-2.631626,1.596504,-2.655529,1.759837,-2.66122,1.924878C-2.662358,1.960162,-2.662927,1.99374,-2.662927,2.02561C-2.662927,2.147398,-2.654391,2.25439,-2.637317,2.346585C-2.608862,2.505935,-2.541139,2.698292,-2.434147,2.923658C-2.326017,3.149024,-2.167236,3.261707,-1.957805,3.261707C-1.928212,3.261707,-1.902033,3.258292,-1.879269,3.251463z"/>
    <path transform="matrix(1,0,0,-1,79.21492,-33.042465)" style="stroke:#000000;stroke-width:0.050000mm;fill:none" d="M1.472194,1.033659C1.4813,1.045041,1.492113,1.059837,1.504633,1.078048C1.563821,1.144065,1.625284,1.177073,1.689024,1.177073C1.740243,1.175935,1.792032,1.154878,1.844389,1.113902C1.913821,1.059268,1.948536,1.00065,1.948536,0.938048C1.948536,0.89252,1.930894,0.845284,1.895609,0.796341L1.880243,0.774146C1.876828,0.769593,1.873983,0.76561,1.871706,0.762195L1.864878,0.751951C1.707804,0.540243,1.502926,0.39,1.250243,0.301219C1.143251,0.263658,1.036829,0.244878,0.930975,0.244878C0.786422,0.244878,0.643577,0.280163,0.502438,0.350732C0.217886,0.493008,0.008455,0.734309,-0.125854,1.074634C-0.24309,1.372845,-0.302277,1.681301,-0.303415,2C-0.303415,2.04439,-0.302277,2.089349,-0.300001,2.134878C-0.281789,2.501382,-0.185041,2.838292,-0.009756,3.14561C0.165528,3.454065,0.419349,3.646992,0.751706,3.72439C0.818861,3.740325,0.886015,3.748292,0.95317,3.748292C1.076097,3.747154,1.199593,3.720406,1.323658,3.668048C1.513739,3.586097,1.669674,3.472276,1.791463,3.326585C1.792601,3.326585,1.795446,3.322601,1.799999,3.314634C1.833007,3.271382,1.849512,3.225853,1.849512,3.178049C1.849512,3.149593,1.843821,3.120569,1.832438,3.090975C1.801706,3.009024,1.745365,2.957805,1.663414,2.937317C1.642926,2.931626,1.623007,2.92878,1.603658,2.92878C1.538779,2.92878,1.477885,2.957804,1.420974,3.015853C1.274145,3.186585,1.132438,3.271951,0.995853,3.271951C0.995853,3.271951,0.990731,3.271951,0.980487,3.271951C0.839348,3.265121,0.713007,3.207073,0.601463,3.097805C0.489918,2.988536,0.397154,2.848536,0.32317,2.677805C0.249187,2.507073,0.203658,2.347154,0.186585,2.198048C0.177479,2.121788,0.172926,2.046097,0.172926,1.970976L0.172926,1.950488C0.172926,1.86626,0.179186,1.782032,0.191706,1.697805C0.216747,1.529349,0.268536,1.371138,0.347073,1.223171C0.484796,0.963658,0.657235,0.800894,0.86439,0.734878C0.905365,0.722358,0.946341,0.716097,0.987316,0.716097C1.152357,0.716097,1.313983,0.821951,1.472194,1.033659z"/>
    <path transform="matrix(1,0,0,-1,79.21492,-33.042465)" style="stroke:#000000;stroke-width:0.050000mm;fill:none" d="M2.853415,3.504146C2.828374,3.665772,2.746991,3.746585,2.609268,3.746585L2.602439,3.746585C2.460162,3.744308,2.383333,3.663496,2.371951,3.504146L2.371951,0.48561C2.383333,0.328536,2.460162,0.248862,2.602439,0.246585C2.604716,0.246585,2.606423,0.246585,2.607561,0.246585C2.746423,0.246585,2.828374,0.32626,2.853415,0.48561L2.853415,1.805366L3.28878,2.225366L4.22439,0.379756C4.279024,0.285284,4.34561,0.238048,4.424146,0.238048C4.459431,0.238048,4.496422,0.247154,4.535121,0.265366C4.627316,0.309756,4.673414,0.380325,4.673414,0.477073C4.673414,0.513496,4.667154,0.553333,4.654634,0.596585L3.652439,2.573658L4.442926,3.333414C4.497561,3.392601,4.524878,3.45065,4.524878,3.50756C4.524878,3.561057,4.500406,3.613414,4.451463,3.664634C4.399106,3.719268,4.342195,3.747154,4.280731,3.748292C4.226097,3.748292,4.168048,3.726097,4.106586,3.681707L2.853415,2.474634L2.853415,3.504146z"/>
    <path transform="matrix(1,0,0,-1,79.486008,-33.042465)" style="stroke:#000000;stroke-width:0.050000mm;fill:none" d="M-11.018537,-16.495001C-11.031057,-16.335651,-11.108456,-16.254837,-11.250731,-16.252562L-11.257561,-16.252562C-11.395285,-16.252562,-11.476097,-16.333374,-11.5,-16.495001L-11.5,-19.513536C-11.478374,-19.662642,-11.397561,-19.741747,-11.257561,-19.750853L-9.44439,-19.750853C-9.282764,-19.74061,-9.201951,-19.661505,-9.201951,-19.513536C-9.201951,-19.37126,-9.282195,-19.291016,-9.442683,-19.272804L-11.018537,-19.274511L-11.018537,-16.495001z"/>
    <path transform="matrix(1,0,0,-1,79.169739,-33.042465)" style="stroke:#000000;stroke-width:0.050000mm;fill:none" d="M-7.021708,-19.61256C-7.157155,-19.705894,-7.302846,-19.752562,-7.458781,-19.752562C-7.505447,-19.752562,-7.553252,-19.748577,-7.602195,-19.74061C-7.947073,-19.680285,-8.211139,-19.500448,-8.394391,-19.201097C-8.577642,-18.901749,-8.682927,-18.568821,-8.710244,-18.202316C-8.714797,-18.13744,-8.717073,-18.07313,-8.717073,-18.00939C-8.717073,-17.708902,-8.664716,-17.415243,-8.56,-17.128414C-8.434797,-16.780123,-8.234472,-16.526871,-7.959025,-16.368658C-7.824716,-16.29126,-7.684146,-16.252562,-7.537317,-16.252562C-7.257318,-16.252562,-7.028537,-16.358416,-6.850976,-16.570122C-6.673415,-16.780691,-6.538537,-17.01004,-6.446342,-17.258171C-6.362114,-17.511992,-6.320001,-17.773212,-6.320001,-18.04183C-6.320001,-18.107845,-6.322277,-18.173862,-6.326829,-18.239878C-6.35187,-18.579065,-6.445204,-18.888659,-6.60683,-19.168659C-6.70813,-19.342806,-6.846423,-19.490772,-7.021708,-19.61256z"/>
    <path transform="matrix(1,0,0,-1,79.169739,-33.042465)" style="stroke:#000000;stroke-width:0.050000mm;fill:none" d="M-7.445122,-16.747683C-7.270976,-16.79435,-7.136667,-16.903049,-7.042195,-17.07378C-6.947724,-17.243374,-6.884553,-17.434025,-6.852684,-17.645731C-6.834472,-17.770935,-6.824797,-17.897276,-6.823659,-18.024755C-6.823659,-18.035,-6.823659,-18.044674,-6.823659,-18.05378C-6.823659,-18.130041,-6.827642,-18.206869,-6.83561,-18.284267C-6.858375,-18.497114,-6.899919,-18.668983,-6.960244,-18.799877C-7.018293,-18.927357,-7.105366,-19.048008,-7.221464,-19.161829C-7.301138,-19.239227,-7.392195,-19.277927,-7.494634,-19.277927C-7.539025,-19.277927,-7.585691,-19.270529,-7.634634,-19.255732C-7.77122,-19.213617,-7.881626,-19.128252,-7.965854,-18.999634C-8.050081,-18.869879,-8.113253,-18.724756,-8.155366,-18.564268C-8.19748,-18.402643,-8.221382,-18.239309,-8.227074,-18.074268C-8.228211,-18.038984,-8.228781,-18.005407,-8.228781,-17.973537C-8.228781,-17.851748,-8.220244,-17.744757,-8.203171,-17.652561C-8.174716,-17.493212,-8.106993,-17.300854,-8,-17.075487C-7.89187,-16.850122,-7.733089,-16.73744,-7.523659,-16.73744C-7.494065,-16.73744,-7.467886,-16.740854,-7.445122,-16.747683z"/>
    <path transform="matrix(1,0,0,-1,79.169739,-33.042465)" style="stroke:#000000;stroke-width:0.050000mm;fill:none" d="M-4.093658,-18.965488C-4.084553,-18.954105,-4.07374,-18.939308,-4.06122,-18.921099C-4.002033,-18.855082,-3.940569,-18.822073,-3.876829,-18.822073C-3.82561,-18.823212,-3.773821,-18.844269,-3.721464,-18.885244C-3.652033,-18.939878,-3.617317,-18.998497,-3.617317,-19.061098C-3.617317,-19.106627,-3.634959,-19.153862,-3.670244,-19.202805L-3.68561,-19.225C-3.689024,-19.229553,-3.69187,-19.233536,-3.694147,-19.236952L-3.700976,-19.247196C-3.858049,-19.458902,-4.062927,-19.609146,-4.31561,-19.697927C-4.422602,-19.735487,-4.529025,-19.754269,-4.634878,-19.754269C-4.779431,-19.754269,-4.922276,-19.718983,-5.063415,-19.648415C-5.347968,-19.506138,-5.557399,-19.264837,-5.691708,-18.924513C-5.808943,-18.626301,-5.86813,-18.317846,-5.869268,-17.999146C-5.869268,-17.954756,-5.86813,-17.909798,-5.865854,-17.864269C-5.847642,-17.497765,-5.750895,-17.160854,-5.57561,-16.853537C-5.400325,-16.545082,-5.146504,-16.352154,-4.814147,-16.274755C-4.746992,-16.258821,-4.679837,-16.250854,-4.612683,-16.250854C-4.489756,-16.251991,-4.36626,-16.27874,-4.242195,-16.331099C-4.052114,-16.41305,-3.896179,-16.526871,-3.77439,-16.672562C-3.773252,-16.672562,-3.770407,-16.676544,-3.765854,-16.684513C-3.732846,-16.727764,-3.716341,-16.773293,-3.716341,-16.821098C-3.716341,-16.849552,-3.722033,-16.878578,-3.733415,-16.908171C-3.764146,-16.990122,-3.820488,-17.041342,-3.902439,-17.061829C-3.922927,-17.06752,-3.942846,-17.070366,-3.962195,-17.070366C-4.027073,-17.070366,-4.087967,-17.041342,-4.144878,-16.983294C-4.291708,-16.812561,-4.433415,-16.727196,-4.57,-16.727196C-4.57,-16.727196,-4.575122,-16.727196,-4.585366,-16.727196C-4.726504,-16.734024,-4.852846,-16.792074,-4.964391,-16.901342C-5.075935,-17.010611,-5.168699,-17.15061,-5.242683,-17.321342C-5.316667,-17.492073,-5.362195,-17.651993,-5.379268,-17.801098C-5.388374,-17.877357,-5.392927,-17.953049,-5.392927,-18.028172L-5.392927,-18.048658C-5.392927,-18.132887,-5.386667,-18.217113,-5.374146,-18.301342C-5.349106,-18.469797,-5.297317,-18.628008,-5.218781,-18.775976C-5.081057,-19.035488,-4.908618,-19.198252,-4.701464,-19.264269C-4.660488,-19.276789,-4.619513,-19.283049,-4.578537,-19.283049C-4.413496,-19.283049,-4.25187,-19.177195,-4.093658,-18.965488z"/>
    <path transform="matrix(1,0,0,-1,79.169739,-33.042465)" style="stroke:#000000;stroke-width:0.050000mm;fill:none" d="M-2.712439,-16.495001C-2.73748,-16.333374,-2.818862,-16.252562,-2.956585,-16.252562L-2.963415,-16.252562C-3.105691,-16.254837,-3.18252,-16.335651,-3.193902,-16.495001L-3.193903,-19.513536C-3.182521,-19.67061,-3.105691,-19.750284,-2.963415,-19.752562C-2.961138,-19.752562,-2.959431,-19.752562,-2.958293,-19.752562C-2.819431,-19.752562,-2.73748,-19.672886,-2.712439,-19.513536L-2.712439,-18.193781L-2.277074,-17.773781L-1.341464,-19.61939C-1.286829,-19.713861,-1.220244,-19.761097,-1.141708,-19.761097C-1.106423,-19.761097,-1.069431,-19.751991,-1.030731,-19.73378C-0.938537,-19.68939,-0.892439,-19.618822,-0.892439,-19.522074C-0.892439,-19.485651,-0.898699,-19.445812,-0.911219,-19.402561L-1.913415,-17.425488L-1.122927,-16.665731C-1.068293,-16.606544,-1.040976,-16.548496,-1.040976,-16.491585C-1.040976,-16.438089,-1.065448,-16.385733,-1.11439,-16.334513C-1.166748,-16.279879,-1.223659,-16.251991,-1.285122,-16.250854C-1.339756,-16.250854,-1.397805,-16.273048,-1.459269,-16.31744L-2.712439,-17.524513L-2.712439,-16.495001z"/>
    <path transform="matrix(1,0,0,-1,79.486008,-33.042465)" style="stroke:#000000;stroke-width:0.050000mm;fill:none" d="M-11.057805,-6.37122C-11.109024,-6.290407,-11.169919,-6.25,-11.240488,-6.25C-11.265529,-6.25,-11.291707,-6.255122,-11.319024,-6.265366C-11.423739,-6.302927,-11.484065,-6.380895,-11.5,-6.499269L-11.5,-9.51439C-11.476097,-9.67374,-11.396422,-9.753415,-11.260976,-9.753415C-11.124391,-9.753415,-11.043577,-9.67374,-11.018537,-9.51439L-11.018537,-7.340976L-9.584391,-9.640732C-9.535447,-9.715854,-9.472277,-9.753415,-9.394878,-9.753415L-9.384634,-9.753415C-9.363008,-9.753415,-9.339675,-9.75,-9.314634,-9.743171C-9.199675,-9.711301,-9.142196,-9.636179,-9.142196,-9.517805L-9.142196,-9.51439L-9.142196,-6.499269C-9.154716,-6.339919,-9.232683,-6.259106,-9.376098,-6.25683C-9.378374,-6.25683,-9.379513,-6.25683,-9.379513,-6.25683C-9.520651,-6.25683,-9.602033,-6.337643,-9.623658,-6.499269L-9.623658,-8.674391L-11.057805,-6.37122z"/>
    <path transform="matrix(1,0,0,-1,79.486008,-33.042465)" style="stroke:#000000;stroke-width:0.050000mm;fill:none" d="M-6.95683,-9.613415C-7.092277,-9.706748,-7.237967,-9.753415,-7.393903,-9.753415C-7.440569,-9.753415,-7.488374,-9.749432,-7.537317,-9.741464C-7.882195,-9.681139,-8.14626,-9.501301,-8.329513,-9.201952C-8.512764,-8.902602,-8.618049,-8.569675,-8.645366,-8.203171C-8.649919,-8.138292,-8.652195,-8.073984,-8.652195,-8.010244C-8.652195,-7.709756,-8.599837,-7.416098,-8.495122,-7.129269C-8.369919,-6.780976,-8.169594,-6.527724,-7.894147,-6.369513C-7.759838,-6.292114,-7.619268,-6.253415,-7.472439,-6.253415C-7.19244,-6.253415,-6.963659,-6.359269,-6.786098,-6.570976C-6.608537,-6.781545,-6.473659,-7.010895,-6.381464,-7.259025C-6.297236,-7.512846,-6.255122,-7.774065,-6.255122,-8.042684C-6.255122,-8.1087,-6.257399,-8.174716,-6.261951,-8.240732C-6.286992,-8.579919,-6.380326,-8.889512,-6.541952,-9.169513C-6.643252,-9.343658,-6.781545,-9.491627,-6.95683,-9.613415z"/>
    <path transform="matrix(1,0,0,-1,79.486008,-33.042465)" style="stroke:#000000;stroke-width:0.050000mm;fill:none" d="M-7.380244,-6.748537C-7.206098,-6.795204,-7.071789,-6.903903,-6.977317,-7.074635C-6.882846,-7.244228,-6.819675,-7.434878,-6.787805,-7.646585C-6.769594,-7.771789,-6.759919,-7.89813,-6.758781,-8.02561C-6.758781,-8.035854,-6.758781,-8.045528,-6.758781,-8.054634C-6.758781,-8.130895,-6.762764,-8.207724,-6.770732,-8.285122C-6.793496,-8.497968,-6.835041,-8.669838,-6.895366,-8.800732C-6.953415,-8.928211,-7.040488,-9.048862,-7.156586,-9.162683C-7.23626,-9.240082,-7.327317,-9.278781,-7.429756,-9.278781C-7.474146,-9.278781,-7.520813,-9.271382,-7.569757,-9.256586C-7.706342,-9.214472,-7.816748,-9.129106,-7.900976,-9.000488C-7.985203,-8.870732,-8.048374,-8.72561,-8.090488,-8.565123C-8.132602,-8.403496,-8.156505,-8.240163,-8.162195,-8.075122C-8.163334,-8.039838,-8.163902,-8.00626,-8.163902,-7.974391C-8.163902,-7.852602,-8.155366,-7.74561,-8.138293,-7.653415C-8.109838,-7.494065,-8.042114,-7.301707,-7.935122,-7.076342C-7.826992,-6.850976,-7.668211,-6.738293,-7.458781,-6.738293C-7.429187,-6.738293,-7.403008,-6.741708,-7.380244,-6.748537z"/>
    <path transform="matrix(1,0,0,-1,79.486008,-33.042465)" style="stroke:#000000;stroke-width:0.050000mm;fill:none" d="M-4.301952,-8.288537C-4.03561,-8.238456,-3.821627,-8.097318,-3.66,-7.865122C-3.535935,-7.686423,-3.473903,-7.498049,-3.473903,-7.3C-3.473903,-7.298862,-3.473903,-7.297155,-3.473903,-7.294878C-3.473903,-7.235691,-3.479594,-7.175366,-3.490976,-7.113903C-3.536505,-6.864635,-3.653171,-6.659187,-3.840976,-6.497561C-4.028781,-6.334797,-4.250163,-6.253415,-4.505123,-6.253415L-5.565366,-6.253415C-5.632521,-6.253415,-5.689431,-6.276748,-5.736098,-6.323415C-5.781626,-6.370081,-5.80439,-6.426423,-5.80439,-6.492439L-5.80439,-9.509269C-5.80439,-9.588943,-5.77309,-9.652114,-5.710488,-9.698781C-5.66496,-9.734065,-5.617724,-9.751707,-5.56878,-9.751707C-5.532358,-9.750569,-5.495366,-9.740894,-5.457805,-9.722683C-5.367886,-9.679431,-5.322927,-9.608293,-5.322927,-9.509269L-5.322927,-8.307318L-4.896098,-8.307318L-4.05439,-9.637317C-4.021383,-9.695366,-3.969594,-9.730651,-3.899025,-9.743171C-3.880813,-9.746586,-3.86374,-9.748293,-3.847806,-9.748293C-3.796586,-9.748293,-3.750489,-9.733497,-3.709513,-9.703902C-3.640082,-9.650407,-3.605366,-9.589512,-3.605366,-9.521219C-3.605366,-9.47683,-3.619594,-9.429594,-3.64805,-9.379513L-4.334391,-8.293659L-4.301952,-8.288537z"/>
    <path transform="matrix(1,0,0,-1,79.486008,-33.042465)" style="stroke:#000000;stroke-width:0.050000mm;fill:none" d="M-5.322927,-6.734879L-4.48122,-6.734879C-4.301383,-6.750813,-4.160244,-6.82935,-4.057805,-6.970488C-3.990651,-7.063821,-3.957073,-7.163984,-3.957073,-7.270976C-3.957073,-7.326748,-3.966179,-7.384797,-3.984391,-7.445122C-4.018537,-7.558943,-4.085123,-7.651139,-4.184147,-7.721708C-4.282033,-7.792277,-4.389025,-7.827561,-4.505123,-7.827561L-5.322927,-7.827561L-5.322927,-6.734879z"/>
    <path transform="matrix(1,0,0,-1,79.486008,-33.042465)" style="stroke:#000000;stroke-width:0.050000mm;fill:none" d="M-1.957805,-8.380732C-1.899756,-8.459269,-1.834309,-8.498537,-1.761464,-8.498537L-1.75122,-8.498537C-1.676098,-8.498537,-1.606667,-8.459269,-1.542927,-8.380732L-0.957318,-7.378537L-0.957318,-9.510976C-0.933415,-9.670325,-0.853172,-9.75,-0.716586,-9.75C-0.713171,-9.75,-0.711464,-9.75,-0.711464,-9.75C-0.579432,-9.75,-0.500895,-9.670325,-0.475854,-9.510976L-0.475854,-6.495854C-0.486098,-6.366098,-0.543578,-6.288131,-0.648294,-6.261951C-0.671058,-6.25626,-0.692115,-6.253415,-0.711464,-6.253415C-0.790001,-6.253415,-0.860001,-6.292114,-0.921464,-6.369513L-1.75122,-7.781464L-2.57244,-6.369513C-2.633903,-6.292114,-2.704472,-6.253415,-2.784147,-6.253415L-2.794391,-6.253415C-2.812602,-6.253415,-2.830814,-6.255692,-2.849025,-6.260244C-2.954879,-6.2887,-3.012358,-6.367236,-3.021464,-6.495854L-3.021464,-9.510976C-3.010082,-9.668049,-2.932114,-9.746586,-2.787562,-9.746586C-2.785285,-9.746586,-2.784147,-9.746586,-2.784147,-9.746586C-2.638456,-9.746586,-2.556504,-9.668049,-2.538293,-9.510976L-2.54,-7.383659L-1.957805,-8.380732z"/>
    <path transform="matrix(1,0,0,-1,79.486008,-33.042465)" style="stroke:#000000;stroke-width:0.050000mm;fill:none" d="M-47.036705,18.009756C-47.024998,18.024391,-47.011097,18.043415,-46.994999,18.06683C-46.918903,18.151707,-46.839878,18.194145,-46.757927,18.194145C-46.692074,18.192682,-46.625488,18.165609,-46.55817,18.112926C-46.468903,18.042683,-46.424267,17.967318,-46.424267,17.886829C-46.424267,17.828293,-46.446949,17.767561,-46.492317,17.704634L-46.512074,17.676098C-46.516464,17.670244,-46.520123,17.665121,-46.523048,17.660732L-46.53183,17.64756C-46.73378,17.375366,-46.997192,17.182196,-47.322071,17.068048C-47.459633,17.019756,-47.596462,16.995609,-47.732559,16.995609C-47.918415,16.995609,-48.102074,17.040976,-48.283535,17.131708C-48.649391,17.314634,-48.918659,17.624878,-49.091339,18.062439C-49.242073,18.445854,-49.318169,18.84244,-49.319633,19.252195C-49.319633,19.309269,-49.318169,19.367073,-49.315243,19.42561C-49.291828,19.89683,-49.167439,20.33,-48.942074,20.725122C-48.716705,21.121708,-48.390366,21.369757,-47.963047,21.469269C-47.876705,21.489756,-47.790363,21.5,-47.704025,21.5C-47.545975,21.498537,-47.387196,21.464146,-47.227684,21.39683C-46.983292,21.291464,-46.782803,21.145123,-46.626221,20.957806C-46.624756,20.957806,-46.621098,20.952682,-46.615242,20.942438C-46.572803,20.886829,-46.551586,20.828293,-46.551586,20.766829C-46.551586,20.730244,-46.558903,20.692926,-46.573536,20.654879C-46.613049,20.549513,-46.685486,20.483658,-46.790852,20.457317C-46.817196,20.450001,-46.842804,20.446341,-46.867683,20.446341C-46.951096,20.446341,-47.029388,20.483658,-47.102562,20.558292C-47.29134,20.777805,-47.473537,20.88756,-47.649147,20.88756C-47.649147,20.88756,-47.655731,20.88756,-47.668903,20.88756C-47.850365,20.87878,-48.012806,20.804146,-48.156219,20.663658C-48.299633,20.52317,-48.418903,20.34317,-48.514023,20.123659C-48.609146,19.904146,-48.667683,19.698536,-48.689632,19.50683C-48.70134,19.408781,-48.707195,19.311464,-48.707195,19.214878L-48.707195,19.188536C-48.707195,19.080244,-48.699146,18.971951,-48.683048,18.863659C-48.650852,18.647074,-48.584267,18.443659,-48.483292,18.253414C-48.306217,17.919756,-48.084511,17.710487,-47.818169,17.62561C-47.765488,17.609512,-47.712803,17.601463,-47.660122,17.601463C-47.447926,17.601463,-47.24012,17.73756,-47.036705,18.009756z"/>
    <path transform="matrix(1,0,0,-1,79.486008,-33.042465)" style="stroke:#000000;stroke-width:0.050000mm;fill:none" d="M-43.700123,17.177805C-43.874268,17.057804,-44.061584,16.997805,-44.262074,16.997805C-44.322071,16.997805,-44.383537,17.002926,-44.446465,17.01317C-44.889877,17.090731,-45.229389,17.321951,-45.465,17.706829C-45.700607,18.091707,-45.835976,18.519756,-45.871098,18.990976C-45.876949,19.07439,-45.879879,19.157074,-45.879879,19.239025C-45.879879,19.625366,-45.812561,20.002928,-45.677925,20.371708C-45.516949,20.819511,-45.259388,21.145123,-44.905243,21.348537C-44.732559,21.44805,-44.55183,21.497805,-44.363049,21.497805C-44.003048,21.497805,-43.7089,21.361708,-43.48061,21.089512C-43.252316,20.818781,-43.078903,20.523903,-42.960365,20.204878C-42.852074,19.878536,-42.797928,19.542683,-42.797928,19.197317C-42.797928,19.112438,-42.800854,19.027561,-42.806705,18.942682C-42.838902,18.506586,-42.9589,18.108536,-43.166706,17.748537C-43.296951,17.524633,-43.474754,17.334391,-43.700123,17.177805z"/>
    <path transform="matrix(1,0,0,-1,79.486008,-33.042465)" style="stroke:#000000;stroke-width:0.050000mm;fill:none" d="M-44.244511,20.861219C-44.020611,20.80122,-43.847927,20.661463,-43.726463,20.441952C-43.605,20.223902,-43.523781,19.978781,-43.482803,19.706585C-43.459389,19.54561,-43.446949,19.383171,-43.445488,19.219269C-43.445488,19.206097,-43.445488,19.193659,-43.445488,19.181952C-43.445488,19.083902,-43.450611,18.985123,-43.460854,18.885609C-43.49012,18.611952,-43.543537,18.390976,-43.621098,18.222683C-43.695732,18.058781,-43.807682,17.903658,-43.956951,17.757317C-44.059391,17.657804,-44.176464,17.608049,-44.30817,17.608049C-44.365242,17.608049,-44.425243,17.617561,-44.488171,17.636585C-44.66378,17.690731,-44.805733,17.800488,-44.914024,17.965855C-45.022316,18.132683,-45.103535,18.319269,-45.157681,18.52561C-45.21183,18.733416,-45.242561,18.943415,-45.249878,19.155609C-45.251339,19.200975,-45.252071,19.244146,-45.252071,19.285122C-45.252071,19.441708,-45.241096,19.579268,-45.219147,19.697805C-45.18256,19.902683,-45.095486,20.15,-44.957928,20.439756C-44.818901,20.729511,-44.614754,20.87439,-44.34549,20.87439C-44.307438,20.87439,-44.273781,20.870001,-44.244511,20.861219z"/>
    <path transform="matrix(1,0,0,-1,79.486008,-33.042465)" style="stroke:#000000;stroke-width:0.050000mm;fill:none" d="M-39.93549,18.009756C-39.923779,18.024391,-39.909878,18.043415,-39.89378,18.06683C-39.817684,18.151707,-39.738659,18.194145,-39.656708,18.194145C-39.590855,18.192682,-39.524269,18.165609,-39.456951,18.112926C-39.367683,18.042683,-39.323048,17.967318,-39.323048,17.886829C-39.323048,17.828293,-39.34573,17.767561,-39.391098,17.704634L-39.410854,17.676098C-39.415241,17.670244,-39.418903,17.665121,-39.421829,17.660732L-39.430611,17.64756C-39.632561,17.375366,-39.895973,17.182196,-40.220852,17.068048C-40.358414,17.019756,-40.495243,16.995609,-40.63134,16.995609C-40.817196,16.995609,-41.000854,17.040976,-41.182316,17.131708C-41.548172,17.314634,-41.81744,17.624878,-41.99012,18.062439C-42.140854,18.445854,-42.216949,18.84244,-42.218414,19.252195C-42.218414,19.309269,-42.216949,19.367073,-42.214024,19.42561C-42.190609,19.89683,-42.066219,20.33,-41.840855,20.725122C-41.615486,21.121708,-41.289146,21.369757,-40.861828,21.469269C-40.775486,21.489756,-40.689144,21.5,-40.602806,21.5C-40.444756,21.498537,-40.285976,21.464146,-40.126465,21.39683C-39.882072,21.291464,-39.681587,21.145123,-39.525002,20.957806C-39.523537,20.957806,-39.519878,20.952682,-39.514023,20.942438C-39.471584,20.886829,-39.450367,20.828293,-39.450367,20.766829C-39.450367,20.730244,-39.457684,20.692926,-39.472317,20.654879C-39.511829,20.549513,-39.584267,20.483658,-39.689632,20.457317C-39.715977,20.450001,-39.741585,20.446341,-39.766464,20.446341C-39.849876,20.446341,-39.928169,20.483658,-40.001343,20.558292C-40.190121,20.777805,-40.372314,20.88756,-40.547924,20.88756C-40.547924,20.88756,-40.554512,20.88756,-40.567684,20.88756C-40.749146,20.87878,-40.911583,20.804146,-41.055,20.663658C-41.198414,20.52317,-41.317684,20.34317,-41.412804,20.123659C-41.507927,19.904146,-41.566463,19.698536,-41.588413,19.50683C-41.600121,19.408781,-41.605976,19.311464,-41.605976,19.214878L-41.605976,19.188536C-41.605976,19.080244,-41.597927,18.971951,-41.581829,18.863659C-41.549633,18.647074,-41.483047,18.443659,-41.382072,18.253414C-41.205002,17.919756,-40.983292,17.710487,-40.716949,17.62561C-40.664268,17.609512,-40.611584,17.601463,-40.558903,17.601463C-40.346706,17.601463,-40.138901,17.73756,-39.93549,18.009756z"/>
    <path transform="matrix(1,0,0,-1,79.486008,-33.042465)" style="stroke:#000000;stroke-width:0.050000mm;fill:none" d="M-38.159634,21.186098C-38.19183,21.393902,-38.296463,21.497805,-38.473537,21.497805L-38.482319,21.497805C-38.665245,21.494879,-38.764023,21.390976,-38.77866,21.186098L-38.77866,17.305122C-38.764023,17.10317,-38.665245,17.000732,-38.482319,16.997805C-38.479389,16.997805,-38.477196,16.997805,-38.475731,16.997805C-38.297195,16.997805,-38.19183,17.100245,-38.159634,17.305122L-38.159634,19.001951L-37.599876,19.54195L-36.39695,17.169024C-36.326706,17.047562,-36.241096,16.98683,-36.140121,16.98683C-36.094757,16.98683,-36.047195,16.998537,-35.99744,17.021952C-35.878902,17.079023,-35.819633,17.169756,-35.819633,17.294146C-35.819633,17.340975,-35.827682,17.392195,-35.843781,17.447805L-37.132317,19.989756L-36.115974,20.966585C-36.045731,21.042683,-36.010609,21.117317,-36.010609,21.190487C-36.010609,21.259268,-36.042072,21.326586,-36.105,21.392439C-36.172318,21.462683,-36.245487,21.498537,-36.324512,21.5C-36.394756,21.5,-36.469391,21.471464,-36.548416,21.414391L-38.159634,19.862438L-38.159634,21.186098z"/>
    <path transform="matrix(1,0,0,-1,79.486008,-33.042465)" style="stroke:#000000;stroke-width:0.050000mm;fill:none" d="M-33.650852,18.911951L-33.609146,18.914146C-33.34866,18.930244,-33.116707,19.007072,-32.913292,19.144634C-32.709877,19.283659,-32.556217,19.475367,-32.452316,19.719755C-32.386463,19.874878,-32.353535,20.032927,-32.353535,20.193903C-32.353535,20.350487,-32.384998,20.509268,-32.447926,20.670244C-32.57378,20.995121,-32.78817,21.228537,-33.091099,21.370487C-33.249146,21.442196,-33.421829,21.484634,-33.609146,21.497805L-33.650852,21.497805L-35.029388,21.497805L-35.049145,21.497805C-35.220364,21.47439,-35.316952,21.37195,-35.338902,21.190487L-35.338902,17.311707C-35.314022,17.105366,-35.210854,17.002195,-35.029388,17.002195C-34.847927,17.002195,-34.744022,17.105366,-34.717682,17.311707L-34.717682,18.911951L-33.650852,18.911951z"/>
    <path transform="matrix(1,0,0,-1,79.486008,-33.042465)" style="stroke:#000000;stroke-width:0.050000mm;fill:none" d="M-34.717682,19.533171L-33.650852,19.533171C-33.484024,19.533171,-33.336948,19.588781,-33.209633,19.700001C-33.080853,19.81122,-33.005486,19.950243,-32.983536,20.117073C-32.979145,20.150732,-32.976952,20.182926,-32.976952,20.213659C-32.976952,20.376097,-33.033291,20.521708,-33.145977,20.650488C-33.280609,20.802683,-33.448902,20.87878,-33.650852,20.87878L-34.717682,20.87878L-34.717682,19.533171z"/>
    <path transform="matrix(1,0,0,-1,79.486008,-33.042465)" style="stroke:#000000;stroke-width:0.050000mm;fill:none" d="M-31.108904,21.186098C-31.141098,21.393902,-31.244999,21.497805,-31.420609,21.497805C-31.422073,21.497805,-31.422806,21.497805,-31.422806,21.497805C-31.596951,21.497805,-31.700121,21.393902,-31.732315,21.186098L-31.732315,17.305122C-31.700121,17.100245,-31.596218,16.997805,-31.420609,16.997805C-31.419146,16.997805,-31.418413,16.997805,-31.418413,16.997805C-31.244268,16.997805,-31.141098,17.100245,-31.108904,17.305122L-31.108904,21.186098z"/>
    <path transform="matrix(1,0,0,-1,79.486008,-33.042465)" style="stroke:#000000;stroke-width:0.050000mm;fill:none" d="M-30.178169,20.87878C-30.383047,20.894878,-30.485487,20.997316,-30.485487,21.186098C-30.485487,21.376341,-30.383047,21.480244,-30.178169,21.497805L-27.950121,21.497805C-27.746708,21.481707,-27.645,21.377804,-27.645,21.186098C-27.645,20.995853,-27.746708,20.893415,-27.950121,20.87878L-28.753538,20.87878L-28.753538,17.309513C-28.787195,17.104633,-28.892561,17.002195,-29.069633,17.002195C-29.071096,17.002195,-29.073292,17.002195,-29.07622,17.002195C-29.257683,17.005121,-29.356464,17.107561,-29.372561,17.309513L-29.372561,20.87878L-30.178169,20.87878z"/>
    <path transform="matrix(1,0,0,-1,79.486008,-33.042465)" style="stroke:#000000;stroke-width:0.050000mm;fill:none" d="M-21.878414,17.627806L-21.121096,17.627806C-20.825487,17.627806,-20.598658,17.788048,-20.440609,18.108536C-20.313292,18.366096,-20.249634,18.742195,-20.249634,19.23683L-20.249634,19.254391C-20.249634,19.722683,-20.324268,20.080488,-20.473537,20.327805C-20.695974,20.695122,-20.922804,20.87878,-21.154024,20.87878L-21.878414,20.87878L-21.878414,17.627806z"/>
    <path transform="matrix(1,0,0,-1,79.486008,-33.042465)" style="stroke:#000000;stroke-width:0.050000mm;fill:none" d="M-22.398657,21.414391C-22.341585,21.469999,-22.270609,21.497805,-22.18573,21.497805L-21.154024,21.497805C-20.640366,21.497805,-20.255487,21.263659,-19.99939,20.795366C-19.74329,20.327074,-19.615242,19.811951,-19.615242,19.25C-19.615242,18.688049,-19.744022,18.172926,-20.001585,17.704634C-20.257681,17.236341,-20.641827,17.002195,-21.154024,17.002195L-22.183535,17.002195L-22.187925,17.002195L-22.266951,17.015366C-22.419146,17.05195,-22.495243,17.151463,-22.495243,17.313902L-22.495243,21.190487C-22.495243,21.190487,-22.495243,21.197073,-22.495243,21.210243C-22.471828,21.306829,-22.439632,21.374878,-22.398657,21.414391z"/>
    <path transform="matrix(1,0,0,-1,78.717926,-33.042465)" style="stroke:#000000;stroke-width:0.050000mm;fill:none" d="M-15.819878,17.177805C-15.994023,17.057804,-16.181339,16.997805,-16.381828,16.997805C-16.441828,16.997805,-16.503292,17.002926,-16.566219,17.01317C-17.009634,17.090731,-17.349148,17.321951,-17.584757,17.706829C-17.820366,18.091707,-17.95573,18.519756,-17.990852,18.990976C-17.996706,19.07439,-17.999634,19.157074,-17.999634,19.239025C-17.999634,19.625366,-17.932318,20.002928,-17.797684,20.371708C-17.636707,20.819511,-17.379145,21.145123,-17.025,21.348537C-16.852316,21.44805,-16.671585,21.497805,-16.482805,21.497805C-16.122805,21.497805,-15.828658,21.361708,-15.600366,21.089512C-15.372073,20.818781,-15.198659,20.523903,-15.080122,20.204878C-14.971829,19.878536,-14.917683,19.542683,-14.917683,19.197317C-14.917683,19.112438,-14.920609,19.027561,-14.926464,18.942682C-14.958658,18.506586,-15.078658,18.108536,-15.286464,17.748537C-15.416707,17.524633,-15.594512,17.334391,-15.819878,17.177805z"/>
    <path transform="matrix(1,0,0,-1,78.717926,-33.042465)" style="stroke:#000000;stroke-width:0.050000mm;fill:none" d="M-16.364269,20.861219C-16.140366,20.80122,-15.967683,20.661463,-15.846218,20.441952C-15.724755,20.223902,-15.643537,19.978781,-15.602562,19.706585C-15.579145,19.54561,-15.566707,19.383171,-15.565245,19.219269C-15.565245,19.206097,-15.565245,19.193659,-15.565245,19.181952C-15.565245,19.083902,-15.570366,18.985123,-15.58061,18.885609C-15.609879,18.611952,-15.663293,18.390976,-15.740854,18.222683C-15.815489,18.058781,-15.92744,17.903658,-16.076708,17.757317C-16.179146,17.657804,-16.296219,17.608049,-16.427927,17.608049C-16.485001,17.608049,-16.545,17.617561,-16.607927,17.636585C-16.783537,17.690731,-16.925488,17.800488,-17.033781,17.965855C-17.142073,18.132683,-17.223291,18.319269,-17.277437,18.52561C-17.331585,18.733416,-17.362316,18.943415,-17.369635,19.155609C-17.371098,19.200975,-17.37183,19.244146,-17.37183,19.285122C-17.37183,19.441708,-17.360853,19.579268,-17.338902,19.697805C-17.302317,19.902683,-17.215244,20.15,-17.077684,20.439756C-16.938658,20.729511,-16.734512,20.87439,-16.465244,20.87439C-16.427195,20.87439,-16.393538,20.870001,-16.364269,20.861219z"/>
    <path transform="matrix(1,0,0,-1,78.717926,-33.042465)" style="stroke:#000000;stroke-width:0.050000mm;fill:none" d="M-12.158415,17.177805C-12.332561,17.057804,-12.519876,16.997805,-12.720365,16.997805C-12.780365,16.997805,-12.841828,17.002926,-12.904756,17.01317C-13.348171,17.090731,-13.687684,17.321951,-13.923294,17.706829C-14.158902,18.091707,-14.294268,18.519756,-14.32939,18.990976C-14.335243,19.07439,-14.338171,19.157074,-14.338171,19.239025C-14.338171,19.625366,-14.270854,20.002928,-14.136221,20.371708C-13.975244,20.819511,-13.717682,21.145123,-13.363537,21.348537C-13.190853,21.44805,-13.010122,21.497805,-12.821342,21.497805C-12.461341,21.497805,-12.167194,21.361708,-11.938903,21.089512C-11.71061,20.818781,-11.537195,20.523903,-11.418656,20.204878C-11.310364,19.878536,-11.256217,19.542683,-11.256217,19.197317C-11.256217,19.112438,-11.259145,19.027561,-11.265,18.942682C-11.297196,18.506586,-11.417197,18.108536,-11.625003,17.748537C-11.755244,17.524633,-11.933048,17.334391,-12.158415,17.177805z"/>
    <path transform="matrix(1,0,0,-1,78.717926,-33.042465)" style="stroke:#000000;stroke-width:0.050000mm;fill:none" d="M-12.702806,20.861219C-12.478903,20.80122,-12.30622,20.661463,-12.184755,20.441952C-12.063292,20.223902,-11.982073,19.978781,-11.941098,19.706585C-11.917683,19.54561,-11.905243,19.383171,-11.903781,19.219269C-11.903781,19.206097,-11.903781,19.193659,-11.903781,19.181952C-11.903781,19.083902,-11.908903,18.985123,-11.919147,18.885609C-11.948416,18.611952,-12.00183,18.390976,-12.079391,18.222683C-12.154025,18.058781,-12.265976,17.903658,-12.415244,17.757317C-12.517683,17.657804,-12.634756,17.608049,-12.766463,17.608049C-12.823537,17.608049,-12.883537,17.617561,-12.946465,17.636585C-13.122074,17.690731,-13.264025,17.800488,-13.372318,17.965855C-13.480609,18.132683,-13.561828,18.319269,-13.615974,18.52561C-13.670121,18.733416,-13.700853,18.943415,-13.708171,19.155609C-13.709635,19.200975,-13.710367,19.244146,-13.710367,19.285122C-13.710367,19.441708,-13.69939,19.579268,-13.677439,19.697805C-13.640854,19.902683,-13.553782,20.15,-13.416221,20.439756C-13.277195,20.729511,-13.073049,20.87439,-12.803781,20.87439C-12.765732,20.87439,-12.732074,20.870001,-12.702806,20.861219z"/>
    <path transform="matrix(1,0,0,-1,78.717926,-33.042465)" style="stroke:#000000;stroke-width:0.050000mm;fill:none" d="M-8.745002,18.88122C-8.402563,18.94561,-8.12744,19.127073,-7.919635,19.42561C-7.760123,19.655365,-7.680367,19.89756,-7.680367,20.152195C-7.680367,20.153658,-7.680367,20.155853,-7.680367,20.158781C-7.680367,20.234879,-7.687684,20.312439,-7.702316,20.391464C-7.760853,20.71195,-7.910853,20.976097,-8.152317,21.183903C-8.393781,21.393171,-8.678414,21.497805,-9.006218,21.497805L-10.36939,21.497805C-10.455733,21.497805,-10.528904,21.467804,-10.588902,21.407804C-10.647439,21.347805,-10.676707,21.275366,-10.676707,21.190487L-10.676707,17.311707C-10.676707,17.209269,-10.636462,17.128048,-10.555972,17.068048C-10.497436,17.022682,-10.436706,17,-10.373782,17C-10.32695,17.001463,-10.279389,17.013903,-10.231098,17.037317C-10.115487,17.092926,-10.057682,17.184391,-10.057682,17.311707L-10.057682,18.857073L-9.508904,18.857073L-8.426708,17.147074C-8.38427,17.072439,-8.317684,17.027073,-8.226952,17.010975C-8.203536,17.006586,-8.181583,17.004391,-8.161096,17.004391C-8.095244,17.004391,-8.035976,17.023415,-7.983293,17.061462C-7.894025,17.130243,-7.849392,17.208536,-7.849392,17.296341C-7.849392,17.353415,-7.867683,17.414146,-7.904266,17.478537L-8.786706,18.874634L-8.745002,18.88122z"/>
    <path transform="matrix(1,0,0,-1,78.717926,-33.042465)" style="stroke:#000000;stroke-width:0.050000mm;fill:none" d="M-10.057682,20.87878L-8.975486,20.87878C-8.744267,20.858292,-8.562805,20.757317,-8.4311,20.575853C-8.344757,20.455854,-8.301586,20.327072,-8.301586,20.189512C-8.301586,20.117805,-8.313293,20.043171,-8.336705,19.965611C-8.38061,19.819267,-8.466219,19.700731,-8.593534,19.610001C-8.719391,19.519268,-8.856952,19.473902,-9.006218,19.473902L-10.057682,19.473902L-10.057682,20.87878z"/>
    <path transform="matrix(1,0,0,-1,80.168961,-33.042465)" style="stroke:#000000;stroke-width:0.050000mm;fill:none" d="M14.449512,9.298536C14.402845,9.420325,14.330569,9.481219,14.232683,9.481219C14.20878,9.481219,14.18374,9.477804,14.157561,9.470975C14.039187,9.440244,13.979431,9.362276,13.978292,9.237073C13.978292,9.216585,13.98,9.195528,13.983415,9.173903L14.792683,6.170732C14.841626,6.056911,14.919024,6,15.024879,6C15.026016,6,15.026586,6,15.026586,6C15.133577,6,15.209838,6.059187,15.255366,6.177561L16.068048,9.194389C16.07374,9.222845,16.076586,9.249593,16.076586,9.274633C16.076586,9.381625,16.019106,9.452195,15.904147,9.486341C15.873415,9.495447,15.844959,9.5,15.81878,9.5C15.720895,9.5,15.649187,9.439674,15.603659,9.319024L15.024879,7.167804L14.449512,9.298536z"/>
    <path transform="matrix(1,0,0,-1,80.168961,-33.042465)" style="stroke:#000000;stroke-width:0.050000mm;fill:none" d="M17.032682,9.254147C17.007643,9.415772,16.92683,9.496585,16.790245,9.496585C16.789106,9.496585,16.788538,9.496585,16.788538,9.496585C16.65309,9.496585,16.572845,9.415772,16.547804,9.254147L16.547804,6.23561C16.572845,6.07626,16.65366,5.996585,16.790245,5.996585C16.791382,5.996585,16.791952,5.996585,16.791952,5.996585C16.927399,5.996585,17.007643,6.07626,17.032682,6.23561L17.032682,9.254147z"/>
    <path transform="matrix(1,0,0,-1,80.168961,-33.042465)" style="stroke:#000000;stroke-width:0.050000mm;fill:none" d="M17.997316,6.486585L18.586342,6.486585C18.816259,6.486585,18.992683,6.611219,19.11561,6.860487C19.214634,7.060813,19.264147,7.353333,19.264147,7.738049L19.264147,7.751707C19.264147,8.115934,19.206097,8.394227,19.09,8.586585C18.916992,8.872276,18.740568,9.015121,18.560732,9.015121L17.997316,9.015121L17.997316,6.486585z"/>
    <path transform="matrix(1,0,0,-1,80.168961,-33.042465)" style="stroke:#000000;stroke-width:0.050000mm;fill:none" d="M17.756586,6L17.76,6L18.560732,6C18.959106,6,19.257887,6.182114,19.457073,6.546341C19.657398,6.910569,19.757561,7.311219,19.757561,7.748292C19.757561,8.185366,19.657967,8.586016,19.45878,8.950244C19.259594,9.314471,18.960243,9.496585,18.560732,9.496585L17.758293,9.496585C17.692276,9.496585,17.637074,9.474959,17.592682,9.431706C17.560814,9.400975,17.535772,9.348048,17.517561,9.272926C17.517561,9.262683,17.517561,9.257561,17.517561,9.257561L17.517561,6.242439C17.517561,6.116097,17.576748,6.038699,17.695122,6.010243L17.756586,6z"/>
    <path transform="matrix(1,0,0,-1,79.477684,-33.042465)" style="stroke:#000000;stroke-width:0.050000mm;fill:none" d="M21.493902,8.086341L22.572927,8.086341C22.734554,8.062439,22.815367,7.981626,22.815367,7.843902C22.815367,7.70504,22.734554,7.624228,22.572927,7.601463L21.493902,7.601463L21.493902,6.479756L22.909267,6.479756C23.069756,6.455853,23.15,6.375609,23.15,6.239024C23.15,6.102439,23.069756,6.022764,22.909267,6L21.256586,6C21.114309,6.018211,21.033495,6.099024,21.014147,6.242439L21.014147,9.257561C21.035772,9.407804,21.116587,9.487479,21.256586,9.496585L22.909267,9.496585C23.069756,9.484065,23.15,9.404389,23.15,9.257561C23.15,9.109593,23.069756,9.030487,22.909267,9.020244L21.493902,9.020244L21.493902,8.086341z"/>
    <path transform="matrix(1,0,0,-1,79.331039,-33.042465)" style="stroke:#000000;stroke-width:0.050000mm;fill:none" d="M25.32,6.136585C25.184551,6.043252,25.03886,5.996585,24.882925,5.996585C24.83626,5.996585,24.788454,6.000569,24.739511,6.008536C24.394632,6.068861,24.130568,6.248699,23.947315,6.548048C23.764065,6.847398,23.658781,7.180325,23.631464,7.546829C23.626909,7.611707,23.624634,7.676016,23.624634,7.739756C23.624634,8.040243,23.676991,8.333902,23.781708,8.620731C23.90691,8.969024,24.107235,9.222276,24.382683,9.380487C24.516993,9.457886,24.65756,9.496585,24.80439,9.496585C25.084391,9.496585,25.313171,9.390732,25.49073,9.179024C25.668293,8.968455,25.803171,8.739105,25.895365,8.490975C25.979593,8.237154,26.021708,7.975935,26.021708,7.707316C26.021708,7.6413,26.01943,7.575284,26.014877,7.509268C25.989838,7.170081,25.896503,6.860487,25.734879,6.580488C25.633577,6.406341,25.495285,6.258374,25.32,6.136585z"/>
    <path transform="matrix(1,0,0,-1,79.331039,-33.042465)" style="stroke:#000000;stroke-width:0.050000mm;fill:none" d="M24.896584,9.001463C25.070732,8.954796,25.20504,8.846097,25.299511,8.675365C25.393982,8.505773,25.457153,8.315122,25.489023,8.103415C25.507236,7.978211,25.516911,7.85187,25.518049,7.72439C25.518049,7.714146,25.518049,7.704471,25.518049,7.695366C25.518049,7.619105,25.514065,7.542276,25.506096,7.464878C25.483332,7.252032,25.441788,7.080163,25.381464,6.949268C25.323416,6.821788,25.236341,6.701138,25.120243,6.587317C25.040567,6.509918,24.949511,6.471219,24.847073,6.471219C24.802681,6.471219,24.756016,6.478618,24.707073,6.493414C24.570488,6.535528,24.460081,6.620894,24.375854,6.749512C24.291626,6.879268,24.228455,7.02439,24.18634,7.184877C24.144228,7.346504,24.120325,7.509837,24.114634,7.674878C24.113495,7.710163,24.112926,7.74374,24.112926,7.775609C24.112926,7.897398,24.121464,8.00439,24.138536,8.096585C24.166992,8.255935,24.234715,8.448293,24.341707,8.673658C24.449837,8.899024,24.608618,9.011707,24.818048,9.011707C24.847641,9.011707,24.873819,9.008292,24.896584,9.001463z"/>
</svg>
