<?xml version="1.0" encoding="UTF-8" standalone="no"?>
<svg  version="1.1" xmlns="http://www.w3.org/2000/svg" width="570.469px" height="228.563px">
<path d="M37.5608 22.6772 C50.085 22.6772, 60.2379 32.8301, 60.2379 45.3543 C60.2379 57.8786, 50.085 68.0315, 37.5608 68.0315 " stroke="black" stroke-width="1" fill="none" />

<path d="M137.717 188.976 L236.027 188.976 L237.48 188.668 L238.706 187.82 L239.482 186.628 L239.764 185.234 L239.764 86.9238 L239.462 85.4483 L238.608 84.208 L237.416 83.4312 L236.022 83.1498 L137.376 83.165 L136.385 83.3922 L135.49 83.8752 L134.757 84.5792 L134.237 85.4532 L133.941 86.769 L133.937 94.5416 L133.821 95.4182 L133.433 96.3749 L132.796 97.1945 L131.965 97.8075 L131 98.1728 L67.6386 98.2699 L66.5495 98.4063 L65.5072 98.7501 L64.5507 99.2882 L63.7112 100.005 L63.0372 100.855 L62.5399 101.811 L62.2325 102.845 L62.1263 103.917 L62.1274 168.3 L62.483 170.168 L63.4363 171.814 L64.2931 172.647 L65.3055 173.282 L66.4286 173.691 L67.6189 173.856 L130.163 173.858 L131.01 173.956 L131.97 174.321 L132.8 174.935 L133.43 175.746 L133.82 176.703 L133.937 177.584 L133.941 185.362 L134.265 186.736 L134.845 187.654 L135.657 188.366 L136.643 188.821 L137.717 188.976 Z " stroke="black" stroke-width="1" fill="none" />

<circle cx="77.2451" cy="17.0079" r="11.3386" stroke="black" stroke-width="1" fill="none" />


<circle cx="77.2448" cy="17.0079" r="6.04724" stroke="black" stroke-width="1" fill="none" />


<circle cx="332.363" cy="194.646" r="11.3386" stroke="black" stroke-width="1" fill="none" />


<circle cx="332.363" cy="194.646" r="6.04724" stroke="black" stroke-width="1" fill="none" />


<circle cx="370.16" cy="128.504" r="29.2913" stroke="black" stroke-width="1" fill="none" />


<circle cx="511.891" cy="17.0079" r="11.3386" stroke="black" stroke-width="1" fill="none" />


<circle cx="511.89" cy="17.0079" r="6.04724" stroke="black" stroke-width="1" fill="none" />


<path d="M551.577 188.976 C539.052 188.976, 528.899 178.823, 528.899 166.299 C528.899 153.775, 539.052 143.622, 551.577 143.622 " stroke="black" stroke-width="1" fill="none" />

<path d="M551.575 188.976 L565.563 189.028 L566.652 189.286 L567.6 189.714 L568.454 190.308 L569.271 191.155 L570.068 192.542 L570.452 194.161 L570.466 206.262 L570.27 207.488 L569.838 208.59 L569.141 209.634 L568.237 210.496 L566.649 211.345 L564.876 211.653 L24.331 211.654 L23.0174 211.499 L21.3544 210.809 L19.9498 209.582 L19.0402 208.021 L18.6654 206.187 L18.6886 73.1491 L19.092 71.5342 L19.9931 70.0506 L21.2953 68.9128 L22.8862 68.2187 L24.2589 68.032 L37.5594 68.0315 " stroke="black" stroke-width="1" fill="none" />

<path d="M551.575 143.622 L564.876 143.622 L566.248 143.435 L567.839 142.741 L569.141 141.603 L570.014 140.186 L570.446 138.504 L570.469 5.46625 L570.094 3.63259 L569.185 2.07129 L567.78 0.844269 L566.117 0.154277 L564.803 0 L24.2589 0.00045799 L22.4851 0.308927 L20.8974 1.15803 L19.9931 2.01915 L19.2962 3.06318 L18.8478 4.22862 L18.6685 5.39196 L18.6824 17.4921 L19.0665 19.1117 L19.8638 20.4985 L20.6809 21.3458 L21.5348 21.9396 L22.4829 22.3675 L23.5711 22.626 L37.5594 22.6772 " stroke="black" stroke-width="1" fill="none" />

<path d="M132.048 98.2677 L133.937 98.2677 " stroke="black" stroke-width="1" fill="none" />

</svg>
