<?xml version="1.0" encoding="UTF-8" standalone="no"?>
<svg  version="1.1" xmlns="http://www.w3.org/2000/svg" width="395.44px" height="260.807px">
<path d="M395.44 249.449 L13.7079 249.449 L13.7079 0 L395.44 0 L395.44 249.449 Z " stroke="black" stroke-width="1" fill="none" />

<circle cx="36.3856" cy="22.6772" r="9.44882" stroke="black" stroke-width="1" fill="none" />


<circle cx="59.0626" cy="181.417" r="6.61417" stroke="black" stroke-width="1" fill="none" />


<circle cx="59.0626" cy="83.1496" r="6.61417" stroke="black" stroke-width="1" fill="none" />


<circle cx="128.984" cy="124.724" r="6.61417" stroke="black" stroke-width="1" fill="none" />


<circle cx="136.543" cy="17.0087" r="6.61417" stroke="black" stroke-width="1" fill="none" />


<circle cx="204.574" cy="105.827" r="6.61417" stroke="black" stroke-width="1" fill="none" />


<circle cx="221.582" cy="207.875" r="6.61417" stroke="black" stroke-width="1" fill="none" />


<circle cx="272.606" cy="17.0087" r="6.61417" stroke="black" stroke-width="1" fill="none" />


<circle cx="280.165" cy="124.724" r="6.61417" stroke="black" stroke-width="1" fill="none" />


<circle cx="350.086" cy="181.417" r="6.61417" stroke="black" stroke-width="1" fill="none" />


<circle cx="350.086" cy="83.1496" r="6.61417" stroke="black" stroke-width="1" fill="none" />


<circle cx="359.535" cy="41.5748" r="11.3386" stroke="black" stroke-width="1" fill="none" />


<circle cx="372.764" cy="226.772" r="9.44882" stroke="black" stroke-width="1" fill="none" />


<path d="M359.535 49.1339 L359.991 97.1118 L361.001 144.237 L360.77 152.068 L360.433 154.611 L359.976 156.426 L359.448 157.729 L358.601 159.108 L357.694 160.16 L356.336 161.384 L341.809 171.49 L337.499 174.8 L333.647 178.107 L331.058 180.646 L328.951 183.044 L327.245 185.323 L322.933 191.678 L319.603 195.621 L317.489 197.633 L315.201 199.431 L312.814 200.903 L310.772 201.821 L308.816 202.359 L307.032 202.468 L305.503 202.115 L304.301 201.283 L303.48 199.973 L303.116 198.523 L303.052 196.759 L303.368 194.249 L304.417 190.285 L306.34 185.085 L308.873 179.242 L317.574 160.196 L320.331 153.32 L322.396 147.254 L324.169 140.547 L325.318 133.983 L325.876 127.542 L325.9 120.49 L325.198 111.461 L324.553 106.686 L323.627 101.35 L321.426 91.8945 L320.037 87.2697 L318.709 83.5334 L317.276 80.1359 L315.963 77.527 L314.326 74.8724 L312.827 72.9548 L311.235 71.3846 L309.543 70.1721 L307.742 69.3209 L305.824 68.8278 L303.781 68.6829 L301.603 68.8699 L299.282 69.3664 L296.809 70.1451 L291.855 72.1983 L276.561 79.6613 L267.413 83.6504 L262.479 85.503 L257.321 87.1956 L251.961 88.689 L247.225 89.7879 L241.562 90.8424 L235.789 91.6464 L229.95 92.2076 L224.098 92.5455 L211.773 92.6697 L189.394 92.03 L185.299 92.0732 L181.655 92.2915 L177.686 92.8943 L174.567 93.9199 L172.522 95.218 L171.753 96.0056 L171.02 97.1166 L170.61 98.1018 L170.305 99.444 L170.28 102.12 L170.911 105.35 L172.055 108.649 L173.719 112.093 L175.573 114.833 L177.409 116.647 L179.715 118.068 L181.84 118.867 L184.354 119.443 L187.274 119.811 L190.582 119.992 L198.12 119.912 L216.145 119.06 L220.216 119.087 L223.761 119.368 L227.064 120.102 L229.286 121.202 L230.934 122.81 L231.654 123.979 L232.238 125.334 L233.167 129.049 L233.847 134.675 L234.321 142.835 L234.403 150.303 L234.135 155.263 L233.616 158.445 L232.722 160.803 L231.548 162.178 L230.685 162.695 L229.388 163.103 L227.834 163.287 L225.618 163.281 L220.594 162.838 L205.848 161.043 L198.845 160.398 L191.056 160.071 L185.374 160.352 L183.164 160.712 L181.216 161.25 L179.541 161.987 L178.145 162.942 L177.026 164.126 L176.18 165.538 L175.6 167.167 L175.277 168.986 L175.217 171.359 L175.501 173.855 L176.242 176.788 L177.205 179.206 L178.447 181.435 L179.945 183.396 L181.674 185.025 L183.61 186.283 L185.003 186.908 L186.849 187.449 L188.796 187.74 L190.831 187.807 L194.67 187.486 L205.454 185.788 L208.588 185.667 L211.648 185.959 L215.004 186.931 L217.776 188.411 L220.354 190.504 L223.014 193.617 L224.497 195.91 L226.075 198.955 L227.206 201.683 L228.324 205.114 L229.043 208.043 L229.636 211.561 L229.92 214.996 L229.911 217.732 L229.596 220.791 L229.077 223.107 L228.318 225.18 L227.319 226.992 L226.078 228.538 L224.596 229.826 L222.879 230.87 L220.936 231.695 L218.782 232.327 L215.95 232.872 L209.672 233.413 L202.46 233.291 L199.186 232.976 L196.042 232.479 L193.566 231.91 L191.253 231.184 L189.129 230.283 L187.577 229.423 L185.831 228.153 L184.588 226.967 L183.475 225.614 L182.481 224.081 L181.59 222.354 L180.59 219.904 L178.656 213.285 L170.789 176.237 L167.898 164.015 L164.562 151.178 L161.586 140.684 L158.361 130.18 L154.919 119.848 L151.298 109.867 L147.066 99.2735 L143.213 90.6046 L138.84 81.8861 L134.966 75.1973 L131.149 69.6134 L127.421 65.2075 L125.601 63.4606 L123.812 62.0213 L122.058 60.8892 L120.339 60.061 L118.24 59.443 L115.791 59.2856 L113.408 59.7181 L111.083 60.6816 L108.804 62.1146 L106.197 64.3029 L103.645 66.9698 L100.806 70.5119 L98.0666 74.4935 L95.4565 78.8365 L93.0096 83.4754 L90.7644 88.3548 L88.7606 93.4288 L87.2363 97.9974 L85.7892 103.336 L84.8051 108.088 L83.8327 115.665 L83.5843 122.618 L83.9406 129.582 L84.9876 137.184 L86.6246 144.638 L88.914 152.485 L91.5093 159.903 L96.6599 173.316 L98.353 178.444 L98.9475 180.961 L99.1611 182.81 L99.0426 184.345 L98.5452 185.543 L97.8315 186.276 L96.8691 186.776 L95.7082 187.058 L94.415 187.148 L92.7849 187.038 L91.1619 186.726 L89.6049 186.238 L87.8841 185.459 L85.6949 184.107 L78.086 178.561 L71.5895 174.137 L55.2609 164.019 L53.1751 162.293 L52.0489 160.57 L51.6499 159.402 L51.3257 157.712 L51.0008 152.731 L50.7347 126.414 L49.7905 86.8963 L49.6134 71.811 L42.9992 71.811 L43.1814 87.0209 L44.1338 127.979 L44.3971 153.212 L44.7409 158.56 L45.1045 160.514 L45.6441 162.342 L46.4924 164.187 L47.7287 166.069 L49.0567 167.528 L50.9466 169.106 L67.5716 179.412 L74.1558 183.888 L81.9824 189.594 L85.6574 191.739 L88.2435 192.764 L90.8512 193.426 L93.7642 193.766 L96.1996 193.685 L98.4684 193.21 L100.52 192.363 L102.351 191.115 L103.776 189.597 L104.913 187.587 L105.59 185.29 L105.787 182.776 L105.527 179.98 L104.769 176.819 L103.37 172.424 L97.7617 157.739 L95.5363 151.412 L93.7499 145.578 L92.295 139.857 L91.0178 133.051 L90.3539 126.726 L90.2403 120.159 L90.7027 113.631 L91.2674 109.646 L92.0415 105.694 L93.0216 101.783 L94.2826 97.6789 L95.7463 93.6452 L97.487 89.4896 L99.3934 85.4942 L101.434 81.701 L103.699 77.9634 L106.046 74.5642 L108.524 71.4634 L110.903 68.9692 L112.964 67.271 L114.88 66.2046 L116.458 65.8754 L117.921 66.2009 L119.334 66.969 L120.778 68.0631 L122.44 69.6202 L124.278 71.6408 L127.79 76.2939 L131.333 82.0175 L135.169 89.2272 L139.056 97.4915 L142.922 106.633 L146.696 116.474 L149.635 124.829 L152.599 133.914 L155.544 143.633 L158.281 153.342 L161.414 165.37 L164.253 177.326 L171.016 209.587 L172.375 215.526 L173.413 219.288 L174.507 222.529 L175.692 225.342 L177.006 227.781 L178.404 229.848 L180.006 231.739 L181.629 233.262 L183.586 234.721 L185.657 235.943 L188.043 237.042 L190.743 237.986 L193.511 238.707 L197.029 239.361 L200.847 239.815 L204.694 240.042 L208.765 240.059 L213.232 239.838 L216.677 239.475 L219.827 238.9 L222.697 238.091 L225.513 236.943 L227.81 235.618 L229.943 233.963 L231.83 231.998 L233.393 229.751 L234.606 227.321 L235.498 224.75 L236.142 221.817 L236.51 218.268 L236.526 214.63 L236.201 210.657 L235.535 206.655 L234.535 202.685 L233.308 199.063 L231.803 195.573 L230.027 192.266 L228.582 190.043 L226.98 187.96 L225.227 186.044 L223.329 184.319 L221.292 182.813 L219.345 181.664 L217.312 180.736 L215.002 179.967 L211.272 179.245 L207.404 179.057 L202.536 179.454 L194.465 180.827 L191.895 181.136 L188.936 181.096 L186.83 180.503 L185.778 179.851 L184.843 178.961 L183.937 177.743 L183.162 176.287 L182.495 174.524 L182.035 172.704 L181.822 170.99 L181.881 169.507 L182.33 168.043 L183.163 167.582 L185.632 167.016 L188.964 166.719 L194.037 166.753 L200.559 167.181 L220.89 169.526 L226.475 169.95 L229.157 169.823 L231.635 169.355 L233.82 168.513 L235.706 167.322 L236.82 166.299 L237.755 165.168 L238.634 163.765 L239.306 162.331 L240.304 158.915 L240.847 154.607 L241.033 146.212 L240.592 136.083 L239.829 128.635 L239.28 125.851 L238.611 123.526 L237.749 121.404 L236.694 119.533 L235.514 117.969 L234.088 116.561 L232.477 115.392 L230.754 114.469 L228.737 113.694 L226.474 113.114 L222.302 112.555 L217.426 112.42 L197.332 113.313 L191.469 113.395 L186.318 113.04 L184.448 112.714 L182.874 112.247 L181.787 111.699 L180.828 110.802 L179.903 109.531 L178.887 107.707 L177.96 105.6 L177.25 103.402 L176.869 101.497 L176.888 100.188 L178.222 99.5909 L180.211 99.1504 L183.047 98.8436 L186.624 98.6803 L192.272 98.6896 L213.458 99.2924 L220.026 99.2724 L226.351 99.0624 L236.726 98.1784 L246.591 96.633 L251.602 95.5658 L256.49 94.3215 L261.226 92.9038 L265.785 91.3356 L271.463 89.1248 L277.1 86.6773 L292.773 79.0892 L297.542 76.9624 L301.793 75.5594 L303.475 75.3058 L304.816 75.3632 L306.131 75.8277 L307.346 76.7725 L308.682 78.3562 L310.07 80.5938 L311.496 83.48 L312.824 86.7156 L314.013 90.1441 L315.187 94.1518 L317.205 102.944 L318.611 112.063 L319.29 120.729 L319.334 124.9 L319.178 128.784 L318.732 133.3 L317.972 137.877 L316.945 142.242 L315.609 146.729 L313.754 151.98 L311.315 158.009 L302.218 177.916 L298.978 185.738 L297.75 189.378 L296.934 192.629 L296.484 195.82 L296.459 198.512 L297.015 201.529 L298.113 203.987 L299.912 206.193 L301.943 207.713 L304.456 208.73 L307.197 209.107 L310.043 208.861 L313.115 208.017 L315.756 206.859 L318.417 205.277 L321.054 203.292 L323.78 200.805 L325.889 198.541 L327.981 195.956 L334.322 186.928 L336.453 184.586 L339.138 182.084 L345.895 176.698 L358.526 168.029 L361.688 165.51 L363.36 163.748 L364.593 162.019 L365.697 159.916 L366.498 157.706 L367.08 155.058 L367.414 152.316 L367.615 144.322 L366.595 95.9444 L366.149 49.0861 L359.535 49.1339 Z " stroke="black" stroke-width="1" fill="none" />

</svg>
