<?xml version="1.0" encoding="UTF-8" standalone="no"?>
<svg  version="1.1" xmlns="http://www.w3.org/2000/svg" width="383.861px" height="286.311px">
<path d="M51.266 18.8976 C51.266 31.4219, 41.1131 41.5748, 28.5888 41.5748 " stroke="black" stroke-width="1" fill="none" />

<circle cx="51.265" cy="79.3701" r="6.61417" stroke="black" stroke-width="1" fill="none" />


<circle cx="51.265" cy="177.638" r="6.61417" stroke="black" stroke-width="1" fill="none" />


<circle cx="121.186" cy="120.945" r="6.61417" stroke="black" stroke-width="1" fill="none" />


<circle cx="128.745" cy="13.2292" r="6.61417" stroke="black" stroke-width="1" fill="none" />


<circle cx="196.777" cy="102.047" r="6.61417" stroke="black" stroke-width="1" fill="none" />


<circle cx="213.785" cy="204.095" r="6.61417" stroke="black" stroke-width="1" fill="none" />


<circle cx="264.808" cy="13.2292" r="6.61417" stroke="black" stroke-width="1" fill="none" />


<circle cx="272.367" cy="120.945" r="6.61417" stroke="black" stroke-width="1" fill="none" />


<circle cx="342.289" cy="177.638" r="6.61417" stroke="black" stroke-width="1" fill="none" />


<circle cx="342.289" cy="79.3701" r="6.61417" stroke="black" stroke-width="1" fill="none" />


<path d="M342.29 222.992 C342.29 210.468, 352.443 200.315, 364.967 200.315 " stroke="black" stroke-width="1" fill="none" />

<path d="M28.5874 41.5748 L15.2935 41.5752 L13.851 41.7791 L12.3288 42.4526 L11.0211 43.594 L10.1201 45.0775 L9.70493 46.8295 L9.69142 236.358 L9.89575 237.735 L10.4588 239.071 L11.3011 240.18 L12.5061 241.12 L13.912 241.702 L15.359 241.89 L142.621 241.946 L143.759 242.338 L144.712 243.065 L145.39 244.054 L145.713 245.12 L145.763 276.183 L146.004 277.26 L146.494 278.153 L147.277 278.938 L148.254 279.462 L149.532 279.685 L244.202 279.681 L245.465 279.398 L246.558 278.707 L247.354 277.687 L247.759 276.458 L247.805 245.484 L247.964 244.569 L248.341 243.72 L248.975 242.93 L249.717 242.38 L250.658 242.004 L251.58 241.89 L336.619 241.89 L337.79 241.768 L339.293 241.22 L340.531 240.324 L341.554 239.011 L342.134 237.534 L342.288 236.22 L342.288 222.992 " stroke="black" stroke-width="1" fill="none" />

<path d="M364.965 200.315 L378.266 200.315 L379.702 200.111 L381.285 199.398 L382.532 198.296 L383.433 196.812 L383.848 195.06 L383.861 5.53173 L383.657 4.15493 L383.094 2.8183 L382.252 1.71025 L381.052 0.773465 L379.641 0.187773 L378.194 0 L56.5869 0.010629 L54.8301 0.404791 L53.3918 1.24267 L52.2185 2.52182 L51.4694 4.15904 L51.2663 5.52944 L51.2646 18.8976 " stroke="black" stroke-width="1" fill="none" />

</svg>
