<?xml version="1.0" encoding="UTF-8" standalone="no"?>
<svg  version="1.1" xmlns="http://www.w3.org/2000/svg" width="383.861px" height="286.311px">
<path d="M342.287 18.8976 C342.287 31.4219, 352.44 41.5748, 364.964 41.5748 " stroke="black" stroke-width="1" fill="none" />

<circle cx="342.288" cy="79.3701" r="6.61417" stroke="black" stroke-width="1" fill="none" />


<circle cx="342.288" cy="177.638" r="6.61417" stroke="black" stroke-width="1" fill="none" />


<circle cx="272.367" cy="120.945" r="6.61417" stroke="black" stroke-width="1" fill="none" />


<circle cx="264.807" cy="13.2292" r="6.61417" stroke="black" stroke-width="1" fill="none" />


<circle cx="196.776" cy="102.047" r="6.61417" stroke="black" stroke-width="1" fill="none" />


<circle cx="179.768" cy="204.095" r="6.61417" stroke="black" stroke-width="1" fill="none" />


<circle cx="128.744" cy="13.2292" r="6.61417" stroke="black" stroke-width="1" fill="none" />


<circle cx="121.185" cy="120.945" r="6.61417" stroke="black" stroke-width="1" fill="none" />


<circle cx="51.2641" cy="177.638" r="6.61417" stroke="black" stroke-width="1" fill="none" />


<circle cx="51.2641" cy="79.3701" r="6.61417" stroke="black" stroke-width="1" fill="none" />


<path d="M51.2631 222.992 C51.2631 210.468, 41.1102 200.315, 28.586 200.315 " stroke="black" stroke-width="1" fill="none" />

<path d="M364.965 41.5748 L378.259 41.5752 L379.702 41.7791 L381.224 42.4526 L382.532 43.594 L383.433 45.0775 L383.848 46.8295 L383.861 236.358 L383.657 237.735 L383.094 239.071 L382.252 240.18 L381.047 241.12 L379.641 241.702 L378.194 241.89 L250.932 241.946 L249.793 242.338 L248.84 243.065 L248.163 244.054 L247.84 245.12 L247.79 276.183 L247.549 277.26 L247.059 278.153 L246.276 278.938 L245.299 279.462 L244.02 279.685 L149.35 279.681 L148.088 279.398 L146.995 278.707 L146.199 277.687 L145.793 276.458 L145.748 245.484 L145.589 244.569 L145.212 243.72 L144.577 242.93 L143.836 242.38 L142.895 242.004 L141.973 241.89 L56.9338 241.89 L55.7631 241.768 L54.2602 241.22 L53.022 240.324 L51.9989 239.011 L51.4188 237.534 L51.2646 236.22 L51.2646 222.992 " stroke="black" stroke-width="1" fill="none" />

<path d="M28.5874 200.315 L15.287 200.315 L13.851 200.111 L12.2682 199.398 L11.0211 198.296 L10.1201 196.812 L9.70493 195.06 L9.69142 5.53173 L9.89575 4.15493 L10.4588 2.8183 L11.3011 1.71025 L12.5004 0.773465 L13.912 0.187773 L15.359 0 L336.966 0.010629 L338.723 0.404791 L340.161 1.24267 L341.334 2.52182 L342.083 4.15904 L342.286 5.52944 L342.288 18.8976 " stroke="black" stroke-width="1" fill="none" />

<path d="M41.8157 45.3543 L41.3596 93.3323 L40.3498 140.457 L40.5805 148.289 L40.9173 150.832 L41.3739 152.647 L41.9024 153.95 L42.7489 155.328 L43.6566 156.381 L45.0146 157.605 L59.5417 167.71 L63.8517 171.021 L67.703 174.327 L70.2927 176.867 L72.3998 179.264 L74.1055 181.544 L78.4172 187.898 L81.7471 191.842 L83.8612 193.853 L86.1498 195.652 L88.536 197.123 L90.5788 198.042 L92.5346 198.579 L94.318 198.688 L95.847 198.335 L97.0497 197.504 L97.8701 196.193 L98.2345 194.743 L98.2983 192.979 L97.9819 190.469 L96.9333 186.505 L95.0101 181.305 L92.4771 175.463 L83.7764 156.417 L81.0197 149.541 L78.9544 143.474 L77.1815 136.767 L76.0324 130.204 L75.4742 123.762 L75.4503 116.71 L76.152 107.681 L76.7973 102.906 L77.7236 97.5701 L79.924 88.115 L81.3129 83.4902 L82.6412 79.7539 L84.074 76.3563 L85.3876 73.7474 L87.0247 71.0929 L88.5229 69.1753 L90.115 67.6051 L91.8077 66.3926 L93.6087 65.5414 L95.5265 65.0482 L97.5697 64.9034 L99.7473 65.0904 L102.068 65.5869 L104.541 66.3656 L109.496 68.4188 L124.79 75.8818 L133.937 79.8709 L138.872 81.7235 L144.029 83.4161 L149.389 84.9095 L154.126 86.0084 L159.788 87.0628 L165.562 87.8669 L171.4 88.428 L177.252 88.766 L189.578 88.8901 L211.956 88.2505 L216.052 88.2937 L219.695 88.512 L223.664 89.1148 L226.783 90.1404 L228.828 91.4385 L229.598 92.226 L230.33 93.337 L230.74 94.3222 L231.045 95.6645 L231.07 98.3402 L230.439 101.571 L229.295 104.87 L227.631 108.313 L225.777 111.054 L223.942 112.867 L221.636 114.289 L219.511 115.088 L216.997 115.664 L214.077 116.031 L210.769 116.212 L203.231 116.133 L185.205 115.28 L181.134 115.308 L177.589 115.588 L174.286 116.322 L172.065 117.422 L170.416 119.031 L169.696 120.199 L169.113 121.554 L168.183 125.269 L167.503 130.896 L167.03 139.055 L166.947 146.524 L167.215 151.484 L167.734 154.666 L168.628 157.024 L169.802 158.398 L170.665 158.915 L171.962 159.323 L173.517 159.508 L175.733 159.502 L180.757 159.059 L195.503 157.264 L202.506 156.619 L210.295 156.292 L215.976 156.572 L218.186 156.932 L220.135 157.47 L221.81 158.208 L223.206 159.163 L224.324 160.346 L225.17 161.759 L225.751 163.388 L226.074 165.206 L226.133 167.579 L225.85 170.075 L225.109 173.009 L224.145 175.426 L222.903 177.656 L221.405 179.616 L219.676 181.245 L217.741 182.504 L216.347 183.128 L214.502 183.67 L212.554 183.961 L210.519 184.028 L206.68 183.706 L195.896 182.008 L192.762 181.887 L189.703 182.18 L186.346 183.151 L183.574 184.632 L180.996 186.725 L178.337 189.837 L176.853 192.13 L175.275 195.175 L174.145 197.904 L173.027 201.335 L172.307 204.263 L171.714 207.781 L171.431 211.217 L171.44 213.952 L171.754 217.012 L172.274 219.328 L173.032 221.4 L174.031 223.212 L175.272 224.759 L176.754 226.047 L178.472 227.091 L180.415 227.915 L182.568 228.547 L185.4 229.092 L191.678 229.634 L198.89 229.511 L202.165 229.197 L205.309 228.699 L207.785 228.13 L210.097 227.404 L212.222 226.503 L213.773 225.643 L215.52 224.374 L216.763 223.187 L217.875 221.834 L218.869 220.301 L219.761 218.574 L220.76 216.124 L222.694 209.505 L230.561 172.458 L233.453 160.236 L236.788 147.399 L239.764 136.904 L242.989 126.401 L246.431 116.069 L250.052 106.087 L254.285 95.4939 L258.137 86.8251 L262.511 78.1066 L266.384 71.4177 L270.202 65.8339 L273.929 61.4279 L275.75 59.6811 L277.538 58.2418 L279.292 57.1097 L281.011 56.2815 L283.11 55.6635 L285.56 55.506 L287.942 55.9385 L290.268 56.9021 L292.547 58.335 L295.153 60.5234 L297.705 63.1902 L300.545 66.7324 L303.284 70.714 L305.894 75.057 L308.341 79.6958 L310.586 84.5753 L312.59 89.6492 L314.114 94.2178 L315.561 99.5565 L316.545 104.309 L317.518 111.885 L317.766 118.839 L317.41 125.803 L316.363 133.404 L314.726 140.859 L312.436 148.706 L309.841 156.123 L304.69 169.536 L302.997 174.664 L302.403 177.182 L302.189 179.03 L302.308 180.565 L302.805 181.763 L303.519 182.497 L304.481 182.996 L305.642 183.279 L306.935 183.369 L308.565 183.259 L310.188 182.947 L311.745 182.458 L313.466 181.679 L315.655 180.328 L323.264 174.782 L329.761 170.357 L346.09 160.24 L348.175 158.513 L349.302 156.791 L349.7 155.622 L350.025 153.932 L350.35 148.952 L350.616 122.635 L351.56 83.1168 L351.737 68.0315 L358.351 68.0315 L358.169 83.2414 L357.217 124.2 L356.953 149.432 L356.609 154.781 L356.246 156.735 L355.706 158.562 L354.858 160.408 L353.622 162.289 L352.294 163.748 L350.404 165.327 L333.779 175.633 L327.195 180.108 L319.368 185.814 L315.693 187.959 L313.107 188.984 L310.499 189.646 L307.586 189.986 L305.151 189.906 L302.882 189.43 L300.83 188.583 L298.999 187.335 L297.574 185.817 L296.437 183.807 L295.76 181.51 L295.563 178.997 L295.823 176.201 L296.581 173.039 L297.981 168.644 L303.589 153.96 L305.814 147.633 L307.6 141.798 L309.055 136.078 L310.333 129.272 L310.996 122.947 L311.11 116.379 L310.648 109.851 L310.083 105.866 L309.309 101.915 L308.329 98.0035 L307.068 93.8993 L305.604 89.8657 L303.863 85.7101 L301.957 81.7146 L299.916 77.9215 L297.651 74.1838 L295.305 70.7847 L292.826 67.6838 L290.448 65.1897 L288.387 63.4915 L286.47 62.425 L284.892 62.0958 L283.429 62.4213 L282.017 63.1894 L280.572 64.2836 L278.91 65.8406 L277.072 67.8612 L273.56 72.5144 L270.018 78.2379 L266.181 85.4477 L262.294 93.7119 L258.428 102.853 L254.655 112.695 L251.716 121.049 L248.752 130.134 L245.807 139.853 L243.069 149.563 L239.936 161.591 L237.097 173.546 L230.335 205.808 L228.975 211.746 L227.937 215.508 L226.844 218.75 L225.659 221.562 L224.344 224.001 L222.946 226.069 L221.344 227.959 L219.721 229.482 L217.764 230.942 L215.693 232.163 L213.308 233.262 L210.607 234.206 L207.839 234.927 L204.322 235.581 L200.503 236.035 L196.656 236.262 L192.585 236.279 L188.118 236.059 L184.674 235.695 L181.524 235.121 L178.653 234.311 L175.837 233.163 L173.54 231.838 L171.407 230.183 L169.52 228.218 L167.957 225.971 L166.744 223.541 L165.852 220.971 L165.209 218.038 L164.841 214.488 L164.825 210.85 L165.149 206.877 L165.815 202.875 L166.815 198.905 L168.042 195.283 L169.547 191.794 L171.324 188.486 L172.768 186.263 L174.37 184.18 L176.123 182.264 L178.021 180.54 L180.059 179.033 L182.006 177.884 L184.038 176.957 L186.349 176.188 L190.078 175.466 L193.947 175.277 L198.814 175.674 L206.886 177.047 L209.455 177.356 L212.414 177.316 L214.52 176.724 L215.573 176.071 L216.507 175.182 L217.414 173.963 L218.189 172.507 L218.855 170.745 L219.316 168.925 L219.528 167.21 L219.47 165.728 L219.02 164.263 L218.187 163.803 L215.718 163.236 L212.387 162.939 L207.314 162.974 L200.791 163.401 L180.461 165.747 L174.875 166.171 L172.193 166.043 L169.715 165.575 L167.53 164.733 L165.645 163.543 L164.531 162.52 L163.596 161.389 L162.716 159.985 L162.044 158.551 L161.046 155.135 L160.503 150.827 L160.318 142.432 L160.758 132.304 L161.521 124.855 L162.071 122.072 L162.739 119.746 L163.601 117.624 L164.656 115.753 L165.836 114.19 L167.262 112.782 L168.873 111.612 L170.597 110.689 L172.613 109.914 L174.877 109.335 L179.048 108.776 L183.924 108.641 L204.018 109.534 L209.882 109.616 L215.033 109.261 L216.902 108.935 L218.476 108.467 L219.563 107.92 L220.523 107.022 L221.447 105.751 L222.464 103.927 L223.39 101.821 L224.1 99.6221 L224.482 97.7171 L224.462 96.4081 L223.128 95.8113 L221.139 95.3708 L218.303 95.064 L214.726 94.9008 L209.078 94.9101 L187.893 95.5128 L181.325 95.4928 L175 95.2828 L164.624 94.3989 L154.76 92.8535 L149.749 91.7862 L144.86 90.542 L140.125 89.1242 L135.565 87.5561 L129.887 85.3453 L124.25 82.8977 L108.577 75.3096 L103.808 73.1828 L99.557 71.7799 L97.8751 71.5263 L96.534 71.5836 L95.2193 72.0482 L94.0047 72.993 L92.6686 74.5767 L91.2804 76.8143 L89.854 79.7005 L88.5263 82.936 L87.3371 86.3646 L86.163 90.3723 L84.1454 99.1645 L82.7393 108.283 L82.0604 116.95 L82.0163 121.12 L82.1727 125.004 L82.6179 129.521 L83.378 134.097 L84.4056 138.462 L85.741 142.949 L87.5962 148.2 L90.0356 154.229 L99.1326 174.136 L102.373 181.959 L103.6 185.598 L104.416 188.849 L104.866 192.04 L104.891 194.733 L104.335 197.75 L103.238 200.207 L101.439 202.413 L99.4078 203.933 L96.8945 204.951 L94.153 205.328 L91.3078 205.081 L88.2351 204.238 L85.594 203.08 L82.933 201.497 L80.2962 199.512 L77.5699 197.026 L75.4617 194.761 L73.3695 192.177 L67.0286 183.149 L64.8977 180.806 L62.2125 178.304 L55.4553 172.918 L42.824 164.25 L39.6625 161.73 L37.9902 159.968 L36.7574 158.239 L35.6537 156.137 L34.8526 153.927 L34.27 151.279 L33.9368 148.536 L33.7349 140.543 L34.7549 92.1649 L35.2017 45.3066 L41.8157 45.3543 Z " stroke="black" stroke-width="1" fill="none" />

</svg>
