<?xml version="1.0" encoding="UTF-8" standalone="no"?>
<svg xmlns="http://www.w3.org/2000/svg" xmlns:xlink="http://www.w3.org/1999/xlink" width="195.406mm" height="74.000mm" viewBox="2.593830 -77.000000 195.406174 74.000000">
    <path transform="matrix(1,0,0,-1,53.09383,-44.000004)" style="stroke:#00e0e0;stroke-width:0.050000mm;fill:none" d="M11,-41L-11,-41C-11.828427,-41,-12.5,-40.328426,-12.5,-39.5L-12.5,15.5C-12.5,16.328426,-11.828427,17,-11,17L11,17C11.828427,17,12.5,16.328426,12.5,15.5L12.5,-39.5C12.5,-40.328426,11.828427,-41,11,-41z"/>
    <path transform="matrix(1,0,0,-1,0,0)" style="stroke:none;fill:#000000;fill-rule:evenodd" d="M198,28.649719L176,28.649719"/>
    <path transform="matrix(1,0,0,-1,0,0)" style="stroke:none;fill:#000000;fill-rule:evenodd" d="M39.219955,19.678909C39.297337,19.634769,39.392357,19.635139,39.469391,19.679882C39.546425,19.724625,39.59383,19.806978,39.59383,19.896063L39.59383,60.500004C39.59383,61.32843,40.265404,62.000004,41.09383,62.000004L53.09383,62.000004L65.093826,62.000004C65.922256,62.000004,66.593826,61.32843,66.593826,60.500004L66.593826,19.896063C66.593826,19.806978,66.641235,19.724625,66.718269,19.679882C66.795303,19.635139,66.890327,19.634769,66.967705,19.678909C77.999054,25.971699,83.413612,38.90094,80.158478,51.176682C76.903343,63.452431,65.793816,72.000008,53.093826,72C40.393829,72,29.284307,63.452415,26.029179,51.176674C22.774046,38.900932,28.188612,25.971695,39.219955,19.678909zM74.843834,44C74.843834,43.033501,74.060333,42.25,73.093834,42.25C72.127335,42.25,71.343834,43.033501,71.343834,44C71.343834,44.966499,72.127335,45.75,73.093834,45.75C74.060333,45.75,74.843834,44.966499,74.843834,44zM34.843826,44C34.843826,43.033501,34.060326,42.25,33.093826,42.25C32.127327,42.25,31.343826,43.033501,31.343826,44C31.343826,44.966499,32.127327,45.75,33.093826,45.75C34.060326,45.75,34.843826,44.966499,34.843826,44z"/>
    <path transform="matrix(1,0,0,-1,0,0)" style="stroke:none;fill:#000000;fill-rule:evenodd" d="M91.593826,17.000004L91.593826,13.500004C91.593826,12.671577,90.922256,12.000004,90.093826,12.000004L68.093826,12.000004C67.265404,12.000004,66.593826,12.671576,66.593826,13.500004L66.593826,17.44346C66.593826,17.984421,66.885109,18.483475,67.356125,18.749519C74.830994,22.971569,80.051079,30.288471,81.611038,38.730381C83.170998,47.172287,80.910492,55.87151,75.438095,62.486053C75.215576,62.755009,75.093826,63.093155,75.093826,63.442226L75.093826,74.5C75.093826,75.32843,75.765404,76,76.593826,76L101.093826,76C101.922256,76,102.593826,75.32843,102.593826,74.5L102.593826,24.500004C102.593826,23.671577,101.922256,23.000004,101.093826,23.000004L97.593964,23.000004M92.022812,49.384258L92.001343,49.341331C91.908989,49.14621,91.782806,49.012875,91.62281,48.94133C91.57988,48.921818,91.537613,48.912064,91.495987,48.912064C91.380211,48.912064,91.265091,48.985558,91.15062,49.132549C90.925575,49.417427,90.800697,49.751087,90.775986,50.133526C90.772079,50.201168,90.770126,50.267509,90.770126,50.33255C90.770126,50.642143,90.81826,50.934174,90.91452,51.208649C91.034195,51.553364,91.213707,51.749786,91.453056,51.797916C91.479073,51.80312,91.505737,51.805721,91.533051,51.805721C91.737282,51.805721,91.907043,51.638565,92.042328,51.304256C92.090454,51.218403,92.158745,51.16637,92.247208,51.148159C92.265411,51.145557,92.282974,51.143608,92.299881,51.142303C92.368828,51.142303,92.43322,51.171574,92.493057,51.23011C92.542488,51.279541,92.5672,51.33873,92.5672,51.407673C92.5672,51.446697,92.559395,51.488323,92.543793,51.532551L92.528175,51.561817L92.516472,51.589134L92.500862,51.620354C92.360374,51.901329,92.148338,52.119865,91.864761,52.275963C91.745087,52.342308,91.623459,52.375477,91.499886,52.375477L91.492081,52.375477C91.326874,52.375477,91.159721,52.318241,90.990616,52.20377C90.751266,52.039867,90.571106,51.818077,90.450134,51.538403C90.330452,51.260029,90.258911,50.966045,90.235489,50.656452C90.228989,50.567997,90.225739,50.480843,90.225739,50.394989C90.225739,50.176453,90.246552,49.961819,90.288177,49.751087C90.34671,49.454502,90.43647,49.207996,90.557449,49.011574C90.812408,48.599216,91.127197,48.387833,91.501831,48.377426C91.510941,48.377426,91.519394,48.376778,91.527206,48.375477C91.890129,48.375477,92.195168,48.585556,92.442322,49.005722L92.459885,49.034988L92.475494,49.064259L92.489151,49.093525L92.504761,49.122795L92.52037,49.152061L92.534027,49.181332L92.547684,49.212551L92.571106,49.263283L92.571106,50.252548C92.571106,50.327995,92.543793,50.392387,92.489151,50.445721C92.435822,50.500355,92.371429,50.527672,92.295982,50.527672L91.575981,50.527672L91.558426,50.527672L91.540863,50.523769C91.382156,50.504257,91.302811,50.413849,91.302811,50.252548C91.302811,50.091248,91.382156,50.000843,91.540863,49.981331L91.558426,49.979378L92.022812,49.979378L92.022812,49.384258zM90.772079,46.106209L92.005249,46.106209C92.189964,46.078892,92.282318,45.986534,92.282318,45.829136C92.282318,45.670433,92.189964,45.578079,92.005249,45.552063L90.772079,45.552063L90.772079,44.270111L92.389641,44.270111C92.573059,44.24279,92.664764,44.151085,92.664764,43.994987C92.664764,43.83889,92.573059,43.747833,92.389641,43.721817L90.500854,43.721817C90.338257,43.74263,90.245895,43.834988,90.223785,43.99889L90.223785,47.444744C90.248505,47.616451,90.340858,47.707508,90.500854,47.717915L92.389641,47.717915C92.573059,47.703606,92.664764,47.612549,92.664764,47.444744C92.664764,47.275639,92.573059,47.18523,92.389641,47.173523L90.772079,47.173523L90.772079,46.106209zM92.02964,39.807671L92.230621,39.255478C92.307365,39.131897,92.401024,39.07011,92.511597,39.07011L92.515495,39.07011L92.57988,39.091572C92.699554,39.125393,92.759399,39.206696,92.759399,39.335476C92.759399,39.367996,92.755493,39.403118,92.747688,39.440842L91.496964,42.890598C91.454025,43.008972,91.368179,43.06881,91.239395,43.07011L91.229645,43.07011C91.22834,43.07011,91.227692,43.07011,91.227692,43.07011C91.075493,42.959541,90.994194,42.899704,90.983788,42.890598C90.822487,42.725395,90.613708,42.151737,90.357445,41.169624C90.330124,41.064255,90.129807,40.487347,89.75647,39.438892L89.727203,39.333527C89.724602,39.319218,89.723297,39.30621,89.723297,39.294502C89.723297,39.209946,89.77858,39.145557,89.889153,39.10133C89.924271,39.087021,89.961349,39.079865,90.000374,39.079865C90.10054,39.079865,90.181839,39.141003,90.244278,39.263283L90.439392,39.807671L92.02964,39.807671zM90.640373,40.355965L91.830612,40.355965L91.237442,41.994987L90.640373,40.355965zM91.842323,36.096451C92.146713,36.153687,92.391266,36.314987,92.575981,36.580353C92.717773,36.784584,92.788666,36.999866,92.788666,37.226208C92.788666,37.227509,92.788666,37.229462,92.788666,37.232063C92.788666,37.299706,92.782166,37.368649,92.76915,37.438892C92.717117,37.72377,92.583786,37.958565,92.369156,38.14328C92.154518,38.329296,91.901512,38.422306,91.61013,38.422306L90.398422,38.422306C90.321671,38.422306,90.256638,38.395638,90.2033,38.342304C90.151268,38.288971,90.125252,38.224583,90.125252,38.149136L90.125252,34.701332C90.125252,34.610271,90.161026,34.538078,90.232567,34.484745C90.284599,34.44442,90.338585,34.424255,90.394516,34.424255C90.436142,34.42556,90.478424,34.436615,90.521347,34.457428C90.624115,34.506859,90.675491,34.588161,90.675491,34.701332L90.675491,36.074989L91.1633,36.074989L92.125252,34.554985C92.162979,34.488647,92.22216,34.448322,92.302811,34.434013C92.323624,34.430111,92.34314,34.428158,92.361343,34.428158C92.419884,34.428158,92.472565,34.445068,92.519394,34.478889C92.598747,34.540031,92.63842,34.609623,92.63842,34.687672C92.63842,34.738403,92.622162,34.792385,92.589645,34.849625L91.805252,36.090599L91.842323,36.096451zM90.675491,37.872063L91.637451,37.872063C91.842972,37.853851,92.004272,37.764095,92.121353,37.602795C92.198097,37.496128,92.236465,37.381657,92.236465,37.25938C92.236465,37.195641,92.226059,37.129299,92.205246,37.060356C92.166229,36.930275,92.090134,36.824905,91.976959,36.744255C91.865089,36.663605,91.742813,36.623283,91.61013,36.623283L90.675491,36.623283L90.675491,37.872063zM82.261559,27.435883L80.054192,28.609562L79.707458,23.697353L83.585983,26.731674L82.261559,27.435883M93.343834,29C93.343834,28.033503,92.560333,27.25,91.593834,27.25C90.627335,27.25,89.843834,28.033503,89.843834,29C89.843834,29.966497,90.627335,30.75,91.593834,30.75C92.560333,30.75,93.343834,29.966497,93.343834,29zM93.343834,55C93.343834,54.033501,92.560333,53.25,91.593834,53.25C90.627335,53.25,89.843834,54.033501,89.843834,55C89.843834,55.966499,90.627335,56.75,91.593834,56.75C92.560333,56.75,93.343834,55.966499,93.343834,55zM82.261559,27.435883L81.378609,27.905354C86.528915,37.591671,86.528915,49.204159,81.378609,58.890476L82.261559,59.359947C87.567932,49.380104,87.567932,37.415726,82.261559,27.435883z"/>
    <path transform="matrix(1,0,0,-1,0,0)" style="stroke:none;fill:#000000;fill-rule:evenodd" d="M72.593826,76L33.59383,76C32.765404,76,32.09383,75.32843,32.09383,74.5L32.09383,64.615532C32.093834,64.514267,32.154919,64.423004,32.248535,64.384407C32.342155,64.34581,32.44981,64.367493,32.521179,64.439331C37.965057,69.918716,45.369877,73,53.09383,73C60.81778,73,68.222603,69.918716,73.666481,64.439331C73.737854,64.367493,73.845505,64.34581,73.939125,64.384407C74.032745,64.423004,74.093826,64.514267,74.093826,64.615532L74.093826,74.5C74.093826,75.32843,73.422256,76,72.593826,76zM36.843826,72.5C36.843826,71.533501,36.060326,70.75,35.093826,70.75C34.127327,70.75,33.343826,71.533501,33.343826,72.5C33.343826,73.466499,34.127327,74.25,35.093826,74.25C36.060326,74.25,36.843826,73.466499,36.843826,72.5zM72.843826,72.5C72.843826,71.533501,72.060326,70.75,71.093826,70.75C70.127327,70.75,69.343826,71.533501,69.343826,72.5C69.343826,73.466499,70.127327,74.25,71.093826,74.25C72.060326,74.25,72.843826,73.466499,72.843826,72.5z"/>
    <path transform="matrix(1,0,0,-1,0,0)" style="stroke:none;fill:#000000;fill-rule:evenodd" d="M8.59383,65L5.09383,65C4.265404,65,3.59383,64.32843,3.59383,63.500004L3.59383,13.500004C3.59383,12.671576,4.265404,12.000004,5.09383,12.000004L38.09383,12.000004C38.922256,12.000004,39.59383,12.671577,39.59383,13.500004L39.59383,17.44346C39.59383,17.984421,39.302551,18.483475,38.831535,18.749519C31.35667,22.971569,26.136581,30.288475,24.576624,38.730381C23.016665,47.172283,25.27717,55.871506,30.749567,62.48605C30.972084,62.755009,31.09383,63.093155,31.09383,63.442226L31.09383,74.5C31.09383,75.32843,30.422256,76,29.59383,76L16.09383,76C15.265404,76,14.59383,75.32843,14.59383,74.5L14.59383,71M15.157578,49.084694L15.136112,49.041763C15.043755,48.846642,14.917576,48.71331,14.757576,48.641766C14.714649,48.622253,14.672375,48.612495,14.630749,48.612495C14.514977,48.612495,14.399853,48.685993,14.285381,48.832985C14.060341,49.117863,13.935463,49.451523,13.910748,49.833961C13.906845,49.901604,13.904892,49.967945,13.904892,50.032986C13.904892,50.342579,13.953022,50.634613,14.049282,50.909084C14.168961,51.253799,14.348473,51.450222,14.587822,51.498352C14.613838,51.503555,14.640503,51.506157,14.66782,51.506157C14.872047,51.506157,15.041805,51.339001,15.17709,51.004692C15.22522,50.918839,15.29351,50.866806,15.381966,50.848595C15.400177,50.845993,15.41774,50.844044,15.43465,50.842743C15.503593,50.842743,15.567982,50.872009,15.627819,50.930546C15.67725,50.979977,15.701965,51.039165,15.701965,51.108109C15.701965,51.147133,15.69416,51.188759,15.678551,51.232986L15.662941,51.262253L15.651234,51.28957L15.635624,51.320789C15.495136,51.601765,15.283104,51.820301,14.999527,51.976398C14.879852,52.04274,14.758228,52.075912,14.634651,52.075912L14.626846,52.075912C14.461643,52.075912,14.294487,52.018677,14.125381,51.904205C13.886032,51.740303,13.705868,51.518513,13.584892,51.238838C13.465218,50.960464,13.393673,50.666481,13.370258,50.356888C13.363754,50.268433,13.360504,50.181278,13.360504,50.095425C13.360504,49.876888,13.381317,49.662254,13.422943,49.451523C13.48148,49.154938,13.571236,48.908432,13.692211,48.712009C13.94717,48.299652,14.261967,48.088268,14.6366,48.077862C14.645706,48.077862,14.654163,48.077213,14.661968,48.075912C15.024895,48.075912,15.329933,48.285995,15.577087,48.706158L15.59465,48.735424L15.61026,48.764694L15.623917,48.793961L15.639526,48.823231L15.655136,48.852497L15.668797,48.881767L15.682453,48.912987L15.705868,48.963715L15.705868,49.952984C15.705868,50.028431,15.678551,50.092823,15.623917,50.146156C15.570583,50.20079,15.506195,50.228107,15.430748,50.228107L14.710747,50.228107L14.693188,50.228107L14.675625,50.224205C14.516926,50.204693,14.437576,50.114285,14.437576,49.952984C14.437576,49.791683,14.516926,49.701279,14.675625,49.681767L14.693188,49.679813L15.157578,49.679813L15.157578,49.084694zM13.906845,45.806644L15.140015,45.806644C15.32473,45.779327,15.417088,45.68697,15.417088,45.529572C15.417088,45.370872,15.32473,45.278511,15.140015,45.252495L13.906845,45.252495L13.906845,43.970547L15.524406,43.970547C15.707821,43.94323,15.799526,43.851521,15.799526,43.695423C15.799526,43.539326,15.707821,43.448269,15.524406,43.422253L13.635624,43.422253C13.473022,43.443066,13.380665,43.535423,13.358551,43.699326L13.358551,47.14518C13.383266,47.316887,13.475624,47.407944,13.635624,47.41835L15.524406,47.41835C15.707821,47.404041,15.799526,47.312984,15.799526,47.14518C15.799526,46.976074,15.707821,46.885666,15.524406,46.873959L13.906845,46.873959L13.906845,45.806644zM15.164406,39.508106L15.365383,38.955914C15.442131,38.832333,15.535789,38.770546,15.646358,38.770546L15.650261,38.770546L15.714649,38.792007C15.834324,38.825829,15.894161,38.907131,15.894161,39.035912C15.894161,39.068432,15.890259,39.103554,15.882454,39.141277L14.631721,42.591034C14.588795,42.709408,14.502941,42.769245,14.374161,42.770546L14.364407,42.770546C14.363106,42.770546,14.362453,42.770546,14.362453,42.770546C14.210258,42.659977,14.12896,42.60014,14.118553,42.591034C13.957253,42.425831,13.74847,41.852173,13.49221,40.870056C13.464893,40.76469,13.264568,40.187782,12.891235,39.139328L12.861965,39.033962C12.859364,39.019653,12.858063,39.006645,12.858063,38.994938C12.858063,38.910381,12.913349,38.845993,13.023918,38.801765C13.05904,38.787457,13.096115,38.7803,13.135139,38.7803C13.235302,38.7803,13.316601,38.841438,13.37904,38.963715L13.574162,39.508106L15.164406,39.508106zM13.775139,40.0564L14.965382,40.0564L14.372211,41.695423L13.775139,40.0564zM14.977089,35.796886C15.281479,35.854122,15.526031,36.015427,15.710747,36.280788C15.852535,36.485016,15.923431,36.700302,15.923431,36.926643C15.923431,36.927944,15.923431,36.929897,15.923431,36.932499C15.923431,37.000137,15.916927,37.069084,15.903919,37.139328C15.851887,37.424206,15.718552,37.659,15.503918,37.843716C15.289284,38.029732,15.036274,38.122742,14.744892,38.122742L13.533188,38.122742C13.45644,38.122742,13.391399,38.096077,13.338066,38.04274C13.286034,37.989407,13.260017,37.925018,13.260017,37.849571L13.260017,34.401768C13.260017,34.310707,13.295788,34.238514,13.367332,34.185181C13.419365,34.144855,13.473351,34.124695,13.529285,34.124695C13.570911,34.125992,13.613186,34.137051,13.656113,34.15786C13.758877,34.207294,13.810261,34.288597,13.810261,34.401768L13.810261,35.775425L14.298065,35.775425L15.260014,34.255424C15.297741,34.189083,15.356926,34.148758,15.437576,34.134449C15.458389,34.130547,15.477901,34.128593,15.496113,34.128593C15.554649,34.128593,15.607334,34.145504,15.654163,34.179329C15.733513,34.240463,15.773186,34.310059,15.773186,34.388107C15.773186,34.438839,15.756927,34.492821,15.724407,34.550056L14.940014,35.791035L14.977089,35.796886zM13.810261,37.572498L14.772209,37.572498C14.977737,37.554287,15.139042,37.464531,15.256115,37.30323C15.332863,37.196564,15.371235,37.082092,15.371235,36.959816C15.371235,36.896076,15.360828,36.829735,15.340015,36.760788C15.300991,36.630707,15.224895,36.525345,15.111725,36.444691C14.999851,36.364044,14.877575,36.323715,14.744892,36.323715L13.810261,36.323715L13.810261,37.572498zM25.563288,57.886703L23.74769,58.852077L22.031498,59.764591L25.910015,62.798912L25.563288,57.886703zM16.34383,29C16.34383,28.033503,15.560328,27.25,14.59383,27.25C13.627332,27.25,12.84383,28.033503,12.84383,29C12.84383,29.966497,13.627332,30.75,14.59383,30.75C15.560328,30.75,16.34383,29.966497,16.34383,29zM16.34383,55C16.34383,54.033501,15.560328,53.25,14.59383,53.25C13.627332,53.25,12.84383,54.033501,12.84383,55C12.84383,55.966499,13.627332,56.75,14.59383,56.75C15.560328,56.75,16.34383,55.966499,16.34383,55zM24.238867,58.590912C19.088558,48.904594,19.088558,37.292099,24.238867,27.605789L23.355919,27.136318C18.049541,37.116161,18.049541,49.080547,23.355919,59.060383L24.238867,58.590912z"/>
    <path transform="matrix(1,0,0,-1,0,0)" style="stroke:none;fill:#000000;fill-rule:evenodd" d="M59.343826,22C59.343826,21.033503,58.560326,20.25,57.593826,20.25C56.627327,20.25,55.843826,21.033503,55.843826,22C55.843826,22.966497,56.627327,23.75,57.593826,23.75C58.560326,23.75,59.343826,22.966497,59.343826,22z"/>
    <path transform="matrix(1,0,0,-1,0,0)" style="stroke:none;fill:#000000;fill-rule:evenodd" d="M54.843826,49C54.843826,48.033501,54.060326,47.25,53.093826,47.25C52.127327,47.25,51.343826,48.033501,51.343826,49C51.343826,49.966499,52.127327,50.75,53.093826,50.75C54.060326,50.75,54.843826,49.966499,54.843826,49z"/>
    <path transform="matrix(1,0,0,-1,0,0)" style="stroke:none;fill:#000000;fill-rule:evenodd" d="M103.593834,17C103.593834,13.686292,100.907539,11,97.593834,11C94.280128,11,91.593834,13.686292,91.593834,17C91.593834,20.313709,94.280128,23,97.593834,23C100.907539,23,103.593834,20.313709,103.593834,17z"/>
    <path transform="matrix(1,0,0,-1,0,0)" style="stroke:none;fill:#000000;fill-rule:evenodd" d="M14.59383,71C14.59383,67.686295,11.907538,65,8.59383,65C5.280122,65,2.59383,67.686295,2.59383,71C2.59383,74.313705,5.280122,77,8.59383,77C11.907538,77,14.59383,74.313705,14.59383,71z"/>
    <path transform="matrix(1,0,0,-1,0,0)" style="stroke:none;fill:#ff0000;fill-rule:evenodd" d="M53.352074,22.206047C53.48671,22.276291,53.587685,22.354828,53.655003,22.441656C53.723293,22.529461,53.757439,22.625071,53.757439,22.728485C53.757439,22.855314,53.710125,22.96312,53.61549,23.051901C53.521832,23.141657,53.403294,23.186535,53.25988,23.186535C53.108662,23.186535,52.981831,23.139217,52.879391,23.044582C52.776955,22.949949,52.725735,22.837267,52.725735,22.706533C52.725735,22.630436,52.745735,22.555803,52.785732,22.482632C52.82671,22.409462,52.886707,22.327511,52.965733,22.236778C52.795979,22.154827,52.668659,22.060192,52.583782,21.952875C52.498905,21.845558,52.456467,21.726048,52.456467,21.594339C52.456467,21.432388,52.518906,21.28751,52.643784,21.159704C52.768661,21.0319,52.933052,20.967999,53.136951,20.967999C53.376953,20.967999,53.581829,21.064095,53.751587,21.25629C53.877441,21.115803,53.987198,21.014828,54.080856,20.953363L54.257927,21.164095C54.140854,21.247997,54.029148,21.357754,53.922806,21.493364C54.002808,21.61434,54.066708,21.768974,54.114513,21.957266L53.840855,22.014339C53.811588,21.894339,53.777927,21.79434,53.73988,21.714338L53.352074,22.206047zM53.015491,22.64068C53.002808,22.67873,52.996464,22.709949,52.996464,22.734339C52.996464,22.803608,53.021343,22.860193,53.071098,22.904095C53.120853,22.947998,53.178905,22.96995,53.245247,22.96995C53.310612,22.96995,53.367195,22.947021,53.415001,22.901169C53.463783,22.856291,53.488174,22.796778,53.488174,22.722631C53.488174,22.655315,53.469147,22.595316,53.431099,22.542633C53.394024,22.48995,53.322807,22.433851,53.217442,22.37434C53.09549,22.514828,53.028172,22.603607,53.015491,22.64068zM52.8311,21.843121C52.771587,21.767998,52.741829,21.691412,52.741829,21.613363C52.741829,21.517754,52.777927,21.425072,52.850124,21.335316C52.923294,21.246534,53.019878,21.202145,53.139881,21.202145C53.218903,21.202145,53.299881,21.226534,53.382805,21.275314C53.465733,21.324095,53.533539,21.38751,53.58622,21.465559L53.103294,22.065559C52.982319,21.993364,52.891586,21.919218,52.8311,21.843121z"/>
    <path transform="matrix(1,0,0,-1,0,0)" style="stroke:none;fill:#ff0000;fill-rule:evenodd" d="M56.248177,19.630091C56.204277,19.69936,56.152081,19.733994,56.091591,19.733994C56.070129,19.733994,56.047691,19.729603,56.024277,19.720823C55.934521,19.688627,55.882813,19.621798,55.869152,19.520334L55.869152,16.935944C55.889641,16.799358,55.957935,16.731066,56.074032,16.731066C56.191105,16.731066,56.260372,16.799358,56.281837,16.935944L56.281837,18.79887L57.511105,16.827652C57.553055,16.763262,57.607201,16.731066,57.673546,16.731066L57.682323,16.731066C57.700859,16.731066,57.72086,16.733994,57.742325,16.739847C57.840862,16.767164,57.890129,16.831554,57.890129,16.933018L57.890129,16.935944L57.890129,19.520334C57.879398,19.656919,57.812569,19.726189,57.68964,19.72814C57.687691,19.72814,57.686714,19.72814,57.686714,19.72814C57.565739,19.72814,57.495983,19.658871,57.477448,19.520334L57.477448,17.655945L56.248177,19.630091z"/>
    <path transform="matrix(1,0,0,-1,0,0)" style="stroke:none;fill:#ff0000;fill-rule:evenodd" d="M54.771591,17.986677C54.999886,18.029604,55.1833,18.150579,55.321838,18.349604C55.428177,18.502773,55.48135,18.664238,55.48135,18.833994C55.48135,18.834969,55.48135,18.836432,55.48135,18.838383C55.48135,18.889114,55.476471,18.940823,55.466713,18.993505C55.427689,19.207165,55.32769,19.383261,55.166714,19.521797C55.005737,19.66131,54.815983,19.731066,54.597446,19.731066L53.688667,19.731066C53.631104,19.731066,53.582325,19.711065,53.542324,19.671066C53.5033,19.631067,53.483788,19.582773,53.483788,19.526188L53.483788,16.940334C53.483788,16.872042,53.510616,16.817896,53.564278,16.777895C53.603302,16.747652,53.643787,16.732529,53.685738,16.732529C53.716957,16.733505,53.748665,16.741798,53.780861,16.757408C53.857933,16.794481,53.896469,16.855455,53.896469,16.940334L53.896469,17.970579L54.262325,17.970579L54.983788,16.83058C55.012081,16.780823,55.056469,16.750578,55.116959,16.739847C55.132568,16.736919,55.147202,16.735456,55.160862,16.735456C55.204765,16.735456,55.244278,16.74814,55.2794,16.773504C55.338909,16.819359,55.368668,16.871553,55.368668,16.930092C55.368668,16.96814,55.356472,17.008627,55.332081,17.051554L54.74379,17.982286L54.771591,17.986677zM53.896469,19.318384L54.617935,19.318384C54.772079,19.304726,54.893055,19.237408,54.980862,19.116432C55.038422,19.036432,55.067204,18.950579,55.067204,18.858871C55.067204,18.811066,55.059399,18.761311,55.043789,18.709602C55.014519,18.612041,54.957447,18.533018,54.872566,18.47253C54.788666,18.412043,54.69696,18.381798,54.597446,18.381798L53.896469,18.381798L53.896469,19.318384z"/>
    <path transform="matrix(1,0,0,-1,0,0)" style="stroke:none;fill:#ff0000;fill-rule:evenodd" d="M52.753544,16.944725C52.562325,16.811066,52.35891,16.744236,52.143299,16.744236C52.129642,16.745213,52.115494,16.745701,52.100861,16.745701C51.86964,16.755457,51.657936,16.839359,51.46574,16.997408C51.274521,17.156431,51.170616,17.38814,51.15403,17.69253L51.15403,17.721798L51.15403,19.526188C51.15403,19.555456,51.159397,19.581799,51.170128,19.605213C51.209152,19.69009,51.269154,19.732531,51.350128,19.732531C51.365738,19.732531,51.383301,19.730579,51.402813,19.726677C51.512081,19.705212,51.566715,19.638384,51.566715,19.526188L51.566715,17.721798C51.580372,17.497408,51.678909,17.329603,51.862324,17.218384C51.95013,17.164724,52.040375,17.137896,52.133057,17.137896C52.233543,17.137896,52.335983,17.169603,52.440372,17.233017C52.531105,17.286676,52.597446,17.355944,52.639397,17.440823C52.682323,17.525702,52.707691,17.61936,52.715496,17.721798L52.715496,19.526188C52.715496,19.543749,52.716469,19.556919,52.718422,19.565701C52.738911,19.674969,52.801838,19.729603,52.907204,19.729603C52.917934,19.729603,52.928665,19.729115,52.939396,19.72814C53.064274,19.716433,53.126717,19.649115,53.126717,19.526188L53.126717,17.721798L53.126717,17.69253C53.123787,17.643749,53.121838,17.614481,53.120861,17.604725C53.079884,17.307163,52.957447,17.087164,52.753544,16.944725z"/>
    <path transform="matrix(1,0,0,-1,0,0)" style="stroke:none;fill:#ff0000;fill-rule:evenodd" d="M49.029152,19.318384C48.892567,19.329115,48.824276,19.397408,48.824276,19.523262C48.824276,19.650091,48.892567,19.719358,49.029152,19.731066L50.514519,19.731066C50.650131,19.720335,50.717934,19.651066,50.717934,19.523262C50.717934,19.396433,50.650131,19.32814,50.514519,19.318384L49.978909,19.318384L49.978909,16.938871C49.95647,16.802286,49.886227,16.733994,49.768177,16.733994C49.7672,16.733994,49.765739,16.733994,49.763786,16.733994C49.642811,16.735945,49.576958,16.804237,49.566227,16.938871L49.566227,19.318384L49.029152,19.318384z"/>
    <path transform="matrix(1,0,0,-1,0,0)" style="stroke:none;fill:#ff0000;fill-rule:evenodd" d="M56.344761,27.024725C56.33403,27.16131,56.267689,27.230579,56.145737,27.232531L56.139885,27.232531C56.021835,27.232531,55.952564,27.163261,55.932079,27.024725L55.932079,24.437408C55.950615,24.309603,56.019882,24.241798,56.139885,24.233994L57.694031,24.233994C57.832565,24.242773,57.901833,24.310579,57.901833,24.437408C57.901833,24.559359,57.833054,24.628139,57.695492,24.643749L56.344761,24.642286L56.344761,27.024725z"/>
    <path transform="matrix(1,0,0,-1,0,0)" style="stroke:none;fill:#ff0000;fill-rule:evenodd" d="M53.959396,27.024725C53.948662,27.16131,53.88232,27.230579,53.760368,27.232531L53.754517,27.232531C53.636467,27.232531,53.5672,27.163261,53.546711,27.024725L53.546711,24.437408C53.56525,24.309603,53.634518,24.241798,53.754517,24.233994L55.308662,24.233994C55.447201,24.242773,55.516468,24.310579,55.516468,24.437408C55.516468,24.559359,55.447689,24.628139,55.310127,24.643749L53.959396,24.642286L53.959396,27.024725z"/>
    <path transform="matrix(1,0,0,-1,0,0)" style="stroke:none;fill:#ff0000;fill-rule:evenodd" d="M52.816467,24.446188C52.625248,24.312531,52.421833,24.245701,52.206223,24.245701C52.192566,24.246675,52.178421,24.247164,52.163788,24.247164C51.932568,24.25692,51.72086,24.340822,51.528664,24.498871C51.337444,24.657896,51.233543,24.889603,51.216957,25.193993L51.216957,25.223261L51.216957,27.027653C51.216957,27.056921,51.222321,27.083261,51.233055,27.106676C51.272079,27.191555,51.332077,27.233994,51.413055,27.233994C51.428665,27.233994,51.446224,27.232042,51.465736,27.22814C51.575005,27.206676,51.629639,27.139847,51.629639,27.027653L51.629639,25.223261C51.643299,24.998871,51.741837,24.831066,51.925251,24.719847C52.013054,24.666189,52.103298,24.639359,52.19598,24.639359C52.296467,24.639359,52.398907,24.671066,52.503296,24.734482C52.594028,24.788139,52.66037,24.857409,52.702324,24.942286C52.745251,25.027164,52.770615,25.120823,52.778419,25.223261L52.778419,27.027653C52.778419,27.045214,52.779396,27.058384,52.781349,27.067163C52.801834,27.176432,52.864761,27.231066,52.970127,27.231066C52.980858,27.231066,52.991592,27.230579,53.002323,27.229603C53.127201,27.217896,53.18964,27.150579,53.18964,27.027653L53.18964,25.223261L53.18964,25.193993C53.18671,25.145212,53.184761,25.115944,53.183784,25.106188C53.142811,24.808628,53.02037,24.588627,52.816467,24.446188z"/>
    <path transform="matrix(1,0,0,-1,0,0)" style="stroke:none;fill:#ff0000;fill-rule:evenodd" d="M49.937931,25.508627L49.965736,25.510092C50.139397,25.520823,50.294029,25.572042,50.429638,25.66375C50.56525,25.756432,50.667686,25.884237,50.736958,26.047165C50.780857,26.150579,50.802811,26.255945,50.802811,26.363262C50.802811,26.467651,50.781834,26.573505,50.739883,26.680822C50.655979,26.897408,50.513054,27.053019,50.311104,27.147652C50.205738,27.195457,50.090614,27.223749,49.965736,27.232531L49.937931,27.232531L49.018909,27.232531L49.005737,27.232531C48.89159,27.216921,48.827202,27.148628,48.812565,27.027653L48.812565,24.441797C48.829151,24.304237,48.897934,24.235456,49.018909,24.235456C49.139885,24.235456,49.209152,24.304237,49.226711,24.441797L49.226711,25.508627L49.937931,25.508627zM49.226711,25.922773L49.937931,25.922773C50.049152,25.922773,50.147202,25.959846,50.232079,26.033993C50.317932,26.108139,50.368176,26.200823,50.382809,26.312042C50.385738,26.33448,50.387199,26.355944,50.387199,26.376432C50.387199,26.484726,50.34964,26.581799,50.274517,26.667652C50.184761,26.769115,50.072567,26.819847,49.937931,26.819847L49.226711,26.819847L49.226711,25.922773z"/>
    <path transform="matrix(1,0,0,-1,0,0)" style="stroke:none;fill:#ff0000;fill-rule:evenodd" d="M57.627811,40.076477C57.561958,40.180378,57.483665,40.23233,57.392933,40.23233C57.360737,40.23233,57.32708,40.225746,57.291958,40.212574C57.157322,40.16428,57.079762,40.064037,57.059273,39.911842L57.059273,36.035255C57.090004,35.830379,57.192444,35.72794,57.366589,35.72794C57.542198,35.72794,57.646103,35.830379,57.678299,36.035255L57.678299,38.829647L59.522202,35.872818C59.585129,35.776234,59.666348,35.72794,59.765858,35.72794L59.77903,35.72794C59.806835,35.72794,59.836834,35.73233,59.86903,35.741112C60.016834,35.782085,60.090736,35.87867,60.090736,36.030869L60.090736,36.035255L60.090736,39.911842C60.074638,40.116722,59.974396,40.220623,59.790005,40.223549C59.787079,40.223549,59.785614,40.223549,59.785614,40.223549C59.604153,40.223549,59.499519,40.119648,59.471714,39.911842L59.471714,37.115257L57.627811,40.076477z"/>
    <path transform="matrix(1,0,0,-1,0,0)" style="stroke:none;fill:#ff0000;fill-rule:evenodd" d="M53.871956,39.608917C53.667076,39.625011,53.56464,39.727451,53.56464,39.916233C53.56464,40.106476,53.667076,40.210381,53.871956,40.22794L56.100006,40.22794C56.303421,40.211842,56.405128,40.107941,56.405128,39.916233C56.405128,39.72599,56.303421,39.62355,56.100006,39.608917L55.296589,39.608917L55.296589,36.039646C55.262932,35.83477,55.157566,35.73233,54.980492,35.73233C54.979031,35.73233,54.976833,35.73233,54.973907,35.73233C54.792442,35.735256,54.693665,35.837696,54.677567,36.039646L54.677567,39.608917L53.871956,39.608917z"/>
    <path transform="matrix(1,0,0,-1,0,0)" style="stroke:none;fill:#ff0000;fill-rule:evenodd" d="M52.124641,40.069893C52.205128,40.18111,52.292931,40.236721,52.388054,40.236721C52.437809,40.236721,52.489761,40.221355,52.543907,40.190624C52.649273,40.130623,52.701958,40.046478,52.701958,39.938183C52.701958,39.886963,52.69025,39.829891,52.666836,39.766964L51.859032,38.318184L53.044395,36.193306C53.070736,36.130379,53.083908,36.072575,53.083908,36.01989C53.083908,35.913063,53.029762,35.830379,52.921471,35.771843C52.867321,35.741112,52.815372,35.725746,52.765614,35.725746C52.669029,35.725746,52.582687,35.782085,52.506592,35.894768L51.501225,37.685989L50.506836,35.894768C50.42342,35.785011,50.332687,35.730133,50.234638,35.730133C50.183418,35.730133,50.13147,35.74477,50.078785,35.774036C49.974884,35.829647,49.922932,35.909401,49.922932,36.013306L49.922932,36.017696C49.922932,36.070381,49.936104,36.128914,49.962444,36.193306L51.150005,38.318184L50.340004,39.769157C50.315128,39.832085,50.302689,39.889893,50.302689,39.942574C50.302689,40.047939,50.35537,40.12989,50.460735,40.188427C50.514885,40.219158,50.567566,40.234524,50.618786,40.234524C50.713909,40.234524,50.801712,40.179646,50.882202,40.069893L51.501225,38.952572L52.124641,40.069893z"/>
    <path transform="matrix(1,0,0,-1,0,0)" style="stroke:none;fill:#ff0000;fill-rule:evenodd" d="M47.190006,38.414768L48.577324,38.414768C48.785126,38.384037,48.88903,38.280136,48.88903,38.103062C48.88903,37.924526,48.785126,37.820621,48.577324,37.791355L47.190006,37.791355L47.190006,36.349159L49.009762,36.349159C49.216103,36.318428,49.319275,36.215256,49.319275,36.039646C49.319275,35.864037,49.216103,35.761597,49.009762,35.73233L46.884884,35.73233C46.701958,35.755745,46.598053,35.859646,46.573177,36.044037L46.573177,39.920624C46.600983,40.113792,46.704884,40.216232,46.884884,40.22794L49.009762,40.22794C49.216103,40.211842,49.319275,40.109402,49.319275,39.920624C49.319275,39.730377,49.216103,39.62867,49.009762,39.615501L47.190006,39.615501L47.190006,38.414768z"/>
    <path transform="matrix(1,0,0,-1,0,0)" style="stroke:none;fill:#ff0000;fill-rule:evenodd" d="M59.393784,42.840134C59.736225,42.904526,60.011345,43.085987,60.219151,43.384525C60.378662,43.614281,60.45842,43.856476,60.45842,44.111111C60.45842,44.112576,60.45842,44.114769,60.45842,44.117695C60.45842,44.193794,60.451103,44.271355,60.436466,44.35038C60.37793,44.670868,60.227932,44.935013,59.986469,45.142818C59.745007,45.352085,59.460373,45.456722,59.132565,45.456722L57.769394,45.456722C57.683052,45.456722,57.609882,45.42672,57.549881,45.366718C57.491348,45.306721,57.462078,45.23428,57.462078,45.149403L57.462078,41.270622C57.462078,41.168182,57.502323,41.086964,57.582809,41.026962C57.641346,40.981598,57.70208,40.958916,57.765003,40.958916C57.811832,40.960381,57.859394,40.972816,57.907688,40.996231C58.023296,41.051842,58.0811,41.143307,58.0811,41.270622L58.0811,42.81599L58.629883,42.81599L59.712078,41.105988C59.754517,41.031353,59.821102,40.985989,59.911835,40.969891C59.935249,40.9655,59.957199,40.963306,59.977688,40.963306C60.043541,40.963306,60.10281,40.98233,60.155495,41.020378C60.244759,41.089161,60.289394,41.167454,60.289394,41.255257C60.289394,41.312332,60.271103,41.373062,60.234516,41.43745L59.352077,42.833549L59.393784,42.840134zM58.0811,44.837696L59.163296,44.837696C59.394516,44.817207,59.575981,44.716232,59.707687,44.534767C59.794029,44.414768,59.8372,44.285988,59.8372,44.148426C59.8372,44.076721,59.825493,44.002087,59.802078,43.924526C59.758175,43.778183,59.672565,43.659645,59.54525,43.568916C59.419395,43.478184,59.281834,43.432819,59.132565,43.432819L58.0811,43.432819L58.0811,44.837696z"/>
    <path transform="matrix(1,0,0,-1,0,0)" style="stroke:none;fill:#ff0000;fill-rule:evenodd" d="M55.567688,41.786476L55.793785,41.165257C55.880127,41.026234,55.985493,40.956718,56.109882,40.956718L56.114273,40.956718L56.186714,40.980865C56.321346,41.018917,56.388664,41.110378,56.388664,41.255257C56.388664,41.291843,56.384274,41.331356,56.375492,41.373795L54.968422,45.254768C54.920128,45.387939,54.82354,45.455257,54.678665,45.456722L54.667686,45.456722C54.666225,45.456722,54.665493,45.456722,54.665493,45.456722C54.494274,45.332329,54.402809,45.265015,54.391102,45.254768C54.209641,45.068916,53.974762,44.42355,53.68647,43.318672C53.655739,43.200134,53.43037,42.551109,53.010372,41.371597L52.977444,41.253059C52.974518,41.236965,52.973053,41.222328,52.973053,41.20916C52.973053,41.114037,53.035248,41.041599,53.159641,40.991844C53.19915,40.975746,53.24086,40.967697,53.284763,40.967697C53.397446,40.967697,53.488907,41.036476,53.559151,41.174038L53.778664,41.786476L55.567688,41.786476zM54.004761,42.403305L55.343784,42.403305L54.676468,44.247208L54.004761,42.403305z"/>
    <path transform="matrix(1,0,0,-1,0,0)" style="stroke:none;fill:#ff0000;fill-rule:evenodd" d="M50.226955,43.643551L51.614273,43.643551C51.822079,43.612816,51.92598,43.508915,51.92598,43.331841C51.92598,43.153305,51.822079,43.049404,51.614273,43.020134L50.226955,43.020134L50.226955,41.577938L52.046711,41.577938C52.253056,41.547207,52.356224,41.444038,52.356224,41.268429C52.356224,41.092819,52.253056,40.990379,52.046711,40.961109L49.921833,40.961109C49.738907,40.984524,49.635006,41.088428,49.610126,41.27282L49.610126,45.149403C49.637932,45.342575,49.741837,45.445011,49.921833,45.456722L52.046711,45.456722C52.253056,45.440624,52.356224,45.338184,52.356224,45.149403C52.356224,44.95916,52.253056,44.857452,52.046711,44.84428L50.226955,44.84428L50.226955,43.643551z"/>
    <path transform="matrix(1,0,0,-1,0,0)" style="stroke:none;fill:#ff0000;fill-rule:evenodd" d="M59.139301,57.135761C59.076702,57.221127,59.008408,57.263809,58.934425,57.263809C58.933289,57.263809,58.93158,57.263809,58.929302,57.263809C58.891743,57.263809,58.853043,57.252426,58.813206,57.229664C58.731255,57.184135,58.690281,57.120396,58.690281,57.038445C58.690281,56.998604,58.700523,56.954216,58.721008,56.905273L59.701012,55.151859L59.701012,54.009663C59.711254,53.848038,59.790359,53.767223,59.938328,53.767223C60.087433,53.767223,60.167107,53.848038,60.177353,54.009663L60.177353,55.151859L61.159058,56.905273C61.179546,56.954216,61.189789,56.998604,61.189789,57.038445C61.188652,57.120396,61.145969,57.184704,61.061741,57.231369C61.01849,57.255272,60.978081,57.267223,60.940521,57.267223C60.865402,57.267223,60.798817,57.223404,60.740765,57.135761L59.940033,55.705029L59.139301,57.135761z"/>
    <path transform="matrix(1,0,0,-1,0,0)" style="stroke:none;fill:#ff0000;fill-rule:evenodd" d="M56.42049,56.778931C56.261143,56.791451,56.181469,56.871124,56.181469,57.017956C56.181469,57.165924,56.261143,57.246735,56.42049,57.260395L58.153419,57.260395C58.31163,57.247875,58.390736,57.167061,58.390736,57.017956C58.390736,56.869987,58.31163,56.790314,58.153419,56.778931L57.528542,56.778931L57.528542,54.002834C57.502361,53.843483,57.42041,53.763809,57.282688,53.763809C57.281548,53.763809,57.279842,53.763809,57.277565,53.763809C57.136425,53.766087,57.059597,53.84576,57.047077,54.002834L57.047077,56.778931L56.42049,56.778931z"/>
    <path transform="matrix(1,0,0,-1,0,0)" style="stroke:none;fill:#ff0000;fill-rule:evenodd" d="M55.69659,57.017956C55.671551,57.179581,55.590736,57.260395,55.454151,57.260395C55.453014,57.260395,55.452442,57.260395,55.452442,57.260395C55.316994,57.260395,55.236752,57.179581,55.211712,57.017956L55.211712,53.99942C55.236752,53.840069,55.317566,53.760395,55.454151,53.760395C55.455292,53.760395,55.45586,53.760395,55.45586,53.760395C55.591309,53.760395,55.671551,53.840069,55.69659,53.99942L55.69659,57.017956z"/>
    <path transform="matrix(1,0,0,-1,0,0)" style="stroke:none;fill:#ff0000;fill-rule:evenodd" d="M53.113419,57.062347C53.066753,57.184135,52.994476,57.245029,52.896591,57.245029C52.872688,57.245029,52.847649,57.241615,52.821468,57.234787C52.703094,57.204052,52.643337,57.126083,52.6422,57.000881C52.6422,56.980392,52.643906,56.959335,52.647324,56.937714L53.456589,53.93454C53.505531,53.820721,53.582932,53.763809,53.688786,53.763809C53.689922,53.763809,53.690491,53.763809,53.690491,53.763809C53.797485,53.763809,53.873745,53.822998,53.919273,53.941368L54.731956,56.958199C54.737648,56.986656,54.74049,57.013405,54.74049,57.038445C54.74049,57.145435,54.683014,57.216003,54.568054,57.250153C54.537319,57.259254,54.508865,57.263809,54.482689,57.263809C54.3848,57.263809,54.313091,57.203484,54.267563,57.082832L53.688786,54.931614L53.113419,57.062347z"/>
    <path transform="matrix(1,0,0,-1,0,0)" style="stroke:none;fill:#ff0000;fill-rule:evenodd" d="M51.952934,54.405762L52.128788,53.922592C52.195942,53.814461,52.277893,53.760395,52.374641,53.760395L52.378056,53.760395L52.434395,53.779175C52.539112,53.808769,52.591469,53.879906,52.591469,53.992592C52.591469,54.021046,52.588055,54.051777,52.581226,54.084785L51.486835,57.103321C51.449276,57.206898,51.374153,57.259254,51.261471,57.260395L51.252934,57.260395C51.251793,57.260395,51.251225,57.260395,51.251225,57.260395C51.118053,57.163647,51.046917,57.11129,51.037811,57.103321C50.896671,56.958771,50.713989,56.456818,50.489761,55.597466C50.465858,55.505272,50.290577,55.000477,49.963909,54.083076L49.938297,53.990883C49.936024,53.978363,49.934883,53.96698,49.934883,53.956738C49.934883,53.882751,49.983257,53.826412,50.080006,53.787712C50.110737,53.775192,50.143177,53.768932,50.177322,53.768932C50.264965,53.768932,50.336105,53.822426,50.390739,53.92942L50.56147,54.405762L51.952934,54.405762zM50.737324,54.885517L51.778786,54.885517L51.259762,56.319664L50.737324,54.885517z"/>
    <path transform="matrix(1,0,0,-1,0,0)" style="stroke:none;fill:#ff0000;fill-rule:evenodd" d="M48.921432,55.225273C49.187771,55.275352,49.401756,55.416492,49.563381,55.648689C49.687447,55.827385,49.749477,56.015762,49.749477,56.21381C49.749477,56.214947,49.749477,56.216656,49.749477,56.218933C49.749477,56.278118,49.74379,56.338444,49.732407,56.399906C49.686878,56.649174,49.57021,56.854622,49.382408,57.016247C49.194603,57.179012,48.973221,57.260395,48.718262,57.260395L47.658016,57.260395C47.590862,57.260395,47.533951,57.237061,47.487286,57.190395C47.441757,57.14373,47.418991,57.087387,47.418991,57.02137L47.418991,54.004539C47.418991,53.924866,47.450291,53.861694,47.512894,53.815029C47.558422,53.779743,47.605659,53.7621,47.654602,53.7621C47.691025,53.763241,47.728016,53.772915,47.765575,53.791126C47.855495,53.834377,47.900455,53.905518,47.900455,54.004539L47.900455,55.206493L48.327282,55.206493L49.168991,53.876492C49.202,53.818443,49.253788,53.783157,49.324356,53.770638C49.342567,53.767223,49.359642,53.765518,49.375576,53.765518C49.426796,53.765518,49.472893,53.780312,49.51387,53.809906C49.583302,53.863403,49.618015,53.924297,49.618015,53.992592C49.618015,54.03698,49.603786,54.084217,49.575333,54.134296L48.888992,55.22015L48.921432,55.225273zM47.900455,56.778931L48.742161,56.778931C48.922001,56.762997,49.063137,56.68446,49.165577,56.54332C49.232731,56.449989,49.266308,56.349827,49.266308,56.242832C49.266308,56.187061,49.257202,56.129013,49.238991,56.068687C49.204845,55.954865,49.13826,55.862671,49.039234,55.792103C48.941349,55.721535,48.834358,55.686249,48.718262,55.686249L47.900455,55.686249L47.900455,56.778931z"/>
    <path transform="matrix(1,0,0,-1,0,0)" style="stroke:none;fill:#ff0000;fill-rule:evenodd" d="M46.382648,54.651615L46.363869,54.614052C46.283058,54.443321,46.172649,54.326653,46.03265,54.264053C45.99509,54.246979,45.958099,54.238441,45.921673,54.238441C45.820374,54.238441,45.719643,54.302753,45.61948,54.43137C45.422569,54.680637,45.313301,54.972588,45.291676,55.307224C45.288261,55.366409,45.286552,55.424461,45.286552,55.481369C45.286552,55.752266,45.328667,56.007793,45.412895,56.247955C45.517609,56.549583,45.674683,56.721451,45.884113,56.763565C45.906876,56.76812,45.93021,56.770393,45.954113,56.770393C46.132813,56.770393,46.281349,56.624134,46.399723,56.331615C46.441837,56.256493,46.501595,56.210964,46.578991,56.19503C46.594925,56.192753,46.610291,56.191044,46.625088,56.189907C46.685413,56.189907,46.741756,56.215515,46.794113,56.266735C46.837364,56.30999,46.858994,56.361778,46.858994,56.422104C46.858994,56.456249,46.852161,56.492672,46.838505,56.531372L46.824844,56.55698L46.814602,56.580883L46.800941,56.6082C46.678017,56.854053,46.492489,57.045273,46.244358,57.181858C46.139641,57.239906,46.033218,57.268932,45.925087,57.268932L45.918259,57.268932C45.773708,57.268932,45.627449,57.218849,45.479477,57.118687C45.27005,56.975273,45.112404,56.781208,45.006554,56.536491C44.901836,56.292915,44.839233,56.035679,44.818748,55.764786C44.813057,55.687386,44.810211,55.611126,44.810211,55.536003C44.810211,55.344784,44.828423,55.156979,44.864845,54.972588C44.916065,54.713078,44.994602,54.497387,45.100456,54.325516C45.323544,53.964703,45.598991,53.779743,45.926796,53.770638C45.934765,53.770638,45.942162,53.770069,45.94899,53.768932C46.266552,53.768932,46.533463,53.952751,46.749725,54.320396L46.765087,54.346004L46.778748,54.371613L46.790699,54.397224L46.804359,54.422832L46.818016,54.448444L46.829967,54.474052L46.841919,54.501369L46.862404,54.545761L46.862404,55.411369C46.862404,55.477386,46.838505,55.53373,46.790699,55.580395C46.744034,55.628201,46.687691,55.6521,46.621674,55.6521L45.991676,55.6521L45.976311,55.6521L45.960941,55.648689C45.822083,55.631615,45.752651,55.552509,45.752651,55.411369C45.752651,55.270233,45.822083,55.191124,45.960941,55.174053L45.976311,55.172348L46.382648,55.172348L46.382648,54.651615z"/>
    <path transform="matrix(1,0,0,-1,0,0)" style="stroke:none;fill:#ff0000;fill-rule:evenodd" d="M48.277687,42.102573L48.25354,42.054279C48.149639,41.83477,48.007687,41.684769,47.82769,41.604282C47.779396,41.582329,47.731834,41.571354,47.685005,41.571354C47.55476,41.571354,47.425247,41.654037,47.296471,41.819405C47.043297,42.139893,46.902809,42.515255,46.875004,42.945499C46.870613,43.021599,46.86842,43.096233,46.86842,43.169403C46.86842,43.517696,46.922565,43.846233,47.030861,44.155014C47.165493,44.542816,47.367443,44.763794,47.636711,44.81794C47.665981,44.823792,47.69598,44.826721,47.726711,44.826721C47.95647,44.826721,48.147446,44.638672,48.299641,44.262573C48.353786,44.165989,48.430614,44.107452,48.530128,44.086964C48.550613,44.084038,48.570374,44.081841,48.589394,44.080379C48.666958,44.080379,48.739395,44.113304,48.806713,44.179161C48.862324,44.234768,48.890129,44.301353,48.890129,44.378914C48.890129,44.422817,48.881348,44.469646,48.863785,44.519402L48.846226,44.55233L48.833054,44.583061L48.815495,44.618183C48.657444,44.93428,48.418907,45.180134,48.099884,45.355743C47.965248,45.430378,47.828419,45.467697,47.689396,45.467697L47.680614,45.467697C47.494762,45.467697,47.306713,45.403305,47.11647,45.274525C46.847198,45.090134,46.644516,44.840622,46.508419,44.52599C46.373787,44.212818,46.293297,43.882088,46.266956,43.533794C46.25964,43.43428,46.255981,43.336231,46.255981,43.239647C46.255981,42.993793,46.279396,42.752331,46.326225,42.515255C46.392078,42.181599,46.493053,41.904282,46.62915,41.683304C46.915981,41.219402,47.270126,40.981598,47.691589,40.969891C47.701836,40.969891,47.711346,40.969158,47.720127,40.967697C48.128418,40.967697,48.471592,41.204037,48.749641,41.67672L48.769394,41.709648L48.786957,41.742573L48.802322,41.775501L48.819885,41.808426L48.837444,41.841354L48.85281,41.874283L48.868176,41.909405L48.894516,41.966476L48.894516,43.079403C48.894516,43.16428,48.863785,43.236721,48.802322,43.296719C48.742321,43.358185,48.669884,43.388916,48.585007,43.388916L47.775005,43.388916L47.755249,43.388916L47.735493,43.384525C47.556957,43.362576,47.46769,43.260868,47.46769,43.079403C47.46769,42.897942,47.556957,42.796234,47.735493,42.774281L47.755249,42.772087L48.277687,42.772087L48.277687,42.102573z"/>
</svg>
