<?xml version="1.0" encoding="UTF-8" standalone="no"?>
<svg  version="1.1" xmlns="http://www.w3.org/2000/svg" width="849.947px" height="252.953px">
<path d="M398.501 18.8976 C398.501 31.4219, 408.654 41.5748, 421.178 41.5748 " stroke="black" stroke-width="1" fill="none" />

<circle cx="398.502" cy="177.638" r="4.72441" stroke="black" stroke-width="1" fill="none" />


<circle cx="398.502" cy="79.3701" r="4.72441" stroke="black" stroke-width="1" fill="none" />


<circle cx="477.187" cy="142.654" r="4.72441" stroke="black" stroke-width="1" fill="none" />


<path d="M844.278 150.905 L696.87 150.905 L695.333 151.119 L693.789 151.819 L692.522 152.944 L691.643 154.394 L691.233 156.038 L691.243 194.191 L691.464 194.58 L691.841 194.825 L692.288 194.868 L692.705 194.699 L697.412 190.238 L702.201 186.186 L707.261 182.381 L712.532 178.875 L716.714 176.392 L721.001 174.096 L725.36 172.005 L729.834 170.097 L734.769 168.258 L739.786 166.657 L744.874 165.3 L750.05 164.183 L755.245 163.321 L760.476 162.71 L765.73 162.351 L771.024 162.244 L776.374 162.397 L781.711 162.81 L787.021 163.484 L792.291 164.416 L797.51 165.604 L802.665 167.045 L807.743 168.737 L812.733 170.674 L817.466 172.779 L822.12 175.118 L826.657 177.676 L831.068 180.447 L834.877 183.085 L838.593 185.9 L843.593 190.104 L848.395 194.656 L848.804 194.856 L849.261 194.842 L849.752 194.509 L849.947 193.949 L849.911 155.934 L849.316 153.973 L848.057 152.347 L846.3 151.278 L844.278 150.905 Z " stroke="black" stroke-width="1" fill="none" />

<circle cx="702.546" cy="164.133" r="4.72441" stroke="black" stroke-width="1" fill="none" />


<path d="M183.124 234.055 L266.503 234.051 L268.112 233.749 L269.567 233.001 L270.748 231.868 L271.556 230.445 L271.844 229.44 L271.943 228.399 L271.943 20.4269 L271.672 18.78 L270.93 17.2778 L269.787 16.0621 L268.333 15.2297 L267.334 14.9427 L266.3 14.8428 L182.922 14.8463 L181.305 15.1424 L179.842 15.8896 L178.654 17.025 L177.842 18.4532 L177.554 19.4582 L177.455 20.4989 L177.457 228.523 L177.588 229.607 L177.927 230.65 L178.461 231.609 L179.164 232.443 L180.02 233.13 L180.987 233.637 L182.032 233.949 L183.124 234.055 Z " stroke="black" stroke-width="1" fill="none" />

<circle cx="224.699" cy="60.197" r="4.72441" stroke="black" stroke-width="1" fill="none" />


<circle cx="207.691" cy="162.244" r="4.72441" stroke="black" stroke-width="1" fill="none" />


<circle cx="838.609" cy="164.133" r="4.72441" stroke="black" stroke-width="1" fill="none" />


<circle cx="628.368" cy="142.654" r="4.72441" stroke="black" stroke-width="1" fill="none" />


<circle cx="52.7968" cy="179.315" r="4.72441" stroke="black" stroke-width="1" fill="none" />


<circle cx="52.7968" cy="81.0473" r="4.72441" stroke="black" stroke-width="1" fill="none" />


<path d="M52.7957 224.669 C52.7957 212.145, 42.6428 201.992, 30.1185 201.992 " stroke="black" stroke-width="1" fill="none" />

<path d="M421.18 41.5748 L434.474 41.5752 L435.916 41.7791 L437.438 42.4526 L438.746 43.594 L439.647 45.0775 L440.051 46.6924 L440.078 236.22 L439.833 237.867 L439.161 239.311 L438.269 240.372 L437.141 241.187 L435.855 241.702 L434.548 241.888 L308.713 241.806 L306.89 241.153 L305.484 240.028 L304.473 238.453 L304.03 236.635 L304.076 220.48 L304.415 219.224 L305.042 218.061 L305.906 217.089 L306.901 216.377 " stroke="black" stroke-width="1" fill="none" />

<path d="M398.503 18.8976 L398.503 5.66929 L398.366 4.43231 L397.868 3.06318 L396.94 1.76049 L395.746 0.805647 L394.208 0.169268 L392.833 0 L341.461 0.0107696 L339.968 0.307541 L338.603 0.994356 L337.429 2.07129 L336.656 3.30663 L336.278 4.42816 L336.141 5.66929 L336.141 47.4625 L336.248 48.5609 L336.565 49.6142 L337.145 50.6843 L341.557 56.3721 L345.154 61.6189 L347.506 65.4439 L350.051 70.0237 L352.53 75.0594 L354.749 80.2155 L356.7 85.4784 L358.38 90.8343 L359.867 96.6339 L360.907 101.769 L361.747 107.319 L362.329 113.277 L362.578 118.885 L362.527 124.872 L362.214 130.102 L361.551 136.052 L360.564 141.957 L359.164 148.163 L357.406 154.276 L355.162 160.627 L352.842 166.147 L350.052 171.863 L347.127 177.087 L343.501 182.763 L339.762 187.91 L335.485 193.113 L331.421 197.51 L326.847 201.931 L322.315 205.843 L317.273 209.722 L312.329 213.1 L306.883 216.387 " stroke="black" stroke-width="1" fill="none" />

<path d="M500.341 234.576 L500.812 234.7 L501.284 234.572 L501.628 234.227 L501.754 233.755 L501.756 80.1583 L502.085 78.3818 L502.998 76.7478 L504.332 75.539 L505.978 74.8095 L507.423 74.6223 L598.265 74.6239 L600.238 75.028 L601.837 76.0005 L602.683 76.9104 L603.288 77.9349 L603.679 79.1209 L603.801 80.2261 L603.801 233.755 L604.076 234.421 L604.619 234.692 L605.214 234.576 L609.622 231.918 L613.895 229.048 L620.38 224.074 L626.4 218.674 L631.652 213.21 L636.499 207.384 L640.933 201.203 L644.631 195.211 L646.949 190.934 L649.29 186.066 L651.39 181.058 L653.069 176.432 L654.662 171.271 L655.996 166.007 L656.965 161.211 L657.776 155.87 L658.313 150.495 L658.563 145.609 L658.587 140.716 L658.35 135.319 L657.898 130.447 L657.134 125.071 L656.1 119.769 L654.791 114.5 L653.371 109.788 L651.563 104.697 L649.498 99.7061 L647.422 95.3066 L645.132 90.9826 L642.36 86.3134 L639.499 82.0009 L636.447 77.8558 L633.031 73.6708 L629.757 70.0351 L625.951 66.2016 L621.955 62.5674 L618.157 59.438 L613.825 56.2103 L609.764 53.4809 L605.115 50.6752 L600.354 48.1244 L595.934 46.0263 L590.92 43.9399 L585.833 42.1222 L581.151 40.7017 L575.912 39.3867 L571.114 38.4277 L565.744 37.6244 L560.903 37.1395 L555.763 36.8692 L550.588 36.8497 L545.22 37.0973 L540.349 37.5594 L534.974 38.3353 L529.647 39.3858 L524.408 40.7007 L519.725 42.121 L514.612 43.9487 L509.625 46.0248 L504.978 48.2373 L500.419 50.6873 L496.248 53.1906 L492.15 55.9153 L487.803 59.122 L483.604 62.5648 L479.627 66.1794 L476.171 69.6423 L472.526 73.6679 L469.424 77.451 L466.189 81.8124 L463.469 85.8797 L460.688 90.5109 L458.249 95.0756 L456.048 99.7284 L454.177 104.219 L452.344 109.3 L450.91 113.978 L449.573 119.241 L448.513 124.538 L447.787 129.377 L447.288 134.216 L446.995 139.609 L446.978 145.039 L447.201 149.927 L447.65 154.799 L448.407 160.148 L449.435 165.451 L450.733 170.694 L452.147 175.408 L453.95 180.5 L455.805 185.028 L458.093 189.921 L460.379 194.247 L463.147 198.919 L466.135 203.419 L469.366 207.783 L472.466 211.569 L476.087 215.577 L479.539 219.044 L483.554 222.7 L487.306 225.797 L491.449 228.898 L495.715 231.779 L500.362 234.588 " stroke="black" stroke-width="1" fill="none" />

<path d="M30.1194 201.992 L16.8195 201.992 L15.3835 201.788 L13.8614 201.114 L12.5537 199.973 L11.6526 198.489 L11.2492 196.875 L11.2223 7.3465 L11.3313 6.23996 L11.6271 5.24272 L12.465 3.80448 L13.6844 2.67157 L15.1803 1.94164 L16.7517 1.67894 L109.49 1.67721 L110.526 1.77263 L111.594 2.082 L112.975 2.87522 L114.082 4.02155 L114.828 5.43663 L115.144 6.93186 L115.094 49.9954 L114.824 51.0615 L114.29 52.1558 L110.178 57.4577 L107.164 61.7435 L103.976 66.8112 L101.069 72.0455 L98.6075 77.0899 L96.27 82.602 L94.237 88.2335 L92.7126 93.2458 L91.4295 98.3252 L90.2622 104.198 L89.4174 110.125 L88.8974 116.09 L88.7028 122.419 L88.8361 128.031 L89.2196 133.256 L89.963 139.196 L91.0297 145.088 L92.4165 150.912 L94.236 157.008 L96.4062 162.988 L98.7623 168.492 L101.768 174.519 L104.746 179.714 L108.429 185.353 L112.219 190.461 L116.052 195.061 L119.869 199.177 L124.442 203.599 L128.108 206.797 L132.21 210.055 L138.331 214.362 L144.88 218.358 L145.79 219.156 L146.558 220.215 L147.063 221.421 L147.282 222.809 L147.285 237.963 L147.081 239.406 L146.329 241.049 L145.16 242.323 L143.655 243.188 L141.893 243.56 L57.6309 243.505 L55.9794 242.992 L54.6552 242.095 L53.6379 240.869 L52.9832 239.338 L52.7988 238.038 L52.7971 224.669 " stroke="black" stroke-width="1" fill="none" />

</svg>
