<?xml version="1.0" encoding="UTF-8" standalone="no"?>
<svg  version="1.1" xmlns="http://www.w3.org/2000/svg" width="401.372px" height="833.642px">
<path d="M401.372 820.157 L19.6395 820.157 L19.6395 0 L401.372 0 L401.372 820.157 Z " stroke="black" stroke-width="1" fill="none" />

<circle cx="42.3173" cy="49.1339" r="9.44882" stroke="black" stroke-width="1" fill="none" />


<circle cx="42.3173" cy="771.024" r="9.44882" stroke="black" stroke-width="1" fill="none" />


<circle cx="87.672" cy="718.11" r="15.1181" stroke="black" stroke-width="1" fill="none" />


<path d="M193.498 309.921 L76.3324 309.921 L76.3324 253.228 L193.498 253.228 L193.498 309.921 Z " stroke="black" stroke-width="1" fill="none" />

<circle cx="95.231" cy="173.858" r="15.1181" stroke="black" stroke-width="1" fill="none" />


<circle cx="93.3407" cy="485.67" r="6.04724" stroke="black" stroke-width="1" fill="none" />


<circle cx="134.917" cy="400.63" r="22.6772" stroke="black" stroke-width="1" fill="none" />


<circle cx="191.608" cy="631.182" r="6.04724" stroke="black" stroke-width="1" fill="none" />


<circle cx="191.608" cy="782.362" r="6.04724" stroke="black" stroke-width="1" fill="none" />


<circle cx="210.506" cy="799.371" r="6.04725" stroke="black" stroke-width="1" fill="none" />


<circle cx="210.506" cy="20.7882" r="6.04725" stroke="black" stroke-width="1" fill="none" />


<circle cx="210.506" cy="77.4811" r="6.04725" stroke="black" stroke-width="1" fill="none" />


<circle cx="236.963" cy="381.732" r="6.04724" stroke="black" stroke-width="1" fill="none" />


<circle cx="267.2" cy="706.772" r="15.685" stroke="black" stroke-width="1" fill="none" />


<circle cx="286.098" cy="364.724" r="34.0157" stroke="black" stroke-width="1" fill="none" />


<circle cx="286.097" cy="139.843" r="6.04724" stroke="black" stroke-width="1" fill="none" />


<circle cx="327.671" cy="485.67" r="6.04724" stroke="black" stroke-width="1" fill="none" />


<circle cx="335.23" cy="381.732" r="6.04724" stroke="black" stroke-width="1" fill="none" />


<circle cx="342.789" cy="631.182" r="6.04724" stroke="black" stroke-width="1" fill="none" />


<circle cx="342.789" cy="782.362" r="6.04724" stroke="black" stroke-width="1" fill="none" />


<circle cx="378.695" cy="49.1339" r="9.44882" stroke="black" stroke-width="1" fill="none" />


<circle cx="378.695" cy="771.024" r="9.44882" stroke="black" stroke-width="1" fill="none" />


</svg>
