<?xml version="1.0" encoding="UTF-8" standalone="no"?>
<svg  version="1.1" xmlns="http://www.w3.org/2000/svg" width="400.629px" height="835.276px">
<path d="M45.3543 22.6772 C57.8786 22.6772, 68.0315 32.8301, 68.0315 45.3543 C68.0315 57.8786, 57.8786 68.0315, 45.3543 68.0315 " stroke="black" stroke-width="1" fill="none" />

<path d="M45.3543 744.567 C57.8786 744.567, 68.0315 754.72, 68.0315 767.244 C68.0315 779.768, 57.8786 789.921, 45.3543 789.921 " stroke="black" stroke-width="1" fill="none" />

<circle cx="90.7082" cy="714.331" r="15.1181" stroke="black" stroke-width="1" fill="none" />


<path d="M79.3687 249.449 L196.534 249.449 L196.534 306.142 L79.3687 306.142 L79.3687 249.449 Z " stroke="black" stroke-width="1" fill="none" />

<circle cx="96.3769" cy="481.89" r="6.04724" stroke="black" stroke-width="1" fill="none" />


<circle cx="137.953" cy="396.85" r="22.6772" stroke="black" stroke-width="1" fill="none" />


<circle cx="194.645" cy="627.402" r="11.3386" stroke="black" stroke-width="1" fill="none" />


<circle cx="194.645" cy="778.583" r="11.3386" stroke="black" stroke-width="1" fill="none" />


<circle cx="213.543" cy="73.7008" r="11.3386" stroke="black" stroke-width="1" fill="none" />


<circle cx="213.542" cy="17.0086" r="6.04725" stroke="black" stroke-width="1" fill="none" />


<circle cx="213.542" cy="795.591" r="6.04725" stroke="black" stroke-width="1" fill="none" />


<circle cx="240" cy="377.953" r="15.1181" stroke="black" stroke-width="1" fill="none" />


<circle cx="270.236" cy="702.992" r="15.685" stroke="black" stroke-width="1" fill="none" />


<circle cx="289.134" cy="360.945" r="17.0079" stroke="black" stroke-width="1" fill="none" />


<circle cx="289.133" cy="136.063" r="15.1181" stroke="black" stroke-width="1" fill="none" />


<circle cx="289.133" cy="389.291" r="4.72441" stroke="black" stroke-width="1" fill="none" />


<circle cx="338.267" cy="377.953" r="15.1181" stroke="black" stroke-width="1" fill="none" />


<circle cx="330.708" cy="481.89" r="6.04724" stroke="black" stroke-width="1" fill="none" />


<circle cx="345.826" cy="627.402" r="11.3386" stroke="black" stroke-width="1" fill="none" />


<circle cx="345.826" cy="778.583" r="11.3386" stroke="black" stroke-width="1" fill="none" />


<path d="M381.732 789.921 C369.208 789.921, 359.055 779.768, 359.055 767.244 C359.055 754.72, 369.208 744.567, 381.732 744.567 " stroke="black" stroke-width="1" fill="none" />

<path d="M381.732 68.0315 C369.208 68.0315, 359.055 57.8786, 359.055 45.3543 C359.055 32.8301, 369.208 22.6772, 381.732 22.6772 " stroke="black" stroke-width="1" fill="none" />

<path d="M45.3529 68.0315 L32.0591 68.0319 L30.4781 68.2758 L28.8601 69.0657 L27.5714 70.323 L26.7419 71.921 L26.4553 73.7008 L26.4589 739.101 L26.7859 740.805 L27.6533 742.383 L28.9771 743.613 L30.6143 744.362 L31.9847 744.565 L45.3529 744.567 " stroke="black" stroke-width="1" fill="none" />

<path d="M381.731 22.6772 L395.652 22.6347 L396.737 22.3913 L397.753 21.9408 L398.662 21.3005 L399.429 20.4951 L400.249 19.0467 L400.613 17.4225 L400.622 5.38771 L400.423 4.15493 L399.992 3.05939 L399.34 2.07129 L398.446 1.19942 L396.739 0.286616 L394.959 0 L32.0591 0.000378505 L30.2849 0.306798 L28.6391 1.19801 L27.7406 2.07458 L27.1233 2.99939 L26.6601 4.15904 L26.4621 5.39196 L26.476 17.4921 L26.8338 19.0446 L27.6533 20.4933 L28.4246 21.3033 L29.3284 21.9396 L30.3448 22.3905 L31.4296 22.6344 L45.3529 22.6772 " stroke="black" stroke-width="1" fill="none" />

<path d="M381.731 789.921 L395.648 789.963 L396.733 790.206 L397.755 790.659 L398.659 791.295 L399.47 792.157 L400.25 793.554 L400.608 795.106 L400.622 807.206 L400.424 808.439 L399.96 809.599 L399.343 810.524 L398.445 811.4 L396.867 812.268 L395.025 812.598 L32.1246 812.598 L30.3448 812.312 L28.6892 811.439 L27.7894 810.583 L27.0918 809.539 L26.6613 808.443 L26.4623 807.211 L26.4705 795.176 L26.8091 793.619 L27.6107 792.16 L28.3671 791.345 L29.2679 790.694 L30.347 790.207 L31.4319 789.964 L45.3529 789.921 " stroke="black" stroke-width="1" fill="none" />

<path d="M381.731 68.0315 L395.099 68.0332 L396.469 68.2364 L398.107 68.9855 L399.43 70.2153 L400.273 71.7254 L400.625 73.4977 L400.629 738.898 L400.342 740.677 L399.512 742.275 L398.224 743.533 L396.606 744.323 L395.025 744.567 L381.731 744.567 " stroke="black" stroke-width="1" fill="none" />

</svg>
