<?xml version="1.0" encoding="UTF-8" standalone="no"?>
<svg xmlns="http://www.w3.org/2000/svg" xmlns:xlink="http://www.w3.org/1999/xlink" width="215.000mm" height="101.000mm" viewBox="6.499992 -106.500015 215.000000 101.000031">
    <circle transform="matrix(-0,1,1,0,209.5,-100.499985)" style="stroke:#ff0000;stroke-width:0.050000mm;fill:none" r="6" cx="0" cy="0"/>
    <circle transform="matrix(-0,1,1,0,209.5,-11.499985)" style="stroke:#ff0000;stroke-width:0.050000mm;fill:none" r="6" cx="0" cy="0"/>
    <circle transform="matrix(-0,1,1,0,18.5,-100.500015)" style="stroke:#ff0000;stroke-width:0.050000mm;fill:none" r="6" cx="0" cy="0"/>
    <circle transform="matrix(-0,1,1,0,18.5,-11.500015)" style="stroke:#ff0000;stroke-width:0.050000mm;fill:none" r="6" cx="0" cy="0"/>
    <circle transform="matrix(-0,1,1,0,217,-55.999985)" style="stroke:#00e000;stroke-width:0.050000mm;fill:none" r="3" cx="0" cy="0"/>
    <circle transform="matrix(-0,1,1,0,11,-56.000015)" style="stroke:#00e000;stroke-width:0.050000mm;fill:none" r="3" cx="0" cy="0"/>
    <circle transform="matrix(-0,1,1,0,94,-25)" style="stroke:#00e000;stroke-width:0.050000mm;fill:none" r="3" cx="0" cy="0"/>
    <circle transform="matrix(-0,1,1,0,35.5,-41.000015)" style="stroke:#ff0000;stroke-width:0.050000mm;fill:none" r="3.25" cx="0" cy="0"/>
    <path transform="matrix(-0,1,1,0,114,-56)" style="stroke:#ff0000;stroke-width:0.050000mm;fill:none" d="M44.5,101.5L48,101.5C48.828426,101.5,49.5,102.17157,49.5,103L49.5,106C49.5,106.82843,48.828426,107.5,48,107.5L0,107.5L-48,107.5C-48.828426,107.5,-49.5,106.82843,-49.5,106L-49.5,103C-49.5,102.17157,-48.828426,101.5,-48,101.5L-44.5,101.5"/>
    <path transform="matrix(-0,1,1,0,114,-56)" style="stroke:#ff0000;stroke-width:0.050000mm;fill:none" d="M-44.5,89.5L-48,89.5C-48.828426,89.5,-49.5,88.82843,-49.5,88L-49.5,0L-49.5,-88C-49.5,-88.82843,-48.828426,-89.5,-48,-89.5L-44.5,-89.5"/>
    <path transform="matrix(-0,1,1,0,114,-56)" style="stroke:#ff0000;stroke-width:0.050000mm;fill:none" d="M44.5,89.5L48,89.5C48.828426,89.5,49.5,88.82843,49.5,88L49.5,0L49.5,-88C49.5,-88.82843,48.828426,-89.5,48,-89.5L44.5,-89.5"/>
    <path transform="matrix(-0,1,1,0,114,-56)" style="stroke:#ff0000;stroke-width:0.050000mm;fill:none" d="M11.75,-78.5L11.75,-106C11.75,-106.82843,11.078427,-107.5,10.25,-107.5L0,-107.5L-48,-107.5C-48.828426,-107.5,-49.5,-106.82843,-49.5,-106L-49.5,-103C-49.5,-102.17157,-48.828426,-101.5,-48,-101.5L-44.5,-101.5"/>
    <path transform="matrix(-0,1,1,0,114,-56)" style="stroke:#ff0000;stroke-width:0.050000mm;fill:none" d="M18.25,-78.5L18.25,-106C18.25,-106.82843,18.921574,-107.5,19.75,-107.5L48,-107.5C48.828426,-107.5,49.5,-106.82843,49.5,-106L49.5,-103C49.5,-102.17157,48.828426,-101.5,48,-101.5L44.5,-101.5"/>
    <path transform="matrix(1,0,0,-1,0,0)" style="stroke:none;fill:#000000;fill-rule:evenodd" d="M141.573273,36.006287C141.573273,27.407112,134.602264,20.436104,126.003082,20.436104C117.403908,20.436104,110.432899,27.407112,110.432899,36.006287C110.432899,44.605461,117.403908,51.576469,126.003082,51.576469C134.602264,51.576469,141.573273,44.605461,141.573273,36.006287z"/>
    <path transform="matrix(1,0,0,-1,0,0)" style="stroke:none;fill:#000000;fill-rule:evenodd" d="M152.215439,42.658127L152.138901,41.086578L152.359772,41.129517C152.687881,39.441498,152.853073,37.725891,152.853073,36.006287C152.853073,34.286697,152.687881,32.57106,152.359772,30.883057L152.138901,30.925995L152.215439,29.354446L152.875122,30.782898L152.654251,30.825821C152.986038,32.532684,153.153076,34.267471,153.153076,36.006287C153.153076,37.745102,152.986038,39.479889,152.654251,41.186752L152.875122,41.229675L152.215439,42.658127z"/>
    <path transform="matrix(1,0,0,-1,0,0)" style="stroke:none;fill:#000000;fill-rule:evenodd" d="M126.820038,37.26429L145.270782,25.282228L144.453827,24.024221L126.003082,36.006287L126.820038,37.26429z"/>
    <path transform="matrix(1,0,0,-1,0,0)" style="stroke:none;fill:#000000;fill-rule:evenodd" d="M126.820038,34.74828L145.270798,46.730335L144.453827,47.988342L126.003082,36.006287L126.820038,34.748268"/>
    <path transform="matrix(1,0,0,-1,0,0)" style="stroke:none;fill:#000000;fill-rule:evenodd" d="M34.131851,10.836056C34.212669,10.887276,34.253075,10.94817,34.253075,11.018742C34.253075,11.043781,34.247955,11.069962,34.237709,11.097279C34.20015,11.201992,34.122177,11.262318,34.003807,11.278252L30.988686,11.278255C30.829338,11.254353,30.749657,11.174679,30.749657,11.03923C30.749657,10.902645,30.829338,10.821835,30.988686,10.796791L33.162102,10.796787L30.862343,9.362648C30.787224,9.313705,30.749657,9.250534,30.749657,9.173134L30.749657,9.162891C30.749657,9.141266,30.753075,9.117931,30.759903,9.092892C30.791771,8.977932,30.866898,8.920452,30.985268,8.920452L30.988686,8.920452L34.003807,8.920448C34.163155,8.932968,34.243965,9.010937,34.246246,9.15435C34.246246,9.156628,34.246246,9.157764,34.246246,9.157764C34.246246,9.298904,34.165436,9.380283,34.003807,9.401913L31.828682,9.401917L34.131851,10.836056z"/>
    <path transform="matrix(1,0,0,-1,0,0)" style="stroke:none;fill:#000000;fill-rule:evenodd" d="M30.889664,12.430695C30.796326,12.566143,30.749657,12.711834,30.749657,12.867767C30.749657,12.914436,30.753647,12.962242,30.761612,13.011185C30.821938,13.35606,31.001778,13.620129,31.301125,13.803379C31.600471,13.986629,31.933403,14.091915,32.299904,14.119228C32.364784,14.123779,32.429092,14.126057,32.492828,14.126057C32.79332,14.126057,33.086975,14.0737,33.37381,13.968983C33.722099,13.843781,33.975349,13.643456,34.13356,13.368008C34.21096,13.2337,34.249657,13.093132,34.249657,12.946301C34.249657,12.666302,34.143806,12.437519,33.932098,12.25996C33.721527,12.082401,33.49218,11.947521,33.244049,11.855324C32.990227,11.771099,32.729012,11.728985,32.460388,11.728985C32.394379,11.728985,32.328362,11.731262,32.262344,11.735813C31.923157,11.760857,31.613564,11.854191,31.333565,12.015816C31.159416,12.117119,31.011452,12.255409,30.889664,12.430695zM33.754539,12.854107C33.70787,12.679958,33.599174,12.54565,33.428444,12.45118C33.25885,12.356709,33.068199,12.293537,32.856491,12.261665C32.731285,12.243458,32.604942,12.23378,32.477463,12.232643C32.467224,12.232643,32.457542,12.232643,32.448441,12.232643C32.372177,12.232643,32.295349,12.236626,32.217949,12.244595C32.005104,12.267361,31.833237,12.308907,31.702347,12.369232C31.57486,12.42728,31.454216,12.514355,31.340393,12.630451C31.262993,12.710125,31.224297,12.801182,31.224297,12.903622C31.224297,12.948013,31.231689,12.994678,31.24649,13.043621C31.288605,13.180206,31.37397,13.290615,31.502586,13.37484C31.632339,13.459068,31.777466,13.52224,31.93795,13.564354C32.099579,13.606464,32.262909,13.630367,32.427956,13.636059C32.463234,13.637196,32.496811,13.637764,32.528687,13.637764C32.650475,13.637764,32.757462,13.629227,32.849663,13.612156C33.00901,13.583698,33.20137,13.515976,33.426735,13.408985C33.6521,13.300854,33.764778,13.142075,33.764778,12.932644C33.764778,12.903049,33.761368,12.876869,33.754539,12.854107z"/>
    <path transform="matrix(1,0,0,-1,0,0)" style="stroke:none;fill:#000000;fill-rule:evenodd" d="M69.357956,37.76239C69.381859,37.603043,69.463242,37.523369,69.602104,37.523369C69.747795,37.523369,69.826332,37.603043,69.837708,37.76239L69.837708,38.863613L70.771614,38.863613L70.771614,37.45166C70.78186,37.291172,70.860962,37.21093,71.008934,37.21093C71.158035,37.21093,71.238846,37.290035,71.251373,37.448246L71.251373,39.100929C71.23999,39.242065,71.15918,39.32288,71.008934,39.343369L67.997223,39.343369C67.837875,39.320602,67.758202,39.239792,67.758202,39.100929L67.758202,39.094101C67.760475,38.950684,67.840149,38.873856,67.997223,38.863613L69.357956,38.863613L69.357956,37.76239z"/>
    <path transform="matrix(1,0,0,-1,0,0)" style="stroke:none;fill:#000000;fill-rule:evenodd" d="M69.357956,40.372879C69.381859,40.213531,69.463242,40.133858,69.602104,40.133858C69.747795,40.133858,69.826332,40.213531,69.837708,40.372879L69.837708,41.474098L70.771614,41.474098L70.771614,40.062149C70.78186,39.901661,70.860962,39.821419,71.008934,39.821419C71.158035,39.821419,71.238846,39.90052,71.251373,40.058731L71.251373,41.711418C71.23999,41.852554,71.15918,41.933369,71.008934,41.953854L67.997223,41.953857C67.837875,41.931091,67.758202,41.850281,67.758202,41.711418L67.758202,41.70459C67.760475,41.561172,67.840149,41.484344,67.997223,41.474098L69.357956,41.474098L69.357956,40.372879z"/>
    <path transform="matrix(1,0,0,-1,0,0)" style="stroke:none;fill:#000000;fill-rule:evenodd" d="M67.891373,43.106293C67.798035,43.241741,67.751373,43.387432,67.751373,43.543365C67.751373,43.590034,67.755356,43.63784,67.763321,43.686783C67.823647,44.031662,68.003487,44.295727,68.302841,44.478977C68.602188,44.662231,68.93512,44.767513,69.30162,44.79483C69.366501,44.799385,69.430801,44.801659,69.494545,44.801659C69.795029,44.801659,70.088692,44.749302,70.375519,44.644585C70.723816,44.519382,70.977066,44.319057,71.135269,44.04361C71.212677,43.909302,71.251373,43.768734,71.251373,43.621902C71.251373,43.341904,71.145523,43.113121,70.933807,42.935562C70.723236,42.758003,70.493896,42.623123,70.245758,42.53093C69.991943,42.446701,69.730721,42.404587,69.462097,42.404587C69.396088,42.404587,69.33007,42.406864,69.264053,42.411415C68.924866,42.436459,68.615273,42.529793,68.335274,42.691418C68.161133,42.792717,68.013161,42.931011,67.891373,43.106293zM70.756248,43.529709C70.709579,43.35556,70.600883,43.221252,70.430153,43.126781C70.260559,43.03231,70.069908,42.969139,69.8582,42.937271C69.733002,42.91906,69.606659,42.909386,69.479172,42.908245C69.468933,42.908245,69.459259,42.908245,69.45015,42.908245C69.373886,42.908245,69.297058,42.912231,69.219666,42.920197C69.006821,42.942963,68.834946,42.984505,68.704056,43.04483C68.576576,43.102882,68.455925,43.189953,68.342102,43.306049C68.264709,43.385727,68.226006,43.476784,68.226006,43.579224C68.226006,43.623611,68.233398,43.67028,68.248199,43.719223C68.290314,43.855808,68.375679,43.966213,68.504303,44.050442C68.634048,44.13467,68.779175,44.197838,68.939667,44.239952C69.101288,44.282066,69.264626,44.305969,69.429672,44.311661C69.464951,44.312798,69.498535,44.31337,69.530396,44.31337C69.652191,44.31337,69.759178,44.304832,69.851372,44.287758C70.010719,44.259304,70.203079,44.191578,70.428444,44.084587C70.653809,43.976456,70.766495,43.817677,70.766495,43.608246C70.766495,43.578651,70.763077,43.552475,70.756248,43.529709z"/>
    <path transform="matrix(1,0,0,-1,0,0)" style="stroke:none;fill:#000000;fill-rule:evenodd" d="M60.078583,66.233856C60.159393,66.28508,60.199802,66.345978,60.199802,66.416542C60.199802,66.441589,60.194679,66.467766,60.184437,66.495079C60.146873,66.599792,60.068909,66.660118,59.950535,66.676056L56.93541,66.676056C56.776062,66.652153,56.696388,66.572479,56.696388,66.437035C56.696388,66.300446,56.776062,66.219635,56.93541,66.194595L59.108826,66.194595L56.809071,64.760452C56.733948,64.711502,56.696388,64.648331,56.696388,64.570938L56.696388,64.560692C56.696388,64.539063,56.699802,64.515732,56.706631,64.490692C56.738503,64.375732,56.813622,64.318253,56.931995,64.318253L56.93541,64.318253L59.950535,64.318253C60.109882,64.330772,60.190697,64.408737,60.19297,64.552155C60.19297,64.554428,60.19297,64.555573,60.19297,64.555573C60.19297,64.696709,60.11216,64.778091,59.950535,64.799713L57.77541,64.799713L60.078583,66.233856z"/>
    <path transform="matrix(1,0,0,-1,0,0)" style="stroke:none;fill:#000000;fill-rule:evenodd" d="M58.16127,67.956543C58.211346,67.690201,58.352486,67.476219,58.584679,67.31459C58.763378,67.190529,58.951752,67.128494,59.149803,67.128494C59.15094,67.128494,59.152645,67.128494,59.154922,67.128494C59.214111,67.128494,59.274437,67.134186,59.335899,67.145569C59.585167,67.191093,59.790615,67.307762,59.95224,67.495567C60.115005,67.683372,60.196392,67.904755,60.196392,68.159714L60.196392,69.219955C60.196392,69.287109,60.173058,69.344025,60.126392,69.390686C60.079723,69.436218,60.023384,69.458984,59.957367,69.458984L56.940536,69.458984C56.860863,69.458984,56.797691,69.427681,56.751026,69.365082C56.71574,69.31955,56.698097,69.272316,56.698097,69.223373C56.699238,69.186951,56.708912,69.149963,56.727123,69.112396C56.770374,69.022476,56.841511,68.977524,56.940536,68.977524L58.142487,68.977524L58.142487,68.55069L56.812485,67.708984C56.754436,67.675972,56.719151,67.624184,56.706631,67.553619C56.703217,67.535408,56.701508,67.518333,56.701508,67.502396C56.701508,67.45118,56.716305,67.405083,56.745899,67.364105C56.799397,67.294678,56.860291,67.259964,56.928581,67.259964C56.972973,67.259964,57.020206,67.274185,57.07029,67.302643L58.156147,67.988983L58.16127,67.956543zM59.714928,68.977516L59.714928,68.135811C59.698994,67.955971,59.620457,67.814835,59.479313,67.712402C59.385979,67.645248,59.285816,67.611664,59.178825,67.611664C59.123055,67.611664,59.065006,67.620773,59.004681,67.638985C58.890858,67.673126,58.798664,67.739716,58.728096,67.838737C58.657528,67.936623,58.622246,68.043617,58.622246,68.159714L58.622246,68.977516L59.714928,68.977516z"/>
    <path transform="matrix(1,0,0,-1,0,0)" style="stroke:none;fill:#000000;fill-rule:evenodd" d="M56.94566,70.310936C56.789722,70.534027,56.711758,70.771339,56.711758,71.022888C56.712894,71.038818,56.713463,71.055328,56.713463,71.072403C56.724846,71.342155,56.822731,71.589149,57.007122,71.81337C57.19265,72.036461,57.462975,72.157684,57.818096,72.177032L57.852245,72.177032L59.957367,72.177032C59.991512,72.177032,60.022243,72.170776,60.049561,72.158249C60.148586,72.112724,60.198097,72.042725,60.198097,71.94825C60.198097,71.930038,60.19582,71.909554,60.191269,71.886787C60.166229,71.759308,60.088261,71.695564,59.957367,71.695564L57.852245,71.695572C57.590454,71.679634,57.394684,71.564674,57.264927,71.350693C57.202324,71.248253,57.171024,71.142967,57.171024,71.034836C57.171024,70.917603,57.208015,70.798088,57.282001,70.6763C57.344601,70.57045,57.425415,70.49305,57.524441,70.444107C57.623463,70.394028,57.732731,70.364433,57.852245,70.355324L59.957367,70.355324C59.977856,70.355324,59.993221,70.354187,60.003464,70.351913C60.130943,70.328003,60.194683,70.254593,60.194683,70.131668C60.194683,70.119148,60.194115,70.106628,60.192974,70.094101C60.179317,69.94841,60.10078,69.875565,59.957367,69.875565L57.852245,69.875572L57.818096,69.875572C57.761189,69.878983,57.727039,69.881264,57.71566,69.882401C57.368504,69.930206,57.111839,70.073051,56.94566,70.310936z"/>
    <path transform="matrix(1,0,0,-1,0,0)" style="stroke:none;fill:#000000;fill-rule:evenodd" d="M59.780891,74.59008C59.793411,74.749428,59.873085,74.829102,60.019917,74.829102C60.167881,74.829102,60.248695,74.749428,60.262356,74.59008L60.262356,72.857147C60.249832,72.698944,60.169022,72.619835,60.019917,72.619835C59.871948,72.619835,59.792274,72.698944,59.780891,72.857147L59.780891,73.482033L57.004795,73.482033C56.845444,73.508209,56.76577,73.590157,56.76577,73.727882C56.76577,73.729019,56.76577,73.730728,56.76577,73.733002C56.768047,73.874146,56.847721,73.950974,57.004795,73.963493L59.780891,73.963493L59.780891,74.59008z"/>
    <path transform="matrix(1,0,0,-1,0,0)" style="stroke:none;fill:#000000;fill-rule:evenodd" d="M58.167477,75.966171C58.249428,75.809097,58.341053,75.691299,58.442356,75.612762C58.544792,75.533081,58.656338,75.493248,58.776989,75.493248C58.924957,75.493248,59.050728,75.548454,59.154305,75.658859C59.259022,75.768127,59.311378,75.906418,59.311378,76.073738C59.311378,76.25016,59.256176,76.398125,59.145767,76.517639C59.035362,76.637154,58.9039,76.696907,58.751377,76.696907C58.662598,76.696907,58.575523,76.673576,58.490158,76.626907C58.404793,76.579102,58.309185,76.509102,58.203331,76.416908C58.107719,76.61496,57.997314,76.763489,57.872112,76.862518C57.746906,76.96154,57.607475,77.011055,57.453819,77.011055C57.264874,77.011055,57.095852,76.93821,56.946743,76.792519C56.797638,76.646828,56.723087,76.45504,56.723087,76.217148C56.723087,75.937149,56.835201,75.698128,57.059429,75.500076C56.895527,75.353249,56.777721,75.225204,56.706013,75.115936L56.951866,74.909348C57.049751,75.045929,57.177803,75.176254,57.336014,75.300323C57.47715,75.206985,57.657558,75.132431,57.877232,75.07666L57.943817,75.395935C57.803818,75.430077,57.687153,75.469345,57.593819,75.513733L58.167477,75.966171zM58.674549,76.358856C58.718941,76.373657,58.755363,76.381058,58.783817,76.381058C58.864632,76.381058,58.930649,76.352028,58.981865,76.293983C59.033085,76.235931,59.058697,76.168205,59.058697,76.090813C59.058697,76.014549,59.031948,75.948532,58.978451,75.892761C58.926094,75.835846,58.856663,75.807396,58.770161,75.807396C58.691624,75.807396,58.621624,75.82959,58.560158,75.873978C58.498695,75.917236,58.43325,76.00032,58.363819,76.123245C58.527721,76.265526,58.631298,76.344063,58.674549,76.358856zM57.744061,76.573982C57.656418,76.64341,57.56707,76.678131,57.476013,76.678131C57.364468,76.678131,57.25634,76.636017,57.151623,76.551788C57.048046,76.466415,56.996258,76.353737,56.996258,76.213737C56.996258,76.121544,57.024712,76.027069,57.081623,75.930321C57.138535,75.833572,57.212517,75.754471,57.303574,75.693008L58.003574,76.256416C57.919346,76.397552,57.832844,76.50341,57.744061,76.573982z"/>
    <path transform="matrix(1,0,0,-1,0,0)" style="stroke:none;fill:#000000;fill-rule:evenodd" d="M60.019917,79.462761C60.179264,79.475281,60.260078,79.552681,60.262356,79.694954L60.262356,79.701782C60.262356,79.839508,60.181541,79.920319,60.019917,79.944221L57.001377,79.944221C56.852272,79.922592,56.773167,79.841782,56.764061,79.701782L56.764061,77.888611C56.774307,77.72699,56.853413,77.646179,57.001377,77.646179C57.143654,77.646179,57.2239,77.726418,57.242111,77.886902L57.240402,79.462761L60.019917,79.462761z"/>
    <path transform="matrix(1,0,0,-1,0,0)" style="stroke:none;fill:#000000;fill-rule:evenodd" d="M60.019917,82.245689C60.179264,82.258209,60.260078,82.335602,60.262356,82.477882L60.262356,82.484711C60.262356,82.622437,60.181541,82.703247,60.019917,82.72715L57.001377,82.72715C56.852272,82.705521,56.773167,82.62471,56.764061,82.484711L56.764061,80.671539C56.774307,80.509918,56.853413,80.4291,57.001377,80.4291C57.143654,80.4291,57.2239,80.509346,57.242111,80.66983L57.240402,82.245689L60.019917,82.245689z"/>
    <path transform="matrix(1,0,0,-1,0,0)" style="stroke:none;fill:#000000;fill-rule:evenodd" d="M57.011623,83.579102C56.855686,83.802193,56.777721,84.039505,56.777721,84.291054C56.778858,84.306992,56.779427,84.323494,56.779427,84.340561C56.79081,84.610321,56.888695,84.857315,57.073086,85.081543C57.258614,85.304626,57.528938,85.42585,57.88406,85.445198L57.918209,85.445198L60.023331,85.445198C60.057476,85.445198,60.088207,85.438934,60.115524,85.426422C60.21455,85.38089,60.264061,85.31089,60.264061,85.216415C60.264061,85.198204,60.261784,85.177719,60.257233,85.154953C60.232193,85.027473,60.154224,84.963737,60.023331,84.963737L57.918209,84.963737C57.656418,84.9478,57.460648,84.83284,57.330891,84.618858C57.268288,84.516418,57.236988,84.411133,57.236988,84.303001C57.236988,84.185768,57.273979,84.066254,57.347965,83.944466C57.410564,83.838615,57.491379,83.761215,57.590405,83.712273C57.689426,83.662193,57.798695,83.632599,57.918209,83.623489L60.023331,83.623489C60.043819,83.623489,60.059185,83.622353,60.069427,83.620079C60.196907,83.596176,60.260647,83.522758,60.260647,83.399834C60.260647,83.387314,60.260078,83.374794,60.258938,83.362274C60.245281,83.216583,60.166744,83.143738,60.023331,83.143738L57.918209,83.143738L57.88406,83.143738C57.827152,83.147148,57.793003,83.149429,57.781624,83.150566C57.434467,83.198372,57.177803,83.341217,57.011623,83.579102z"/>
    <path transform="matrix(1,0,0,-1,0,0)" style="stroke:none;fill:#000000;fill-rule:evenodd" d="M58.251133,86.730637L58.252842,86.698196C58.265362,86.495598,58.325119,86.315186,58.43211,86.156982C58.540241,85.998764,58.689346,85.879257,58.879429,85.798447C59.000076,85.747223,59.123005,85.721611,59.248207,85.721611C59.369995,85.721611,59.493492,85.746086,59.618694,85.795029C59.87138,85.892914,60.052925,86.059662,60.16333,86.295273C60.219101,86.418198,60.25211,86.552505,60.262356,86.698196L60.262356,86.730637L60.262356,87.802826L60.262356,87.818192C60.244144,87.95137,60.164467,88.026489,60.023331,88.043564L57.0065,88.043564C56.846012,88.024216,56.76577,87.94397,56.76577,87.802826C56.76577,87.661697,56.846012,87.580879,57.0065,87.560394L58.251133,87.560394L58.251133,86.730637zM58.734306,87.560394L58.734306,86.730637C58.734306,86.600883,58.777557,86.486488,58.864063,86.387466C58.950565,86.287308,59.058697,86.228683,59.188454,86.211609C59.21463,86.208199,59.23967,86.20649,59.263573,86.20649C59.389915,86.20649,59.503166,86.250313,59.603329,86.337952C59.721703,86.442673,59.780891,86.573563,59.780891,86.730637L59.780891,87.560394L58.734306,87.560394z"/>
    <path transform="matrix(1,0,0,-1,0,0)" style="stroke:none;fill:#000000;fill-rule:evenodd" d="M70.616745,55.731415C70.870728,55.770763,70.997711,55.898651,70.997711,56.115074L70.997711,56.125801C70.994141,56.349377,70.867149,56.470112,70.616745,56.487999L65.873322,56.487999C65.626495,56.470112,65.501297,56.34938,65.497711,56.125801C65.497711,56.122227,65.497711,56.119545,65.497711,56.117752C65.497711,55.899544,65.622925,55.770763,65.873322,55.731415L67.947227,55.731415L68.607224,55.047268L65.706985,53.577023C65.558533,53.491169,65.484299,53.386536,65.484299,53.263119C65.484299,53.207672,65.498611,53.149544,65.527229,53.08873C65.596985,52.943851,65.707878,52.871414,65.859909,52.871414C65.917145,52.871414,65.979752,52.881248,66.047714,52.900925L69.154541,54.475803L70.34845,53.233608C70.441452,53.147755,70.532677,53.104828,70.622108,53.104828C70.706177,53.104828,70.788452,53.143284,70.868935,53.220196C70.954788,53.302471,70.998611,53.391903,71.000397,53.488487C71.000397,53.574341,70.965523,53.665558,70.895767,53.762142L68.998932,55.731415L70.616745,55.731415z"/>
    <path transform="matrix(1,0,0,-1,0,0)" style="stroke:none;fill:#000000;fill-rule:evenodd" d="M67.799667,58.500195C67.878372,58.081657,68.100159,57.745396,68.465034,57.491413C68.74585,57.296452,69.041862,57.198971,69.353081,57.198971C69.354874,57.198971,69.357559,57.198971,69.36113,57.198971C69.45414,57.198971,69.548935,57.207916,69.645523,57.225803C70.037231,57.297348,70.360077,57.480682,70.614059,57.775803C70.869827,58.070927,70.997711,58.418812,70.997711,58.819458L70.997711,60.485561C70.997711,60.591087,70.961052,60.680519,70.887718,60.753853C70.814384,60.825397,70.725845,60.861168,70.622108,60.861168L65.881378,60.861168C65.756172,60.861168,65.656906,60.811981,65.583572,60.713608C65.528122,60.642063,65.500397,60.567837,65.500397,60.490925C65.50219,60.433689,65.517395,60.375561,65.546005,60.316536C65.613976,60.175236,65.725769,60.104584,65.881378,60.104584L67.770157,60.104584L67.770157,59.433853L65.680161,58.111172C65.588936,58.059299,65.533493,57.977917,65.513809,57.86702C65.508453,57.838406,65.505768,57.811577,65.505768,57.786537C65.505768,57.706051,65.529022,57.63361,65.575516,57.569218C65.659592,57.460114,65.75528,57.405563,65.862595,57.405563C65.93235,57.405563,66.006577,57.427921,66.085281,57.472633L67.791618,58.551167L67.799667,58.500195zM70.241135,60.104584L70.241135,58.781898C70.216095,58.499302,70.092674,58.277512,69.870888,58.116535C69.72422,58.011009,69.566818,57.958244,69.398697,57.958244C69.31105,57.958244,69.219833,57.972553,69.125031,58.001171C68.946167,58.054829,68.801292,58.159462,68.690399,58.315071C68.579506,58.468891,68.524063,58.637024,68.524063,58.819462L68.524063,60.104584L70.241135,60.104584z"/>
    <path transform="matrix(1,0,0,-1,0,0)" style="stroke:none;fill:#000000;fill-rule:evenodd" d="M67.536743,61.601658C67.407959,61.574829,67.282761,61.561417,67.161133,61.561417C66.964386,61.561417,66.774788,61.595398,66.592346,61.663364C66.299011,61.774261,66.0504,61.965641,65.846497,62.237511C65.644379,62.50938,65.529907,62.846535,65.503082,63.248974L65.503082,63.257023L65.503082,64.684341C65.533493,64.904343,65.657799,65.031334,65.876007,65.065315L70.616745,65.065315C70.838531,65.034912,70.965523,64.907913,70.997711,64.684341L70.997711,63.018242C70.969101,62.678406,70.866257,62.39312,70.689178,62.162388C70.512108,61.929871,70.29837,61.768894,70.047958,61.679462C69.903084,61.627594,69.753738,61.601658,69.599915,61.601658C69.592758,61.601658,69.586502,61.601658,69.581131,61.601658C69.475601,61.601658,69.366501,61.615074,69.253815,61.641903C68.971207,61.706291,68.711868,61.864586,68.475769,62.116779C68.186005,61.841331,67.873001,61.669624,67.536743,61.601658zM68.913086,64.306046L68.913086,63.010193C68.936333,62.788406,69.01593,62.623852,69.151863,62.516537C69.286011,62.411007,69.4291,62.357349,69.581131,62.35556C69.742111,62.35556,69.888779,62.412796,70.021133,62.527267C70.14991,62.638161,70.221458,62.801819,70.235764,63.018242L70.235764,64.306046L68.913086,64.306046zM68.15918,64.306046L68.15918,63.224827C68.118042,62.911819,67.9991,62.680195,67.802353,62.529949C67.614548,62.385071,67.41333,62.312634,67.198692,62.312634L67.17186,62.312634C66.946495,62.319786,66.741699,62.402958,66.557472,62.562145C66.373245,62.721333,66.274872,62.952957,66.262352,63.257023L66.262352,64.306046L68.15918,64.306046z"/>
    <path transform="matrix(1,0,0,-1,0,0)" style="stroke:none;fill:#000000;fill-rule:evenodd" d="M70.812599,78.44239C70.93959,78.522881,71.003082,78.618576,71.003082,78.729462C71.003082,78.768814,70.995041,78.809952,70.978943,78.852882C70.919914,79.017433,70.797394,79.112228,70.611374,79.137268L65.873329,79.137268C65.622925,79.099709,65.497719,78.974503,65.497719,78.761658C65.497719,78.547028,65.622925,78.420036,65.873329,78.380684L69.288696,78.380684L65.674789,76.127029C65.556747,76.050117,65.497719,75.950851,65.497719,75.829224L65.497719,75.813126C65.497719,75.779144,65.503082,75.742477,65.513817,75.703125C65.563904,75.522476,65.681946,75.432144,65.867966,75.432144L65.873329,75.432144L70.611374,75.432144C70.861786,75.45182,70.988777,75.574341,70.992355,75.799706C70.992355,75.803284,70.992355,75.805077,70.992355,75.805077C70.992355,76.026863,70.865364,76.154747,70.611374,76.188736L67.193329,76.188736L70.812599,78.44239z"/>
    <path transform="matrix(1,0,0,-1,0,0)" style="stroke:none;fill:#000000;fill-rule:evenodd" d="M70.616745,79.899216C70.870728,79.938568,70.997719,80.065559,70.997719,80.280197C70.997719,80.281982,70.997719,80.282883,70.997719,80.282883C70.997719,80.495728,70.870728,80.621826,70.616745,80.661171L65.873329,80.661171C65.622925,80.621826,65.497719,80.494827,65.497719,80.280197C65.497719,80.278404,65.497719,80.277512,65.497719,80.277512C65.497719,80.064667,65.622925,79.938568,65.873329,79.899216L70.616745,79.899216z"/>
    <path transform="matrix(1,0,0,-1,0,0)" style="stroke:none;fill:#000000;fill-rule:evenodd" d="M70.616745,84.108734C70.870728,84.148087,70.997719,84.27597,70.997719,84.492393L70.997719,84.503128C70.994141,84.7267,70.867157,84.847427,70.616745,84.865318L65.873329,84.865318C65.626495,84.847427,65.501297,84.7267,65.497719,84.503128C65.497719,84.499542,65.497719,84.496864,65.497719,84.495071C65.497719,84.276863,65.622925,84.148087,65.873329,84.108734L67.947235,84.108734L68.607231,83.424591L65.706985,81.954346C65.558533,81.868484,65.484306,81.763855,65.484306,81.640442C65.484306,81.584991,65.498611,81.526863,65.527237,81.466049C65.596985,81.321167,65.707886,81.248734,65.859917,81.248734C65.917152,81.248734,65.979752,81.258568,66.047722,81.278244L69.154549,82.853119L70.34845,81.610931C70.44146,81.52507,70.532684,81.482147,70.622116,81.482147C70.706177,81.482147,70.788452,81.520599,70.868942,81.597511C70.954788,81.679787,70.998611,81.769218,71.000404,81.865807C71.000404,81.95166,70.96553,82.042877,70.895767,82.139465L68.99894,84.108734L70.616745,84.108734z"/>
    <path transform="matrix(1,0,0,-1,0,0)" style="stroke:none;fill:#000000;fill-rule:evenodd" d="M67.799667,86.877518C67.878372,86.458977,68.100159,86.122719,68.465042,85.868736C68.74585,85.673775,69.04187,85.576294,69.353088,85.576294C69.354874,85.576294,69.357559,85.576294,69.36113,85.576294C69.454147,85.576294,69.548935,85.585236,69.645523,85.603119C70.037231,85.674667,70.360077,85.858002,70.614059,86.153122C70.869835,86.448242,70.997719,86.796127,70.997719,87.196785L70.997719,88.862885C70.997719,88.968407,70.96106,89.057838,70.887726,89.131172C70.814392,89.202713,70.725845,89.238495,70.622116,89.238495L65.881378,89.238495C65.75618,89.238495,65.656906,89.189301,65.583572,89.090927C65.528122,89.019379,65.500404,88.94516,65.500404,88.86824C65.502197,88.811005,65.517395,88.752884,65.546013,88.693855C65.613983,88.552551,65.725769,88.481903,65.881378,88.481903L67.770157,88.481903L67.770157,87.811172L65.680161,86.488487C65.588943,86.436615,65.533493,86.35524,65.513817,86.244339C65.508453,86.215729,65.505768,86.188896,65.505768,86.163857C65.505768,86.083366,65.529022,86.010925,65.575523,85.946541C65.659592,85.837433,65.75528,85.782883,65.862595,85.782883C65.932358,85.782883,66.006577,85.805237,66.085281,85.849953L67.791626,86.92849L67.799667,86.877518zM70.241135,88.481903L70.241135,87.159225C70.216095,86.876617,70.092682,86.654831,69.870895,86.493851C69.724228,86.388329,69.566826,86.335564,69.398697,86.335564C69.31105,86.335564,69.219833,86.349869,69.125038,86.378487C68.946175,86.432144,68.8013,86.536781,68.690399,86.69239C68.579514,86.846214,68.524063,87.014343,68.524063,87.196785L68.524063,88.481903L70.241135,88.481903z"/>
    <path transform="matrix(1,0,0,-1,0,0)" style="stroke:none;fill:#000000;fill-rule:evenodd" d="M66.511871,90.89846L65.752602,90.622116C65.582687,90.516586,65.497719,90.38781,65.497719,90.235779L65.497719,90.230408L65.527237,90.141876C65.573738,89.977325,65.685524,89.89505,65.862595,89.89505C65.907318,89.89505,65.955605,89.900406,66.007477,89.911148L70.7509,91.630898C70.913658,91.689926,70.995941,91.807968,70.997726,91.985046L70.997726,91.998459C70.997726,92.000244,70.997726,92.001144,70.997726,92.001144C70.845688,92.210411,70.763412,92.322205,70.7509,92.33651C70.523743,92.558296,69.734955,92.845367,68.384552,93.197723C68.23967,93.235291,67.446426,93.510742,66.004791,94.024071L65.859924,94.064316C65.84024,94.067886,65.822357,94.069679,65.806259,94.069679C65.690002,94.069679,65.601463,93.993668,65.540649,93.841629C65.520981,93.793335,65.511139,93.742363,65.511139,93.688705C65.511139,93.55098,65.5952,93.439194,65.763336,93.35334L66.511871,93.085045L66.511871,90.89846zM67.265778,92.808701L67.265778,91.172119L69.519432,91.987732L67.265778,92.808701z"/>
    <path transform="matrix(1,0,0,-1,0,0)" style="stroke:none;fill:#000000;fill-rule:evenodd" d="M67.837234,95.418396L67.83992,95.367416C67.859589,95.049042,67.953491,94.765549,68.121628,94.516937C68.29155,94.268311,68.525856,94.080505,68.824554,93.953522C69.014145,93.873032,69.207321,93.832787,69.404068,93.832787C69.595444,93.832787,69.789513,93.871246,69.986259,93.948151C70.383331,94.101974,70.668617,94.364006,70.842117,94.734253C70.929756,94.927414,70.981628,95.138474,70.997726,95.367416L70.997726,95.418396L70.997726,97.103271L70.997726,97.127419C70.969101,97.336685,70.843903,97.454742,70.622116,97.481567L65.881378,97.481567C65.629189,97.451157,65.50309,97.325058,65.50309,97.103271C65.50309,96.881485,65.629189,96.754494,65.881378,96.722298L67.837234,96.722298L67.837234,95.418396zM68.596504,96.722298L68.596504,95.418396C68.596504,95.214493,68.664474,95.034737,68.800407,94.879128C68.93634,94.721725,69.106262,94.629616,69.310165,94.602783C69.351303,94.59742,69.390656,94.594742,69.428207,94.594742C69.626747,94.594742,69.804718,94.663597,69.962112,94.801323C70.148132,94.965874,70.241135,95.17157,70.241135,95.418396L70.241135,96.722298L68.596504,96.722298z"/>
    <path transform="matrix(1,0,0,-1,0,0)" style="stroke:none;fill:#000000;fill-rule:evenodd" d="M66.898209,72.188484L66.839188,72.218002C66.570892,72.344994,66.387558,72.518486,66.289185,72.738487C66.26236,72.797516,66.24894,72.855644,66.24894,72.912872C66.24894,73.072067,66.349998,73.230354,66.552109,73.387756C66.943817,73.697189,67.402603,73.868896,67.928452,73.902878C68.021461,73.908241,68.112679,73.910927,68.20211,73.910927C68.6278,73.910927,69.029343,73.844742,69.406746,73.712387C69.88073,73.547836,70.15081,73.30101,70.216988,72.971901C70.224144,72.936127,70.227722,72.89946,70.227722,72.8619C70.227722,72.581085,69.997879,72.347672,69.538208,72.161659C69.420158,72.095474,69.348618,72.001579,69.323578,71.879951C69.319992,71.854912,69.317314,71.830765,69.315521,71.80751C69.315521,71.712715,69.355774,71.624176,69.436256,71.541901C69.504227,71.47393,69.585602,71.439949,69.680405,71.439949C69.734062,71.439949,69.791298,71.450684,69.852112,71.472145L69.892349,71.493607L69.929916,71.509705L69.972839,71.531166C70.359184,71.724342,70.659668,72.015884,70.874306,72.405807C70.96553,72.570358,71.011139,72.737595,71.011139,72.907516L71.011139,72.918243C71.011139,73.145401,70.932434,73.375237,70.77504,73.607758C70.549667,73.936859,70.244713,74.184586,69.860161,74.350929C69.477394,74.51548,69.073166,74.613853,68.647476,74.646049C68.525848,74.654991,68.406013,74.659462,68.287964,74.659462C67.987473,74.659462,67.692352,74.630844,67.402603,74.573608C66.994797,74.493118,66.655853,74.369705,66.385773,74.203369C65.818771,73.852798,65.528122,73.419952,65.513817,72.904831C65.513817,72.892303,65.512924,72.880676,65.511139,72.869949C65.511139,72.370926,65.799995,71.951492,66.377716,71.611656L66.417969,71.587509L66.458206,71.566048L66.498451,71.547264L66.538696,71.525803L66.578941,71.504341L66.619186,71.485558L66.662109,71.466782L66.731865,71.434586L68.09211,71.434586C68.195847,71.434586,68.284386,71.472145,68.357719,71.547264C68.432846,71.620598,68.470398,71.709137,68.470398,71.812881L68.470398,72.802879L68.470398,72.827026L68.465042,72.851166C68.43821,73.069382,68.313904,73.178482,68.09211,73.178482C67.870323,73.178482,67.746017,73.069382,67.719185,72.851166L67.716499,72.827026L67.716499,72.188484L66.898209,72.188484z"/>
    <path transform="matrix(1,0,0,-1,0,0)" style="stroke:none;fill:#000000;fill-rule:evenodd" d="M143.964539,21.425926C144.014618,21.159588,144.155762,20.945606,144.387955,20.783978C144.56665,20.659912,144.755035,20.597878,144.953079,20.597878C144.954208,20.597878,144.955917,20.597878,144.958191,20.597878C145.01738,20.597878,145.077713,20.603569,145.139175,20.614956C145.388443,20.660484,145.593887,20.777149,145.755524,20.964954C145.918274,21.152756,145.999664,21.374138,145.999664,21.629097L145.999664,22.689342C145.999664,22.7565,145.976334,22.813408,145.929657,22.860077C145.882996,22.905605,145.82666,22.928368,145.760635,22.928368L142.743805,22.928368C142.664139,22.928368,142.600967,22.897068,142.554291,22.834465C142.519012,22.788937,142.501373,22.741699,142.501373,22.692757C142.502502,22.656334,142.512177,22.619343,142.530396,22.581783C142.573639,22.491863,142.644791,22.446907,142.743805,22.446907L143.945755,22.446907L143.945755,22.020073L142.615753,21.178368C142.557709,21.145359,142.52243,21.093571,142.509903,21.023003C142.506485,21.004791,142.504791,20.987717,142.504791,20.971783C142.504791,20.920563,142.519577,20.874466,142.549179,20.833488C142.602676,20.764057,142.663559,20.729343,142.731857,20.729343C142.776245,20.729343,142.823486,20.743568,142.873566,20.772026L143.959412,21.458366L143.964539,21.425926zM145.518204,22.446907L145.518204,21.605198C145.502258,21.425362,145.423721,21.284222,145.282593,21.181782C145.189255,21.114624,145.089096,21.081047,144.982101,21.081047C144.926331,21.081047,144.868286,21.090153,144.807953,21.108368C144.694138,21.142513,144.601944,21.209099,144.531372,21.308125C144.4608,21.40601,144.425522,21.513,144.425522,21.629097L144.425522,22.446907L145.518204,22.446907z"/>
    <path transform="matrix(1,0,0,-1,0,0)" style="stroke:none;fill:#000000;fill-rule:evenodd" d="M150.589417,19.882378L150.589417,18.803352C150.565521,18.641727,150.484695,18.560913,150.346985,18.560913C150.208115,18.560913,150.127304,18.641727,150.104538,18.803352L150.104538,19.882378L148.982834,19.882381L148.982834,18.467014C148.958923,18.306526,148.878693,18.226284,148.742096,18.226284C148.605515,18.226284,148.525848,18.306526,148.503082,18.467014L148.503082,20.119698C148.521286,20.261974,148.602097,20.342785,148.745514,20.362137L151.760635,20.362133C151.910889,20.340508,151.990555,20.259693,151.999664,20.119694L151.999664,18.46701C151.987137,18.306522,151.907471,18.22628,151.760635,18.22628C151.612671,18.22628,151.533569,18.306522,151.523315,18.46701L151.523315,19.882378L150.589417,19.882378z"/>
    <path transform="matrix(1,0,0,-1,0,0)" style="stroke:none;fill:#000000;fill-rule:evenodd" d="M148.639664,24.232622C148.546326,24.368069,148.499664,24.51376,148.499664,24.669695C148.499664,24.716362,148.503647,24.764166,148.511612,24.813108C148.571945,25.15799,148.75177,25.422056,149.051132,25.605307C149.350479,25.788559,149.683411,25.893843,150.049911,25.92116C150.114777,25.925711,150.179092,25.927988,150.242828,25.927988C150.54332,25.927988,150.836975,25.875631,151.12381,25.770918C151.472107,25.645712,151.725357,25.445387,151.883575,25.169941C151.960968,25.035631,151.999664,24.895061,151.999664,24.74823C151.999664,24.468231,151.893814,24.239452,151.682098,24.06189C151.471527,23.884327,151.242188,23.749447,150.994049,23.657253C150.740234,23.573029,150.479004,23.530914,150.210388,23.530914C150.144379,23.530914,150.078369,23.533192,150.012344,23.537743C149.673157,23.562786,149.363571,23.656116,149.083557,23.817745C148.909424,23.919048,148.761444,24.057339,148.639664,24.232622zM151.504547,24.656038C151.45787,24.481892,151.349182,24.347582,151.178436,24.253111C151.00885,24.15864,150.818207,24.095469,150.606491,24.063597C150.481293,24.045385,150.35495,24.035709,150.227463,24.034573C150.217224,24.034573,150.20755,24.034573,150.198441,24.034573C150.122192,24.034573,150.045349,24.038557,149.967957,24.046526C149.755112,24.06929,149.583237,24.110834,149.452347,24.171158C149.32486,24.229208,149.204224,24.31628,149.090393,24.432379C149.013,24.512054,148.974304,24.603111,148.974304,24.705549C148.974304,24.749939,148.981689,24.796606,148.99649,24.845549C149.038605,24.982134,149.123978,25.092541,149.252594,25.176769C149.382355,25.260998,149.527466,25.324169,149.687958,25.366283C149.849579,25.408398,150.012909,25.432299,150.177948,25.43799C150.213242,25.439127,150.246826,25.439697,150.278687,25.439697C150.400482,25.439697,150.507477,25.43116,150.59967,25.414085C150.759018,25.385632,150.95137,25.317907,151.176727,25.210915C151.4021,25.102785,151.514786,24.944004,151.514786,24.734573C151.514786,24.704981,151.511368,24.678802,151.504547,24.656038z"/>
    <path transform="matrix(1,0,0,-1,0,0)" style="stroke:none;fill:#000000;fill-rule:evenodd" d="M151.881866,28.333597C151.962677,28.384817,152.003082,28.445711,152.003082,28.516283C152.003082,28.541325,151.997955,28.567503,151.987717,28.594818C151.95015,28.699535,151.872192,28.759859,151.753815,28.775793L148.738693,28.775793C148.579346,28.75189,148.499664,28.672216,148.499664,28.536768C148.499664,28.400183,148.579346,28.31937,148.738693,28.294331L150.912109,28.294331L148.61235,26.860186C148.537231,26.811243,148.499664,26.748072,148.499664,26.670671L148.499664,26.660429C148.499664,26.638802,148.503082,26.615469,148.509903,26.590429C148.541779,26.47547,148.616898,26.41799,148.735275,26.41799L148.738693,26.41799L151.753815,26.41799C151.913162,26.43051,151.993973,26.508476,151.996246,26.651894C151.996246,26.654169,151.996246,26.655308,151.996246,26.655308C151.996246,26.796444,151.915436,26.877827,151.753815,26.899452L149.57869,26.899452L151.881866,28.333597z"/>
    <path transform="matrix(1,0,0,-1,0,0)" style="stroke:none;fill:#000000;fill-rule:evenodd" d="M149.674286,20.804329C149.608276,20.790672,149.541122,20.783844,149.472839,20.783844C149.435272,20.783844,149.397141,20.786118,149.358444,20.790672C149.203644,20.808884,149.060226,20.863522,148.928192,20.954578C148.797302,21.044498,148.696014,21.157749,148.624298,21.294334C148.546906,21.441162,148.508209,21.593113,148.508209,21.750187C148.508209,22.014252,148.541779,22.266365,148.608932,22.506527C148.677216,22.746689,148.858765,22.917992,149.153564,23.020424C149.191132,23.034084,149.229828,23.044327,149.269669,23.051155C149.309509,23.057987,149.349335,23.065956,149.389175,23.075058C149.407379,23.078472,149.425598,23.080181,149.443817,23.080181C149.504135,23.080181,149.558197,23.058556,149.606003,23.015301C149.656082,22.968636,149.681122,22.912865,149.681122,22.847984C149.681122,22.833191,149.679993,22.817257,149.677704,22.800182C149.6595,22.710262,149.603729,22.647659,149.510391,22.612373L149.495026,22.607254C149.248047,22.553761,149.100647,22.458721,149.052826,22.322136C149.009583,22.198071,148.987961,22.029045,148.987961,21.815063L148.987961,21.753601C148.987961,21.53051,149.092667,21.377422,149.302094,21.294331C149.35788,21.272705,149.414215,21.26189,149.47113,21.26189C149.510956,21.26189,149.551376,21.267014,149.592346,21.277256C149.692505,21.302296,149.776733,21.351807,149.845032,21.425789C149.873489,21.458797,149.900238,21.502052,149.925278,21.555546L150.271851,22.346039L150.285522,22.371643C150.422104,22.63002,150.616165,22.790508,150.867706,22.853111C150.953079,22.875874,151.036163,22.887257,151.116974,22.887257C151.118118,22.887257,151.119827,22.887257,151.122101,22.887257C151.31218,22.887257,151.488602,22.822948,151.651367,22.694328C151.88356,22.512215,151.999664,22.272053,151.999664,21.973843L151.994537,21.786034C151.983154,21.724571,151.971771,21.665382,151.960388,21.608475C151.95015,21.551563,151.931946,21.494083,151.905762,21.436035C151.838608,21.292622,151.746414,21.182781,151.629181,21.106522C151.511932,21.030266,151.385025,20.961403,151.248444,20.899937C151.235931,20.894249,151.22113,20.889126,151.204056,20.884575C151.184692,20.88002,151.165924,20.877743,151.147705,20.877743C151.113556,20.877743,151.081696,20.885708,151.052094,20.901646C151.023651,20.915306,151.002014,20.929531,150.987228,20.944328C150.972427,20.959126,150.962189,20.971077,150.956497,20.980179C150.926895,21.022293,150.912109,21.067253,150.912109,21.115059C150.912109,21.134407,150.914383,21.154327,150.91893,21.174816C150.934875,21.245384,150.980392,21.29945,151.055511,21.337013C151.121536,21.366604,151.18869,21.398476,151.256989,21.432621C151.326416,21.46563,151.383896,21.512295,151.429413,21.57262C151.447632,21.597664,151.460724,21.622135,151.468689,21.646034C151.477798,21.6688,151.487473,21.694408,151.497711,21.722862L151.516495,21.833843L151.521606,21.990913C151.519333,22.143433,151.453323,22.260101,151.323563,22.340912C151.257553,22.384163,151.184708,22.405788,151.105026,22.405788C151.085678,22.405788,151.065765,22.404652,151.045273,22.402374C150.91893,22.386444,150.821045,22.327255,150.751617,22.224815C150.748199,22.220264,150.744217,22.215141,150.73967,22.209454C150.736252,22.203758,150.732834,22.197498,150.729416,22.19067L150.720886,22.171886L150.712341,22.151402L150.364059,21.362621L150.352112,21.335304L150.336731,21.304573L150.321381,21.277256C150.315674,21.269287,150.309998,21.26075,150.304291,21.251644C150.299744,21.241402,150.294617,21.231728,150.28894,21.222618C150.140961,20.997257,149.936081,20.857826,149.674286,20.804329z"/>
    <path transform="matrix(1,0,0,-1,0,0)" style="stroke:none;fill:#000000;fill-rule:evenodd" d="M150.589417,44.892864L150.589417,43.813843C150.565521,43.652214,150.484711,43.571404,150.346985,43.571404C150.208115,43.571404,150.127304,43.652214,150.104538,43.813843L150.104553,44.892864L148.982834,44.892864L148.982834,43.477501C148.958923,43.317013,148.878693,43.236767,148.742096,43.236767C148.605515,43.236767,148.525848,43.317013,148.503082,43.477501L148.503082,45.13018C148.521301,45.272457,148.602112,45.353271,148.745514,45.37262L151.760651,45.37262C151.910889,45.350994,151.99057,45.27018,151.999664,45.13018L151.999664,43.477501C151.987152,43.317013,151.907471,43.236767,151.760635,43.236767C151.612671,43.236767,151.533569,43.317013,151.523315,43.477501L151.523331,44.892864L150.589417,44.892864z"/>
    <path transform="matrix(1,0,0,-1,0,0)" style="stroke:none;fill:#000000;fill-rule:evenodd" d="M148.639664,49.243111C148.546326,49.378555,148.499664,49.524246,148.499664,49.680183C148.499664,49.726849,148.503647,49.774654,148.511627,49.823597C148.571945,50.168476,148.751785,50.432541,149.051132,50.615791C149.350479,50.799042,149.683411,50.904327,150.049911,50.931644C150.114792,50.936199,150.179108,50.938477,150.242844,50.938477C150.543335,50.938477,150.836975,50.886116,151.12381,50.781403C151.472107,50.656197,151.725357,50.455872,151.883575,50.180428C151.960968,50.046116,151.999664,49.905548,151.999664,49.758717C151.999664,49.478718,151.893814,49.249939,151.682098,49.072376C151.471542,48.894817,151.242188,48.759937,150.994049,48.667744C150.740234,48.583515,150.479019,48.541401,150.210403,48.541401C150.144379,48.541401,150.078369,48.543678,150.01236,48.548233C149.673157,48.573273,149.363571,48.666603,149.083572,48.828232C148.909424,48.929531,148.761459,49.067825,148.639664,49.243111zM151.504547,49.666523C151.457886,49.492378,151.349182,49.358067,151.178452,49.263596C151.00885,49.169125,150.818207,49.105953,150.606506,49.074085C150.481293,49.055874,150.35495,49.0462,150.227478,49.045059C150.217224,49.045059,150.20755,49.045059,150.198456,49.045059C150.122192,49.045059,150.045364,49.049046,149.967957,49.057011C149.755112,49.079777,149.583252,49.121319,149.452347,49.181644C149.324875,49.239693,149.204224,49.326767,149.090393,49.442863C149.013,49.522541,148.974304,49.613598,148.974304,49.716034C148.974304,49.760426,148.981705,49.807091,148.99649,49.856037C149.038605,49.992622,149.123978,50.103027,149.252594,50.187256C149.382355,50.271484,149.527466,50.334652,149.687958,50.376766C149.849579,50.41888,150.012924,50.442783,150.177963,50.448475C150.213242,50.449612,150.246826,50.450184,150.278687,50.450184C150.400482,50.450184,150.507477,50.441647,150.59967,50.424572C150.759018,50.396118,150.95137,50.328392,151.176743,50.221401C151.4021,50.11327,151.514786,49.954491,151.514786,49.74506C151.514786,49.715466,151.511383,49.689285,151.504547,49.666523z"/>
    <path transform="matrix(1,0,0,-1,0,0)" style="stroke:none;fill:#000000;fill-rule:evenodd" d="M151.881866,53.344086C151.962677,53.395302,152.003082,53.4562,152.003082,53.526768C152.003082,53.551807,151.997955,53.577988,151.987717,53.605305C151.95015,53.710018,151.872192,53.770344,151.753815,53.786278L148.738693,53.786278C148.579346,53.762379,148.499664,53.682701,148.499664,53.547256C148.499664,53.410671,148.579346,53.329857,148.738693,53.304817L150.912109,53.304817L148.61235,51.87067C148.537231,51.821728,148.499664,51.758556,148.499664,51.681156L148.499664,51.670914C148.499664,51.649288,148.503082,51.625954,148.509918,51.600914C148.541779,51.485954,148.616913,51.428474,148.735275,51.428474L148.738693,51.428474L151.753815,51.428474C151.913162,51.440994,151.993973,51.518963,151.996246,51.662376C151.996246,51.664654,151.996246,51.665791,151.996246,51.665791C151.996246,51.806931,151.915436,51.888313,151.753815,51.909939L149.57869,51.909939L151.881866,53.344086z"/>
    <path transform="matrix(1,0,0,-1,0,0)" style="stroke:none;fill:#000000;fill-rule:evenodd" d="M149.674301,45.814816C149.608276,45.801159,149.541138,45.794327,149.472839,45.794327C149.435272,45.794327,149.397156,45.796604,149.358444,45.801159C149.203644,45.81937,149.060242,45.874004,148.928207,45.965061C148.797302,46.054977,148.696014,46.168232,148.624298,46.304817C148.546906,46.451645,148.508209,46.603596,148.508209,46.76067C148.508209,47.024734,148.541779,47.276848,148.608932,47.517014C148.677231,47.757175,148.858765,47.928474,149.153564,48.030914C149.191132,48.044571,149.229828,48.054817,149.269669,48.061646C149.309509,48.068474,149.349335,48.076443,149.389175,48.085548C149.407394,48.088963,149.425598,48.090672,149.443817,48.090672C149.504135,48.090672,149.558197,48.069046,149.606018,48.025791C149.656097,47.979126,149.681122,47.923355,149.681122,47.858475C149.681122,47.843678,149.679993,47.827744,149.677719,47.810669C149.6595,47.720753,149.603729,47.65815,149.510406,47.622864L149.495026,47.617744C149.248047,47.564247,149.100647,47.469208,149.052841,47.332623C149.009583,47.208557,148.987961,47.039532,148.987961,46.825546L148.987961,46.764084C148.987961,46.540997,149.092682,46.387905,149.302109,46.304817C149.35788,46.283192,149.414215,46.272377,149.47113,46.272377C149.510971,46.272377,149.551376,46.2775,149.592346,46.287743C149.692505,46.312782,149.776733,46.362297,149.845032,46.436279C149.873489,46.469288,149.900238,46.512539,149.925278,46.566036L150.271866,47.356522L150.285522,47.382133C150.422104,47.640507,150.61618,47.800995,150.867722,47.863598C150.953079,47.88636,151.036163,47.897743,151.116989,47.897743C151.118118,47.897743,151.119827,47.897743,151.122101,47.897743C151.312195,47.897743,151.488617,47.833435,151.651367,47.704819C151.883575,47.522705,151.999664,47.282539,151.999664,46.984329L151.994537,46.796524C151.98317,46.735062,151.971786,46.675873,151.960403,46.618965C151.950165,46.562054,151.931946,46.504574,151.905762,46.446526C151.838608,46.303108,151.746414,46.193272,151.629181,46.117012C151.511948,46.040752,151.38504,45.971889,151.248444,45.910427C151.235931,45.904736,151.22113,45.899612,151.204056,45.895061C151.184708,45.890507,151.165924,45.888229,151.14772,45.888229C151.113571,45.888229,151.081696,45.896198,151.052109,45.912132C151.023651,45.925793,151.002029,45.940018,150.987228,45.954815C150.972427,45.969612,150.962189,45.981564,150.956497,45.990669C150.92691,46.032784,150.912109,46.077744,150.912109,46.125549C150.912109,46.144897,150.914383,46.164818,150.918945,46.185303C150.934875,46.255875,150.980408,46.309937,151.055527,46.3475C151.121536,46.37709,151.18869,46.408962,151.256989,46.443108C151.326416,46.476116,151.383896,46.522785,151.429428,46.583111C151.447632,46.60815,151.460724,46.632622,151.468689,46.656525C151.477798,46.679287,151.487473,46.704899,151.497711,46.733353L151.516495,46.84433L151.521622,47.001404C151.519348,47.153923,151.453323,47.270588,151.323578,47.351402C151.257553,47.394653,151.184708,47.416279,151.105042,47.416279C151.085678,47.416279,151.065765,47.415142,151.045273,47.412865C150.918945,47.396931,150.821045,47.337746,150.751617,47.235306C150.748199,47.230751,150.744217,47.225632,150.73967,47.21994C150.736252,47.214249,150.732834,47.207985,150.729431,47.201157L150.720886,47.182377L150.712341,47.161888L150.364059,46.373108L150.352112,46.345795L150.336746,46.31506L150.321381,46.287743C150.315689,46.279778,150.309998,46.27124,150.304306,46.262135C150.299744,46.251888,150.294632,46.242214,150.28894,46.233109C150.140961,46.007744,149.936096,45.868313,149.674301,45.814816z"/>
    <path transform="matrix(1,0,0,-1,0,0)" style="stroke:none;fill:#000000;fill-rule:evenodd" d="M159.154785,21.43396C159.031372,21.342743,158.969666,21.239895,158.969666,21.125423L158.969666,21.109325C158.969666,20.99128,159.031372,20.882172,159.154785,20.782009L160.72966,19.861767L157.378693,19.861767C157.128281,19.824207,157.003082,19.698109,157.003082,19.483471C157.003082,19.478107,157.003082,19.475426,157.003082,19.475426C157.003082,19.267944,157.128281,19.144531,157.378693,19.105179L162.11673,19.105179C162.320633,19.121277,162.443161,19.211605,162.484299,19.376156C162.49324,19.411926,162.497711,19.445019,162.497711,19.475426C162.497711,19.598839,162.43689,19.708839,162.315277,19.805424L160.096497,21.109325L162.315277,22.399815C162.436905,22.496399,162.497711,22.607296,162.497711,22.732498L162.497711,22.748596C162.497711,22.777214,162.494141,22.805832,162.486984,22.83445C162.442261,23.00079,162.318848,23.091118,162.11673,23.105423L157.378693,23.105423C157.131866,23.08754,157.008453,22.965019,157.008453,22.737865C157.008453,22.734287,157.008453,22.732498,157.008453,22.732498C157.008453,22.503555,157.131866,22.374775,157.378693,22.346157L160.721619,22.348839L159.154785,21.43396z"/>
    <path transform="matrix(1,0,0,-1,0,0)" style="stroke:none;fill:#000000;fill-rule:evenodd" d="M162.11673,23.867374C162.370728,23.906723,162.497711,24.033716,162.497711,24.24835C162.497711,24.250141,162.497711,24.251036,162.497711,24.251036C162.497711,24.463879,162.370728,24.589977,162.11673,24.629328L157.373322,24.629328C157.122925,24.589977,156.997711,24.462984,156.997711,24.24835C156.997711,24.246563,156.997711,24.245668,156.997711,24.245668C156.997711,24.032824,157.122925,23.906723,157.373322,23.867374L162.11673,23.867374z"/>
    <path transform="matrix(1,0,0,-1,0,0)" style="stroke:none;fill:#000000;fill-rule:evenodd" d="M159.299667,26.641523C159.378357,26.222986,159.600159,25.886726,159.965027,25.632742C160.24585,25.437782,160.541855,25.340303,160.853073,25.340303C160.854858,25.340303,160.857544,25.340303,160.86113,25.340303C160.954132,25.340303,161.048935,25.349247,161.145523,25.367132C161.537231,25.438677,161.860077,25.622011,162.114059,25.917133C162.369827,26.212254,162.497711,26.560141,162.497711,26.960791L162.497711,28.626888C162.497711,28.732418,162.461044,28.821848,162.387711,28.895182C162.314377,28.966726,162.225845,29.002499,162.122101,29.002499L157.381378,29.002499C157.256165,29.002499,157.156891,28.95331,157.083557,28.854937C157.028122,28.783392,157.000397,28.709164,157.000397,28.632254C157.002182,28.575018,157.017395,28.51689,157.046005,28.457865C157.113968,28.316563,157.225769,28.245913,157.381378,28.245913L159.270157,28.245913L159.270157,27.575182L157.180145,26.252497C157.088928,26.200628,157.033478,26.119247,157.013809,26.008352C157.008453,25.979734,157.005768,25.952904,157.005768,25.927864C157.005768,25.847376,157.029022,25.774937,157.075516,25.710546C157.159576,25.60144,157.25528,25.546888,157.362595,25.546888C157.432343,25.546888,157.506577,25.569246,157.585266,25.613962L159.291611,26.692499L159.299667,26.641523zM161.741119,28.245913L161.741119,26.923231C161.716095,26.640629,161.592667,26.41884,161.37088,26.257864C161.224213,26.152336,161.066818,26.099571,160.898682,26.099571C160.81105,26.099571,160.719818,26.11388,160.625031,26.142498C160.446167,26.196157,160.301285,26.300791,160.190399,26.4564C160.079498,26.610222,160.024048,26.778351,160.024048,26.960791L160.024048,28.245913L161.741119,28.245913z"/>
    <path transform="matrix(1,0,0,-1,0,0)" style="stroke:none;fill:#000000;fill-rule:evenodd" d="M161.741119,32.898109C161.760803,33.148514,161.886002,33.27372,162.11673,33.27372C162.349258,33.27372,162.476257,33.148514,162.497711,32.898109L162.497711,30.174936C162.478043,29.926317,162.351044,29.80201,162.11673,29.80201C161.884216,29.80201,161.759018,29.926317,161.741119,30.174936L161.741119,31.156887L157.378693,31.156887C157.128281,31.198025,157.003082,31.326805,157.003082,31.54323C157.003082,31.545017,157.003082,31.547701,157.003082,31.551279C157.006653,31.773067,157.131866,31.893799,157.378693,31.913473L161.741119,31.913473L161.741119,32.898109z"/>
    <path transform="matrix(1,0,0,-1,0,0)" style="stroke:none;fill:#000000;fill-rule:evenodd" d="M162.395767,44.144936C162.46373,44.07518,162.497711,43.988434,162.497711,43.884693L162.497711,42.623718C162.497711,41.995911,162.211533,41.525505,161.639175,41.212498C161.066818,40.89949,160.437225,40.742985,159.750397,40.742985C159.063568,40.742985,158.433975,40.900383,157.861618,41.215183C157.289261,41.528191,157.003082,41.997704,157.003082,42.623718L157.003082,43.882011L157.003082,43.887379L157.01918,43.983963C157.063889,44.169979,157.185516,44.262989,157.384048,44.262989L162.122101,44.262985C162.122101,44.262985,162.130157,44.262985,162.14624,44.262985C162.264297,44.234367,162.347473,44.195019,162.395767,44.144936zM157.767715,43.509087L157.767715,42.583473C157.767715,42.222176,157.963562,41.944939,158.35527,41.751766C158.670074,41.596157,159.129745,41.518353,159.734299,41.518353L159.755768,41.518353C160.328125,41.518353,160.765442,41.609573,161.067719,41.792011C161.516663,42.063881,161.741119,42.341118,161.741119,42.623718L161.741119,43.509083L157.767715,43.509087z"/>
    <path transform="matrix(1,0,0,-1,0,0)" style="stroke:none;fill:#000000;fill-rule:evenodd" d="M157.38942,45.601768C157.144379,45.952339,157.021866,46.325264,157.021866,46.720551C157.023651,46.74559,157.024551,46.771523,157.024551,46.798355C157.042435,47.222256,157.196259,47.610386,157.486008,47.962746C157.777557,48.313313,158.202347,48.503799,158.760406,48.534206L158.814056,48.534206L162.122101,48.534206C162.175766,48.534206,162.22406,48.524368,162.266983,48.504692C162.422592,48.433147,162.500397,48.323151,162.500397,48.174694C162.500397,48.146076,162.496826,48.11388,162.48967,48.07811C162.450317,47.877785,162.327789,47.777622,162.122101,47.777622L158.814056,47.777622C158.402679,47.752579,158.095032,47.57193,157.891129,47.235672C157.792755,47.074696,157.743561,46.909248,157.743561,46.73933C157.743561,46.555099,157.801697,46.367298,157.917969,46.175915C158.016327,46.009571,158.143326,45.887947,158.298935,45.811035C158.454544,45.732338,158.626251,45.685833,158.814056,45.671524L162.122101,45.671524C162.154297,45.671524,162.178452,45.669735,162.19455,45.666157C162.394867,45.628597,162.495026,45.513229,162.495026,45.320061C162.495026,45.300385,162.494141,45.280708,162.492355,45.261036C162.470886,45.032093,162.347473,44.917622,162.122101,44.917622L158.814056,44.917622L158.760406,44.917622C158.670959,44.922985,158.61731,44.926563,158.599426,44.928352C158.053894,45.003475,157.650558,45.227947,157.38942,45.601768z"/>
    <path transform="matrix(1,0,0,-1,0,0)" style="stroke:none;fill:#000000;fill-rule:evenodd" d="M159.299667,50.546402C159.378372,50.127865,159.600159,49.791603,159.965027,49.537621C160.24585,49.342663,160.54187,49.245182,160.853088,49.245182C160.854874,49.245182,160.857559,49.245182,160.86113,49.245182C160.954132,49.245182,161.048935,49.254124,161.145523,49.272011C161.537231,49.343555,161.860077,49.52689,162.114059,49.82201C162.369827,50.117134,162.497711,50.465019,162.497711,50.865669L162.497711,52.531769C162.497711,52.637295,162.46106,52.726727,162.387726,52.80006C162.314392,52.871605,162.225845,52.907375,162.122101,52.907375L157.381378,52.907379C157.256165,52.907379,157.156906,52.858192,157.083572,52.759819C157.028122,52.688271,157.000397,52.614044,157.000397,52.537132C157.002197,52.479897,157.017395,52.421768,157.046005,52.362743C157.113983,52.221443,157.225769,52.150791,157.381378,52.150791L159.270157,52.150791L159.270157,51.480061L157.180161,50.157379C157.088928,50.105507,157.033493,50.024124,157.013809,49.913231C157.008453,49.884613,157.005768,49.857784,157.005768,49.832745C157.005768,49.752254,157.029022,49.679817,157.075531,49.615425C157.159592,49.506321,157.25528,49.451767,157.362595,49.451767C157.432343,49.451767,157.506577,49.474125,157.585281,49.518841L159.291626,50.597378L159.299667,50.546402zM161.741135,52.150791L161.741135,50.82811C161.716095,50.545509,161.592682,50.323719,161.37088,50.162743C161.224213,50.057213,161.066818,50.004448,160.898697,50.004448C160.81105,50.004448,160.719833,50.018761,160.625031,50.047379C160.446167,50.101036,160.3013,50.205669,160.190399,50.361279C160.079498,50.515102,160.024063,50.683231,160.024063,50.865669L160.024063,52.150791L161.741135,52.150791z"/>
    <path transform="matrix(1,0,0,-1,0,0)" style="stroke:none;fill:#000000;fill-rule:evenodd" d="M146.170654,96.942993C146.301544,96.942993,146.413086,96.896896,146.50528,96.804703C146.597473,96.712502,146.643585,96.600952,146.643585,96.470062C146.643585,96.340309,146.596909,96.229332,146.503571,96.137138C146.411377,96.044937,146.300415,95.99884,146.170654,95.99884C146.039764,95.99884,145.927643,96.045509,145.834305,96.13884C145.742111,96.231033,145.696014,96.341446,145.696014,96.470062C145.696014,96.599823,145.742111,96.711365,145.834305,96.804703C145.927643,96.896896,146.039764,96.942993,146.170654,96.942993zM145.965775,96.673233C146.022675,96.729004,146.090973,96.756897,146.170654,96.756897C146.25032,96.756897,146.318054,96.729004,146.373825,96.673233C146.429596,96.617462,146.457489,96.549744,146.457489,96.470062C146.457489,96.391525,146.429596,96.324371,146.373825,96.2686C146.318054,96.211685,146.25032,96.183235,146.170654,96.183235C146.090973,96.183235,146.022675,96.211685,145.965775,96.2686C145.908859,96.324371,145.880402,96.391525,145.880402,96.470062C145.880402,96.549744,145.908859,96.617462,145.965775,96.673233z"/>
    <path transform="matrix(1,0,0,-1,0,0)" style="stroke:none;fill:#000000;fill-rule:evenodd" d="M144.654556,99.471527C145.018784,99.646812,145.419434,99.735596,145.856506,99.737869L145.870163,99.737869C146.302689,99.737869,146.698776,99.652504,147.058456,99.481766C147.422684,99.309906,147.604797,99.050385,147.604797,98.703232C147.604797,98.448273,147.498947,98.239983,147.287231,98.078354C147.075531,97.916733,146.860413,97.804611,146.641876,97.74202C146.546265,97.715836,146.446106,97.693069,146.341385,97.673721C146.185455,97.644127,146.02211,97.629333,145.851379,97.629333C145.844559,97.629333,145.838287,97.629333,145.832596,97.629333C145.668701,97.629333,145.497971,97.643555,145.320404,97.672012C144.950485,97.728928,144.643738,97.865509,144.400162,98.081772C144.205536,98.254776,144.108215,98.455109,144.108215,98.682747C144.108215,99.032181,144.290329,99.295105,144.654556,99.471527zM146.889435,99.013962C146.761948,99.092499,146.616821,99.150551,146.454071,99.18811C146.291306,99.225677,146.126831,99.246162,145.960648,99.249573C145.931061,99.250717,145.902603,99.251282,145.87529,99.251282C145.747803,99.251282,145.641388,99.244453,145.556015,99.230797C145.45813,99.217133,145.331787,99.184692,145.176987,99.133476C145.023331,99.08226,144.890732,99.017944,144.77919,98.940552C144.668777,98.862015,144.605606,98.772667,144.589676,98.672501C144.588531,98.664536,144.587402,98.655998,144.586258,98.646896C144.586258,98.554703,144.667648,98.45681,144.830414,98.353233C144.966995,98.267868,145.140564,98.204132,145.351135,98.162018C145.513901,98.129005,145.67894,98.112503,145.846252,98.112503C145.896347,98.112503,145.946426,98.114212,145.996506,98.11763C146.216187,98.130142,146.42334,98.172256,146.617966,98.243965C146.812607,98.314537,146.962845,98.41925,147.068695,98.558113C147.098297,98.600227,147.115936,98.64006,147.121628,98.677628C147.121628,98.678764,147.121628,98.680466,147.121628,98.682747C147.121628,98.683884,147.121628,98.686729,147.121628,98.691284C147.094315,98.826729,147.016907,98.934296,146.889435,99.013962z"/>
    <path transform="matrix(1,0,0,-1,0,0)" style="stroke:none;fill:#000000;fill-rule:evenodd" d="M150.495407,98.007355L150.495407,99.214676L150.098083,99.214676L150.098083,98.007355L150.495407,98.007355z"/>
    <path transform="matrix(1,0,0,-1,0,0)" style="stroke:none;fill:#000000;fill-rule:evenodd" d="M150.48114,99.607605L150.48114,100.487839L151.361389,100.487839L151.361389,100.856628L150.48114,100.856628L150.48114,101.73687L150.112366,101.73687L150.112366,100.856628L149.232117,100.856628L149.232117,100.487846L150.112366,100.487839L150.112366,99.607605L150.48114,99.607605z"/>
    <path transform="matrix(1,0,0,-1,0,0)" style="stroke:none;fill:#000000;fill-rule:evenodd" d="M144.663086,101.679092C144.706345,101.664291,144.731384,101.655182,144.73822,101.651772C144.85318,101.609657,144.965286,101.55275,145.074554,101.481041C145.183823,101.408188,145.283981,101.330795,145.375046,101.24884C145.453583,101.177139,145.521866,101.096329,145.579926,101.006409C145.63797,100.915344,145.701141,100.828842,145.76944,100.746887C145.812683,100.694534,145.857635,100.645592,145.904312,100.600067C145.952118,100.553398,146.000488,100.507301,146.049438,100.461777C146.233826,100.292175,146.441544,100.207382,146.672607,100.207382C146.746582,100.207382,146.822281,100.215912,146.899673,100.232986C147.22406,100.303558,147.442032,100.498764,147.553574,100.818604C147.589996,100.924454,147.608215,101.028595,147.608215,101.131042C147.607071,101.289246,147.563828,101.441772,147.478455,101.5886C147.337311,101.832176,147.12674,101.979004,146.846741,102.029083C146.834229,102.033646,146.790985,102.037056,146.716995,102.039337C146.694229,102.040466,146.674316,102.041039,146.657242,102.041039C146.649261,102.041039,146.641876,102.041039,146.63504,102.041039C146.611145,102.041039,146.596344,102.039902,146.590652,102.037628C146.515533,102.027382,146.458618,101.990387,146.419922,101.926651C146.396027,101.887955,146.384064,101.846405,146.384064,101.802017C146.384064,101.774696,146.388611,101.746811,146.39772,101.718353C146.412521,101.669418,146.444962,101.629005,146.495041,101.597137C146.536011,101.570953,146.57756,101.557869,146.619675,101.557869C146.628784,101.557869,146.637878,101.558441,146.646988,101.55957C146.650406,101.55957,146.653824,101.56015,146.657242,101.561279C146.661789,101.561279,146.665771,101.561279,146.669189,101.561279C146.677155,101.561279,146.684555,101.561279,146.691376,101.561279C146.854156,101.561279,146.977646,101.488434,147.061874,101.342743C147.105118,101.267624,147.12674,101.193642,147.12674,101.120796C147.12674,101.04454,147.102844,100.968277,147.055038,100.892014C146.977646,100.771362,146.87236,100.705353,146.739197,100.69397C146.723251,100.691689,146.707886,100.690552,146.693085,100.690552C146.578125,100.690552,146.474548,100.731522,146.382355,100.813477C146.304962,100.885185,146.234955,100.95575,146.172363,101.025185C146.110901,101.093475,146.051712,101.169739,145.994797,101.253967C145.834305,101.491852,145.628296,101.695023,145.376755,101.86348C145.125198,102.030792,144.860001,102.143478,144.581146,102.201523C144.570892,102.203804,144.530487,102.211197,144.459915,102.223724C144.390488,102.235107,144.35463,102.240799,144.352356,102.240799C144.284058,102.240799,144.226593,102.217461,144.179916,102.170792C144.133255,102.122986,144.109924,102.065506,144.109924,101.998352L144.109924,100.441284C144.109924,100.287628,144.187881,100.208519,144.343826,100.203964L144.357483,100.203964C144.504303,100.203964,144.58284,100.280228,144.593094,100.432747L144.593094,101.699577C144.596497,101.699577,144.619843,101.692749,144.663086,101.679092z"/>
    <path transform="matrix(1,0,0,-1,0,0)" style="stroke:none;fill:#000000;fill-rule:evenodd" d="M131.518204,71.510918C131.530731,71.670273,131.610397,71.749947,131.757233,71.749947C131.905197,71.749947,131.986008,71.670273,131.999664,71.510918L131.999664,69.777992C131.987152,69.619781,131.906342,69.54068,131.757233,69.54068C131.609268,69.54068,131.529587,69.619781,131.518204,69.777992L131.518204,70.40287L128.742111,70.40287C128.582764,70.429047,128.503082,70.511002,128.503082,70.648727C128.503082,70.649864,128.503082,70.651573,128.503082,70.653847C128.505356,70.794983,128.585037,70.871811,128.742111,70.884331L131.518204,70.884331L131.518204,71.510918z"/>
    <path transform="matrix(1,0,0,-1,0,0)" style="stroke:none;fill:#000000;fill-rule:evenodd" d="M130.589432,73.880676L130.589432,72.801651C130.565521,72.640022,130.484711,72.559212,130.346985,72.559212C130.20813,72.559212,130.127319,72.640022,130.104553,72.801651L130.104553,73.880676L128.982849,73.880676L128.982849,72.465309C128.958939,72.304825,128.878693,72.224579,128.742111,72.224579C128.60553,72.224579,128.525848,72.304825,128.503082,72.465309L128.503082,74.117996C128.521301,74.260269,128.602112,74.34108,128.745529,74.360428L131.760651,74.360428C131.910889,74.338806,131.99057,74.257988,131.999664,74.117989L131.999664,72.465309C131.987152,72.304825,131.907471,72.224579,131.760651,72.224579C131.612671,72.224579,131.533569,72.304825,131.523331,72.465309L131.523331,73.880676L130.589432,73.880676z"/>
    <path transform="matrix(1,0,0,-1,0,0)" style="stroke:none;fill:#000000;fill-rule:evenodd" d="M130.589432,79.209213L130.589432,78.130188C130.565521,77.968559,130.484711,77.887749,130.346985,77.887749C130.20813,77.887749,130.127319,77.968559,130.104553,78.130188L130.104553,79.209213L128.982849,79.209213L128.982849,77.793846C128.958939,77.633362,128.878693,77.553116,128.742111,77.553116C128.60553,77.553116,128.525848,77.633362,128.503082,77.793846L128.503082,79.446533C128.521301,79.588806,128.602112,79.669617,128.745529,79.688965L131.760651,79.688965C131.910889,79.667343,131.99057,79.586525,131.999664,79.446526L131.999664,77.793846C131.987152,77.633354,131.907471,77.553116,131.760651,77.553116C131.612686,77.553116,131.533569,77.633362,131.523331,77.793846L131.523331,79.209213L130.589432,79.209213z"/>
    <path transform="matrix(1,0,0,-1,0,0)" style="stroke:none;fill:#000000;fill-rule:evenodd" d="M129.964554,80.969452C130.014633,80.70311,130.155762,80.489128,130.38797,80.327499C130.566666,80.203438,130.755035,80.141403,130.953094,80.141403C130.954224,80.141403,130.955933,80.141403,130.958206,80.141403C131.017395,80.141403,131.077728,80.147095,131.139191,80.158478C131.388458,80.20401,131.593903,80.320671,131.755524,80.508476C131.918289,80.696281,131.999664,80.917664,131.999664,81.172623L131.999664,82.232864C131.999664,82.300018,131.976334,82.356934,131.929672,82.403603C131.883011,82.449127,131.82666,82.471893,131.760651,82.471893L128.74382,82.471893C128.664139,82.471893,128.600967,82.440598,128.554306,82.377991C128.519028,82.332466,128.501373,82.285233,128.501373,82.236282C128.502518,82.19986,128.512192,82.162872,128.530396,82.125305C128.573654,82.035393,128.644791,81.990433,128.74382,81.990433L129.94577,81.990433L129.94577,81.563599L128.615768,80.721893C128.557724,80.688889,128.52243,80.6371,128.509918,80.566528C128.5065,80.548317,128.504791,80.531242,128.504791,80.515312C128.504791,80.464088,128.519592,80.417992,128.549179,80.377014C128.602676,80.307587,128.663574,80.272873,128.731873,80.272873C128.77626,80.272873,128.823486,80.287094,128.873566,80.315552L129.959427,81.001892L129.964554,80.969452zM131.518204,81.990433L131.518204,81.148727C131.502274,80.968887,131.423737,80.827751,131.282593,80.725311C131.18927,80.658157,131.089096,80.62458,130.982117,80.62458C130.926331,80.62458,130.868286,80.633682,130.807968,80.651894C130.694138,80.686043,130.601944,80.752625,130.531372,80.851654C130.460815,80.949539,130.425522,81.056526,130.425522,81.172623L130.425522,81.990433L131.518204,81.990433z"/>
    <path transform="matrix(1,0,0,-1,0,0)" style="stroke:none;fill:#000000;fill-rule:evenodd" d="M129.674301,74.802628C129.608292,74.788971,129.541138,74.782135,129.472839,74.782135C129.435272,74.782135,129.397156,74.784416,129.358444,74.788971C129.203659,74.807182,129.060242,74.861816,128.928207,74.952873C128.797318,75.042786,128.696014,75.156044,128.624298,75.292625C128.546906,75.439453,128.508209,75.591408,128.508209,75.748482C128.508209,76.012543,128.541779,76.264664,128.608948,76.504822C128.677231,76.74498,128.85878,76.916283,129.15358,77.018723C129.191132,77.032379,129.229828,77.042625,129.269669,77.049454C129.309509,77.05629,129.34935,77.064255,129.389191,77.073357C129.407394,77.076775,129.425613,77.078476,129.443817,77.078476C129.50415,77.078476,129.558212,77.056854,129.606018,77.013603C129.656097,76.966934,129.681137,76.911163,129.681137,76.846283C129.681137,76.83149,129.679993,76.815552,129.677719,76.798477C129.659515,76.708557,129.603729,76.645958,129.510406,76.610672L129.495041,76.605553C129.248047,76.552055,129.100647,76.457016,129.052841,76.320435C129.009583,76.196365,128.987961,76.027344,128.987961,75.813354L128.987961,75.751892C128.987961,75.528809,129.092682,75.375717,129.302109,75.292625C129.35788,75.270996,129.41423,75.260185,129.47113,75.260185C129.510971,75.260185,129.551376,75.265305,129.592346,75.275551C129.69252,75.300598,129.776749,75.350105,129.845032,75.424088C129.873489,75.4571,129.900238,75.500351,129.925278,75.553848L130.271866,76.34433L130.285522,76.369942C130.422104,76.628319,130.61618,76.788803,130.867722,76.85141C130.953094,76.874168,131.036179,76.885551,131.116989,76.885551C131.118134,76.885551,131.119843,76.885551,131.122116,76.885551C131.312195,76.885551,131.488617,76.821243,131.651382,76.692627C131.883575,76.510513,131.999664,76.270348,131.999664,75.972137L131.994553,75.784332C131.98317,75.72287,131.971786,75.663681,131.960403,75.606773C131.950165,75.549858,131.931946,75.492378,131.905762,75.434334C131.838608,75.290916,131.746414,75.181076,131.629181,75.10482C131.511948,75.028564,131.38504,74.959702,131.248444,74.898239C131.235931,74.892548,131.22113,74.887421,131.204056,74.882874C131.184708,74.878319,131.165924,74.876038,131.14772,74.876038C131.113571,74.876038,131.081696,74.88401,131.052109,74.89994C131.023651,74.913605,131.002029,74.927826,130.987228,74.942627C130.972443,74.95742,130.962189,74.969376,130.956497,74.978477C130.92691,75.020592,130.912109,75.065552,130.912109,75.113358C130.912109,75.132706,130.914383,75.152626,130.918945,75.173111C130.934875,75.243683,130.980408,75.297745,131.055527,75.335312C131.121536,75.364899,131.18869,75.396774,131.256989,75.430923C131.326416,75.463928,131.383896,75.51059,131.429428,75.570923C131.447632,75.595963,131.460724,75.62043,131.468689,75.644333C131.477798,75.667099,131.487473,75.692703,131.497726,75.721161L131.516495,75.832138L131.521622,75.989212C131.519348,76.141731,131.453323,76.2584,131.323578,76.339211C131.257553,76.382462,131.184708,76.404091,131.105042,76.404091C131.085693,76.404091,131.065765,76.402954,131.045288,76.400673C130.918945,76.384743,130.82106,76.325554,130.751617,76.223114C130.748199,76.218559,130.744232,76.21344,130.73967,76.207748C130.736252,76.202057,130.732849,76.195801,130.729431,76.188965L130.720886,76.170189L130.712357,76.149704L130.364059,75.360916L130.352112,75.333603L130.336746,75.302872L130.321381,75.275551C130.315689,75.267586,130.309998,75.259048,130.304306,75.249939C130.299759,75.2397,130.294632,75.230026,130.28894,75.220917C130.140976,74.995552,129.936096,74.856125,129.674301,74.802628z"/>
    <path transform="matrix(1,0,0,-1,0,0)" style="stroke:none;fill:#000000;fill-rule:evenodd" d="M145.757233,50.319565C145.91658,50.332085,145.997391,50.409485,145.999664,50.551762L145.999664,50.55859C145.999664,50.696312,145.918854,50.777126,145.757233,50.801029L142.738693,50.801029C142.589584,50.779404,142.510483,50.698589,142.501373,50.55859L142.501373,48.745419C142.511612,48.583794,142.590729,48.502979,142.738693,48.502979C142.880966,48.502979,142.961212,48.583225,142.979416,48.743713L142.977722,50.319565L145.757233,50.319565z"/>
    <path transform="matrix(1,0,0,-1,0,0)" style="stroke:none;fill:#000000;fill-rule:evenodd" d="M35.503075,12.50629C51.243195,12.50629,64.003082,25.266167,64.003082,41.006287L66.503082,41.006287L66.503082,40.006287L64.98613,40.006287C64.460144,24.498627,52.010735,12.049229,36.503075,11.523243L36.503075,10.00629L35.503075,10.00629L35.503075,12.50629z"/>
    <path transform="matrix(1,0,0,-1,0,0)" style="stroke:none;fill:#000000;fill-rule:evenodd" d="M72.50309,103.506287L72.503075,8.506287C72.503075,8.230145,72.726929,8.006287,73.003075,8.006287C73.279221,8.006287,73.503075,8.230145,73.503075,8.506287L73.50309,103.506287C73.50309,103.782425,73.279236,104.006287,73.00309,104.006287C72.726944,104.006287,72.50309,103.782425,72.50309,103.506287z"/>
    <path transform="matrix(1,0,0,-1,0,0)" style="stroke:none;fill:#000000;fill-rule:evenodd" d="M164.503082,103.506271L164.503082,8.506271C164.503082,8.230129,164.726929,8.006271,165.003082,8.006271C165.279221,8.006271,165.503082,8.230129,165.503082,8.506271L165.503082,103.506271C165.503082,103.78241,165.279236,104.006271,165.003082,104.006271C164.726944,104.006271,164.503082,103.78241,164.503082,103.506271z"/>
    <path transform="matrix(1,0,0,-1,0,0)" style="stroke:none;fill:#000000;fill-rule:evenodd" d="M101.50309,103.506287L101.503075,8.506283C101.503075,8.230141,101.726929,8.006283,102.003075,8.006283C102.279221,8.006283,102.503075,8.230137,102.503075,8.506279L102.50309,103.506279C102.50309,103.782425,102.279236,104.006287,102.00309,104.006287C101.726944,104.006287,101.50309,103.782425,101.50309,103.506287z"/>
    <path transform="matrix(1,0,0,-1,0,0)" style="stroke:none;fill:#000000;fill-rule:evenodd" d="M153.003082,35.256256C152.588867,35.256256,152.253082,35.592041,152.253082,36.006256C152.253082,36.420471,152.588867,36.756256,153.003082,36.756256C153.417297,36.756256,153.753082,36.420471,153.753082,36.006256C153.753082,35.592041,153.417297,35.256256,153.003082,35.256256z"/>
</svg>
