<?xml version="1.0" encoding="UTF-8" standalone="no"?>
<svg  version="1.1" xmlns="http://www.w3.org/2000/svg" width="391.249px" height="825.185px">
<path d="M35.975 22.6772 C48.4993 22.6772, 58.6522 32.8301, 58.6522 45.3543 C58.6522 57.8786, 48.4993 68.0315, 35.975 68.0315 " stroke="black" stroke-width="1" fill="none" />

<path d="M35.975 744.567 C48.4993 744.567, 58.6522 754.72, 58.6522 767.244 C58.6522 779.768, 48.4993 789.921, 35.975 789.921 " stroke="black" stroke-width="1" fill="none" />

<path d="M64.3201 238.11 L192.857 238.11 L194.299 238.305 L195.644 238.861 L196.798 239.736 L197.69 240.87 L198.266 242.191 L198.491 243.623 L198.493 311.87 L198.295 313.298 L197.742 314.631 L196.858 315.794 L195.706 316.693 L194.362 317.268 L192.909 317.48 L64.2874 317.48 L62.8454 317.285 L61.5006 316.729 L60.3602 315.868 L59.4714 314.749 L58.8908 313.443 L58.6552 312.033 L58.6544 243.577 L58.7967 242.502 L59.1411 241.473 L59.6788 240.524 L60.3836 239.7 L61.2326 239.025 L62.1944 238.524 L63.2341 238.215 L64.3201 238.11 Z " stroke="black" stroke-width="1" fill="none" />

<circle cx="86.998" cy="481.89" r="11.3386" stroke="black" stroke-width="1" fill="none" />


<circle cx="86.9976" cy="481.89" r="6.04724" stroke="black" stroke-width="1" fill="none" />


<circle cx="128.574" cy="396.85" r="29.2913" stroke="black" stroke-width="1" fill="none" />


<circle cx="204.163" cy="17.0079" r="11.3386" stroke="black" stroke-width="1" fill="none" />


<circle cx="204.163" cy="795.591" r="11.3386" stroke="black" stroke-width="1" fill="none" />


<circle cx="204.163" cy="17.0086" r="6.04725" stroke="black" stroke-width="1" fill="none" />


<circle cx="204.163" cy="795.591" r="6.04725" stroke="black" stroke-width="1" fill="none" />


<circle cx="260.857" cy="702.992" r="15.685" stroke="black" stroke-width="1" fill="none" />


<circle cx="279.755" cy="360.945" r="30.2362" stroke="black" stroke-width="1" fill="none" />


<circle cx="321.329" cy="481.89" r="11.3386" stroke="black" stroke-width="1" fill="none" />


<circle cx="321.328" cy="481.89" r="6.04724" stroke="black" stroke-width="1" fill="none" />


<path d="M372.353 789.921 C359.829 789.921, 349.676 779.768, 349.676 767.244 C349.676 754.72, 359.829 744.567, 372.353 744.567 " stroke="black" stroke-width="1" fill="none" />

<path d="M372.353 68.0315 C359.829 68.0315, 349.676 57.8786, 349.676 45.3543 C349.676 32.8301, 359.829 22.6772, 372.353 22.6772 " stroke="black" stroke-width="1" fill="none" />

<path d="M35.9736 68.0315 L22.6798 68.0319 L21.0988 68.2758 L19.4808 69.0657 L18.1921 70.323 L17.3626 71.921 L17.076 73.7008 L17.0796 739.101 L17.4066 740.805 L18.274 742.383 L19.5978 743.613 L21.235 744.362 L22.6054 744.565 L35.9736 744.567 " stroke="black" stroke-width="1" fill="none" />

<path d="M35.9736 789.921 L22.0526 789.964 L20.9677 790.207 L19.9511 790.658 L18.9878 791.345 L18.2315 792.16 L17.4298 793.619 L17.0912 795.176 L17.087 807.283 L17.3017 808.513 L17.7773 809.66 L18.4101 810.583 L19.3099 811.439 L20.9655 812.312 L22.7453 812.598 L239.501 812.598 L240.678 812.475 L241.738 812.138 L243.15 811.269 L244.217 810.077 L244.927 808.572 L245.169 807.062 L245.17 702.992 " stroke="black" stroke-width="1" fill="none" />

<path d="M372.352 22.6772 L386.273 22.6347 L387.358 22.3913 L388.374 21.9408 L389.283 21.3005 L390.05 20.4951 L390.87 19.0467 L391.234 17.4225 L391.242 5.38771 L391.043 4.15493 L390.613 3.05939 L389.961 2.07129 L389.067 1.19942 L387.36 0.286616 L385.58 0 L22.6798 0.000378505 L20.9056 0.306798 L19.2598 1.19801 L18.3613 2.07458 L17.744 2.99939 L17.2809 4.15904 L17.0828 5.39196 L17.0967 17.4921 L17.4545 19.0446 L18.274 20.4933 L19.0453 21.3033 L19.9491 21.9396 L20.9655 22.3905 L21.9854 22.626 L35.9736 22.6772 " stroke="black" stroke-width="1" fill="none" />

<path d="M372.352 789.921 L386.268 789.963 L387.354 790.206 L388.376 790.659 L389.28 791.295 L390.091 792.157 L390.871 793.554 L391.229 795.106 L391.242 807.206 L391.063 808.37 L390.612 809.541 L389.918 810.579 L389.065 811.4 L387.42 812.292 L385.58 812.598 L282.21 812.598 L281.107 812.49 L280.104 812.193 L279.233 811.754 L278.354 811.085 L277.613 810.247 L277.054 809.286 L276.678 808.17 L276.542 807.067 L276.541 702.992 " stroke="black" stroke-width="1" fill="none" />

<path d="M372.352 744.567 L385.645 744.567 L387.226 744.323 L388.844 743.533 L390.133 742.275 L390.963 740.677 L391.249 738.898 L391.246 73.4977 L390.894 71.7254 L390.051 70.2153 L388.727 68.9855 L387.09 68.2364 L385.72 68.0332 L372.352 68.0315 " stroke="black" stroke-width="1" fill="none" />

</svg>
