<?xml version="1.0" encoding="UTF-8" standalone="no"?>
<svg  version="1.1" xmlns="http://www.w3.org/2000/svg" width="275.906px" height="205.984px">
<path d="M-257.006 22.6772 C-244.482 22.6772, -234.329 32.8301, -234.329 45.3543 C-234.329 57.8786, -244.482 68.0315, -257.006 68.0315 " stroke="black" stroke-width="1" fill="none" />

<path d="M-257.006 343.937 C-244.482 343.937, -234.329 354.09, -234.329 366.614 C-234.329 379.138, -244.482 389.291, -257.006 389.291 " stroke="black" stroke-width="1" fill="none" />

<circle cx="-211.653" cy="32.1267" r="6.04724" stroke="black" stroke-width="1" fill="none" />


<circle cx="-211.653" cy="379.843" r="6.04724" stroke="black" stroke-width="1" fill="none" />


<circle cx="211.654" cy="379.843" r="6.04724" stroke="black" stroke-width="1" fill="none" />


<circle cx="211.654" cy="32.1267" r="6.04724" stroke="black" stroke-width="1" fill="none" />


<path d="M257.009 68.0315 C244.485 68.0315, 234.332 57.8786, 234.332 45.3543 C234.332 32.8301, 244.485 22.6772, 257.009 22.6772 " stroke="black" stroke-width="1" fill="none" />

<path d="M257.009 389.291 C244.485 389.291, 234.332 379.138, 234.332 366.614 C234.332 354.09, 244.485 343.937, 257.009 343.937 " stroke="black" stroke-width="1" fill="none" />

<path d="M-257.008 68.0315 L-270.302 68.0319 L-271.814 68.2554 L-273.387 68.9878 L-274.661 70.157 L-275.526 71.662 L-275.89 73.2861 L-275.906 338.268 L-275.62 340.045 L-274.791 341.644 L-273.443 342.943 L-271.816 343.713 L-270.376 343.935 L-257.008 343.937 " stroke="black" stroke-width="1" fill="none" />

<path d="M257.008 22.6772 L270.929 22.6347 L272.076 22.3704 L273.03 21.9408 L273.939 21.3005 L274.706 20.4951 L275.526 19.0467 L275.89 17.4225 L275.895 5.32884 L275.7 4.15493 L275.269 3.05939 L274.576 2.0209 L273.723 1.19942 L272.016 0.286616 L270.236 0 L-270.302 0.000378505 L-272.076 0.306798 L-273.67 1.15803 L-274.574 2.01915 L-275.268 3.05736 L-275.718 4.22229 L-275.899 5.39196 L-275.885 17.4921 L-275.527 19.0446 L-274.708 20.4933 L-273.936 21.3033 L-273.089 21.907 L-272.078 22.3696 L-270.925 22.6352 L-257.008 22.6772 " stroke="black" stroke-width="1" fill="none" />

<path d="M257.008 389.291 L270.925 389.333 L272.01 389.576 L273.032 390.029 L273.941 390.669 L274.708 391.475 L275.501 392.857 L275.89 394.542 L275.899 406.577 L275.701 407.809 L275.237 408.969 L274.574 409.949 L273.67 410.81 L272.076 411.662 L270.302 411.968 L-270.236 411.969 L-272.016 411.682 L-273.723 410.769 L-274.576 409.948 L-275.269 408.909 L-275.7 407.814 L-275.895 406.64 L-275.89 394.546 L-275.526 392.922 L-274.706 391.473 L-273.989 390.711 L-273.03 390.028 L-272.014 389.577 L-270.929 389.334 L-257.008 389.291 " stroke="black" stroke-width="1" fill="none" />

<path d="M257.008 68.0315 L270.376 68.0332 L271.816 68.256 L273.443 69.0259 L274.791 70.3248 L275.62 71.9232 L275.906 73.7008 L275.89 338.682 L275.526 340.307 L274.661 341.812 L273.387 342.981 L271.814 343.713 L270.302 343.937 L257.008 343.937 " stroke="black" stroke-width="1" fill="none" />

</svg>
