<?xml version="1.0" encoding="UTF-8" standalone="no"?>
<svg xmlns="http://www.w3.org/2000/svg" xmlns:xlink="http://www.w3.org/1999/xlink" width="148.000mm" height="109.000mm" viewBox="1.477898 -112.000000 148.000000 109.000000">
    <circle transform="matrix(1,0,0,-1,7.477898,-100)" style="stroke:#000000;stroke-width:0.050000mm;fill:none" r="6" cx="0" cy="0"/>
    <circle transform="matrix(1,0,0,-1,7.477898,-100)" style="stroke:#000000;stroke-width:0.050000mm;fill:none" r="6" cx="0" cy="0"/>
    <circle transform="matrix(1,0,0,-1,143.477905,-100)" style="stroke:#000000;stroke-width:0.050000mm;fill:none" r="6" cx="0" cy="0"/>
    <circle transform="matrix(1,0,0,-1,7.477898,-15)" style="stroke:#000000;stroke-width:0.050000mm;fill:none" r="6" cx="0" cy="0"/>
    <circle transform="matrix(1,0,0,-1,143.477905,-15)" style="stroke:#000000;stroke-width:0.050000mm;fill:none" r="6" cx="0" cy="0"/>
    <circle transform="matrix(1,0,0,-1,19.477898,-103.5)" style="stroke:#000000;stroke-width:0.050000mm;fill:none" r="1.6" cx="0" cy="0"/>
    <circle transform="matrix(1,0,0,-1,131.477905,-103.5)" style="stroke:#000000;stroke-width:0.050000mm;fill:none" r="1.6" cx="0" cy="0"/>
    <circle transform="matrix(1,0,0,-1,131.477905,-11.5)" style="stroke:#000000;stroke-width:0.050000mm;fill:none" r="1.6" cx="0" cy="0"/>
    <circle transform="matrix(1,0,0,-1,19.477898,-11.5)" style="stroke:#000000;stroke-width:0.050000mm;fill:none" r="1.6" cx="0" cy="0"/>
    <circle transform="matrix(1,0,0,-1,19.477898,-103.5)" style="stroke:#000000;stroke-width:0.050000mm;fill:none" r="1.6" cx="0" cy="0"/>
    <circle transform="matrix(1,0,0,-1,131.477905,-103.5)" style="stroke:#000000;stroke-width:0.050000mm;fill:none" r="1.6" cx="0" cy="0"/>
    <circle transform="matrix(1,0,0,-1,131.477905,-11.5)" style="stroke:#000000;stroke-width:0.050000mm;fill:none" r="1.6" cx="0" cy="0"/>
    <circle transform="matrix(1,0,0,-1,19.477898,-11.5)" style="stroke:#000000;stroke-width:0.050000mm;fill:none" r="1.6" cx="0" cy="0"/>
    <circle transform="matrix(1,0,0,-1,19.477898,-103.5)" style="stroke:#000000;stroke-width:0.050000mm;fill:none" r="3" cx="0" cy="0"/>
    <circle transform="matrix(1,0,0,-1,131.477905,-103.5)" style="stroke:#000000;stroke-width:0.050000mm;fill:none" r="3" cx="0" cy="0"/>
    <circle transform="matrix(1,0,0,-1,131.477905,-11.5)" style="stroke:#000000;stroke-width:0.050000mm;fill:none" r="3" cx="0" cy="0"/>
    <circle transform="matrix(1,0,0,-1,19.477898,-11.5)" style="stroke:#000000;stroke-width:0.050000mm;fill:none" r="3" cx="0" cy="0"/>
    <path transform="matrix(1,0,0,-1,75.477898,-57.5)" style="stroke:#000000;stroke-width:0.050000mm;fill:none" d="M-68,36.5L-71.5,36.5C-72.32843,36.5,-73,35.828426,-73,35L-73,0L-73,-35C-73,-35.828426,-72.32843,-36.5,-71.5,-36.5L-68,-36.5"/>
    <path transform="matrix(1,0,0,-1,75.477898,-57.5)" style="stroke:#000000;stroke-width:0.050000mm;fill:none" d="M-68,48.5L-71.5,48.5C-72.32843,48.5,-73,49.171574,-73,50L-73,53C-73,53.828426,-72.32843,54.5,-71.5,54.5L0,54.5L71.5,54.5C72.32843,54.5,73,53.828426,73,53L73,50C73,49.171574,72.32843,48.5,71.5,48.5L68,48.5"/>
    <path transform="matrix(1,0,0,-1,75.477898,-57.5)" style="stroke:#000000;stroke-width:0.050000mm;fill:none" d="M68,36.5L71.5,36.5C72.32843,36.5,73,35.828426,73,35L73,0L73,-35C73,-35.828426,72.32843,-36.5,71.5,-36.5L68,-36.5"/>
    <path transform="matrix(1,0,0,-1,75.477898,-57.5)" style="stroke:#000000;stroke-width:0.050000mm;fill:none" d="M-68,-48.5L-71.5,-48.5C-72.32843,-48.5,-73,-49.171574,-73,-50L-73,-53C-73,-53.828426,-72.32843,-54.5,-71.5,-54.5L0,-54.5L71.5,-54.5C72.32843,-54.5,73,-53.828426,73,-53L73,-50C73,-49.171574,72.32843,-48.5,71.5,-48.5L68,-48.5"/>
    <path transform="matrix(1,0,0,-1,78.133926,-57.5)" style="stroke:#000000;stroke-width:0.050000mm;fill:none" d="M-19.034147,-1.441951L-18.360975,-1.441951C-18.098211,-1.441951,-17.896585,-1.299512,-17.756098,-1.014634C-17.642927,-0.785691,-17.586342,-0.451382,-17.586342,-0.011707L-17.586342,0.003903C-17.586342,0.420163,-17.652683,0.738212,-17.785366,0.958049C-17.983089,1.284554,-18.184715,1.447806,-18.390244,1.447806L-19.034147,1.447806L-19.034147,-1.441951z"/>
    <path transform="matrix(1,0,0,-1,78.133926,-57.5)" style="stroke:#000000;stroke-width:0.050000mm;fill:none" d="M-19.496586,1.923903C-19.445854,1.973334,-19.382763,1.99805,-19.307318,1.99805L-18.390244,1.99805C-17.933659,1.99805,-17.591545,1.789919,-17.363903,1.373659C-17.136259,0.957399,-17.022438,0.499513,-17.022438,0.000001C-17.022438,-0.499512,-17.136909,-0.957398,-17.365852,-1.373658C-17.593496,-1.789918,-17.934959,-1.998048,-18.390244,-1.998048L-19.305365,-1.998048L-19.309269,-1.998048L-19.379513,-1.986341C-19.514797,-1.953821,-19.582439,-1.865365,-19.582439,-1.720975L-19.582439,1.724879C-19.582439,1.724879,-19.582439,1.730732,-19.582439,1.74244C-19.561626,1.828294,-19.533009,1.888781,-19.496586,1.923903z"/>
    <path transform="matrix(1,0,0,-1,77.123878,-57.5)" style="stroke:#000000;stroke-width:0.050000mm;fill:none" d="M-14.663414,-0.716097L-13.473169,-0.716097L-14.06634,0.922927L-14.663414,-0.716097z"/>
    <path transform="matrix(1,0,0,-1,77.123878,-57.5)" style="stroke:#000000;stroke-width:0.050000mm;fill:none" d="M-13.274147,-1.26439L-13.07317,-1.816584C-12.996423,-1.940162,-12.902764,-2.001951,-12.792195,-2.001951L-12.788293,-2.001951L-12.723903,-1.980488C-12.604228,-1.946666,-12.544391,-1.865366,-12.544391,-1.736585C-12.544391,-1.704065,-12.548292,-1.668943,-12.556097,-1.631219L-13.806828,1.818537C-13.849755,1.936911,-13.935609,1.996749,-14.06439,1.99805L-14.074146,1.99805C-14.075446,1.99805,-14.076097,1.99805,-14.076097,1.99805C-14.228292,1.88748,-14.309592,1.827643,-14.319999,1.818537C-14.481299,1.653334,-14.690081,1.079675,-14.946341,0.097561C-14.973658,-0.007804,-15.173984,-0.584715,-15.547317,-1.63317L-15.576585,-1.738536C-15.579186,-1.752845,-15.580487,-1.765853,-15.580487,-1.77756C-15.580487,-1.862114,-15.525203,-1.926504,-15.414634,-1.970732C-15.379512,-1.985041,-15.342439,-1.992195,-15.303414,-1.992195C-15.203252,-1.992195,-15.121951,-1.931057,-15.059512,-1.80878L-14.86439,-1.26439L-13.274147,-1.26439z"/>
    <path transform="matrix(1,0,0,-1,75.870697,-57.5)" style="stroke:#000000;stroke-width:0.050000mm;fill:none" d="M-11.317074,1.447806C-11.499187,1.462114,-11.590244,1.553171,-11.590244,1.720976C-11.590244,1.890082,-11.499187,1.98244,-11.317074,1.99805L-9.336585,1.99805C-9.155772,1.983741,-9.065365,1.891383,-9.065365,1.720976C-9.065365,1.551871,-9.155772,1.460814,-9.336585,1.447806L-10.050733,1.447806L-10.050733,-1.724878C-10.08065,-1.906992,-10.174309,-1.998048,-10.331706,-1.998048C-10.333008,-1.998048,-10.334959,-1.998048,-10.33756,-1.998048C-10.49886,-1.995446,-10.586665,-1.90439,-10.600974,-1.724878L-10.600974,1.447806L-11.317074,1.447806z"/>
    <path transform="matrix(1,0,0,-1,75.477898,-57.5)" style="stroke:#000000;stroke-width:0.050000mm;fill:none" d="M-7.560975,-0.716097L-6.370732,-0.716097L-6.963901,0.922927L-7.560975,-0.716097z"/>
    <path transform="matrix(1,0,0,-1,75.477898,-57.5)" style="stroke:#000000;stroke-width:0.050000mm;fill:none" d="M-6.171705,-1.26439L-5.97073,-1.816584C-5.893983,-1.940162,-5.800325,-2.001951,-5.689756,-2.001951L-5.685851,-2.001951L-5.621463,-1.980488C-5.501787,-1.946666,-5.441948,-1.865366,-5.441948,-1.736585C-5.441948,-1.704065,-5.445851,-1.668943,-5.453657,-1.631219L-6.704389,1.818537C-6.747316,1.936911,-6.833169,1.996749,-6.96195,1.99805L-6.971706,1.99805C-6.973007,1.99805,-6.973657,1.99805,-6.973657,1.99805C-7.125852,1.88748,-7.207154,1.827643,-7.217561,1.818537C-7.378861,1.653334,-7.587641,1.079675,-7.843901,0.097561C-7.871218,-0.007804,-8.071544,-0.584715,-8.444879,-1.63317L-8.474147,-1.738536C-8.476747,-1.752845,-8.478047,-1.765853,-8.478047,-1.77756C-8.478047,-1.862114,-8.422763,-1.926504,-8.312194,-1.970732C-8.277073,-1.985041,-8.240001,-1.992195,-8.200976,-1.992195C-8.100812,-1.992195,-8.01951,-1.931057,-7.957071,-1.80878L-7.76195,-1.26439L-6.171705,-1.26439z"/>
    <path transform="matrix(1,0,0,-1,75.477898,-57.5)" style="stroke:#000000;stroke-width:0.050000mm;fill:none" d="M0.058537,1.720976C0.044227,1.90309,-0.044228,1.995448,-0.20683,1.99805L-0.214633,1.99805C-0.372032,1.99805,-0.46439,1.905692,-0.491707,1.720976L-0.491707,-1.72878C-0.466991,-1.899186,-0.374633,-1.989593,-0.214633,-2L1.85756,-2C2.042278,-1.988293,2.134636,-1.897886,2.134636,-1.72878C2.134636,-1.566178,2.042928,-1.474471,1.859511,-1.453658L0.058537,-1.455609L0.058537,1.720976z"/>
    <path transform="matrix(1,0,0,-1,75.028992,-57.5)" style="stroke:#000000;stroke-width:0.050000mm;fill:none" d="M4.626344,-1.841951C4.471547,-1.948618,4.305042,-2.001951,4.126829,-2.001951C4.073496,-2.001951,4.018863,-1.997398,3.96293,-1.988292C3.568783,-1.91935,3.266994,-1.713821,3.057564,-1.371707C2.848131,-1.029593,2.727806,-0.649106,2.696589,-0.230244C2.691385,-0.156097,2.688783,-0.082601,2.688783,-0.009756C2.688783,0.333659,2.74862,0.669269,2.868293,0.997074C3.011382,1.395123,3.240326,1.684553,3.555125,1.865366C3.708618,1.953822,3.869268,1.99805,4.037074,1.99805C4.357076,1.99805,4.61854,1.877074,4.821466,1.635123C5.024392,1.394472,5.178537,1.132358,5.283903,0.848781C5.380163,0.5587,5.428294,0.260163,5.428294,-0.046829C5.428294,-0.122276,5.425692,-0.197723,5.420488,-0.273171C5.391871,-0.660812,5.285204,-1.014633,5.100487,-1.334633C4.984717,-1.533658,4.82667,-1.702764,4.626344,-1.841951z"/>
    <path transform="matrix(1,0,0,-1,75.028992,-57.5)" style="stroke:#000000;stroke-width:0.050000mm;fill:none" d="M4.14244,1.432195C4.341465,1.378862,4.494961,1.254635,4.602927,1.059512C4.710895,0.865692,4.783092,0.647806,4.819516,0.405854C4.840328,0.262765,4.851384,0.118374,4.852684,-0.027317C4.852684,-0.039024,4.852684,-0.050081,4.852684,-0.060487C4.852684,-0.147642,4.848132,-0.235447,4.839028,-0.323902C4.813012,-0.567154,4.765531,-0.763577,4.696587,-0.913171C4.630246,-1.058861,4.530734,-1.196747,4.398049,-1.326829C4.306992,-1.415284,4.202927,-1.459512,4.085854,-1.459512C4.035121,-1.459512,3.981789,-1.451057,3.925856,-1.434146C3.769758,-1.386016,3.643579,-1.288455,3.547319,-1.141463C3.451058,-0.99317,3.378863,-0.827316,3.330734,-0.643902C3.282603,-0.459187,3.255285,-0.27252,3.24878,-0.083902C3.24748,-0.043577,3.24683,-0.005203,3.24683,0.03122C3.24683,0.170407,3.256586,0.292683,3.276098,0.398049C3.308619,0.580163,3.386017,0.800001,3.508294,1.057561C3.631871,1.315122,3.813335,1.443903,4.052685,1.443903C4.086505,1.443903,4.116424,1.44,4.14244,1.432195z"/>
    <path transform="matrix(1,0,0,-1,75.028992,-57.5)" style="stroke:#000000;stroke-width:0.050000mm;fill:none" d="M6.866339,-0.716097L8.056586,-0.716097L7.463416,0.922927L6.866339,-0.716097z"/>
    <path transform="matrix(1,0,0,-1,75.028992,-57.5)" style="stroke:#000000;stroke-width:0.050000mm;fill:none" d="M8.255609,-1.26439L8.456586,-1.816584C8.533332,-1.940162,8.62699,-2.001951,8.737562,-2.001951L8.741463,-2.001951L8.805855,-1.980488C8.925529,-1.946666,8.985365,-1.865366,8.985365,-1.736585C8.985365,-1.704065,8.981463,-1.668943,8.973659,-1.631219L7.722925,1.818537C7.68,1.936911,7.594147,1.996749,7.465366,1.99805L7.45561,1.99805C7.454309,1.99805,7.45366,1.99805,7.45366,1.99805C7.301463,1.88748,7.220162,1.827643,7.209757,1.818537C7.048456,1.653334,6.839674,1.079675,6.583413,0.097561C6.556096,-0.007804,6.355772,-0.584715,5.98244,-1.63317L5.953172,-1.738536C5.950569,-1.752845,5.949267,-1.765853,5.949267,-1.77756C5.949267,-1.862114,6.004551,-1.926504,6.11512,-1.970732C6.150244,-1.985041,6.187318,-1.992195,6.226343,-1.992195C6.326504,-1.992195,6.407804,-1.931057,6.470245,-1.80878L6.665367,-1.26439L8.255609,-1.26439z"/>
    <path transform="matrix(1,0,0,-1,75.028992,-57.5)" style="stroke:#000000;stroke-width:0.050000mm;fill:none" d="M10.487807,-1.441951L11.160977,-1.441951C11.42374,-1.441951,11.625366,-1.299512,11.765855,-1.014634C11.879025,-0.785691,11.935609,-0.451382,11.935609,-0.011707L11.935609,0.003903C11.935609,0.420163,11.869268,0.738212,11.736587,0.958049C11.538861,1.284554,11.337235,1.447806,11.131709,1.447806L10.487807,1.447806L10.487807,-1.441951z"/>
    <path transform="matrix(1,0,0,-1,75.028992,-57.5)" style="stroke:#000000;stroke-width:0.050000mm;fill:none" d="M10.025366,1.923903C10.076098,1.973334,10.139189,1.99805,10.214637,1.99805L11.131709,1.99805C11.588294,1.99805,11.930407,1.789919,12.158049,1.373659C12.385691,0.957399,12.499512,0.499513,12.499512,0.000001C12.499512,-0.499512,12.385041,-0.957398,12.156098,-1.373658C11.928456,-1.789918,11.586993,-1.998048,11.131709,-1.998048L10.216587,-1.998048L10.212682,-1.998048L10.142439,-1.986341C10.007154,-1.953821,9.939511,-1.865365,9.939511,-1.720975L9.939511,1.724879C9.939511,1.724879,9.939511,1.730732,9.939511,1.74244C9.960324,1.828294,9.988942,1.888781,10.025366,1.923903z"/>
    <path transform="matrix(1,0,0,-1,74.355629,-57.5)" style="stroke:#000000;stroke-width:0.050000mm;fill:none" d="M14.483903,0.386342L15.717075,0.386342C15.90179,0.359025,15.994146,0.266667,15.994146,0.109269C15.994146,-0.04943,15.90179,-0.141788,15.717075,-0.167804L14.483903,-0.167804L14.483903,-1.449756L16.101463,-1.449756C16.284878,-1.477073,16.376585,-1.568781,16.376585,-1.724878C16.376585,-1.880975,16.284878,-1.972032,16.101463,-1.998048L14.212683,-1.998048C14.050081,-1.977235,13.957725,-1.884877,13.935612,-1.720975L13.935612,1.724879C13.960328,1.896586,14.052685,1.987643,14.212683,1.99805L16.101463,1.99805C16.284878,1.983741,16.376585,1.892684,16.376585,1.724879C16.376585,1.555773,16.284878,1.465366,16.101463,1.453659L14.483903,1.453659L14.483903,0.386342z"/>
    <path transform="matrix(1,0,0,-1,74.355629,-57.5)" style="stroke:#000000;stroke-width:0.050000mm;fill:none" d="M18.636101,-0.327805C18.940491,-0.270569,19.185043,-0.109268,19.369759,0.156098C19.511547,0.360326,19.582441,0.57561,19.582441,0.801951C19.582441,0.803252,19.582441,0.805204,19.582441,0.807806C19.582441,0.875448,19.575937,0.944391,19.562929,1.014635C19.510897,1.299513,19.377563,1.534309,19.16293,1.719025C18.948296,1.905041,18.695288,1.99805,18.403906,1.99805L17.192196,1.99805C17.115446,1.99805,17.050406,1.971383,16.997074,1.918049C16.945042,1.864716,16.919025,1.800326,16.919025,1.724879L16.919025,-1.722926C16.919025,-1.813983,16.954798,-1.886178,17.026342,-1.939512C17.078375,-1.979837,17.132359,-2,17.188295,-2C17.229919,-1.998699,17.272196,-1.987642,17.315125,-1.966829C17.417889,-1.917398,17.469271,-1.836097,17.469271,-1.722926L17.469271,-0.349268L17.957075,-0.349268L18.919027,-1.869268C18.956749,-1.935609,19.015936,-1.975935,19.096588,-1.990244C19.117399,-1.994146,19.136911,-1.996097,19.155125,-1.996097C19.213661,-1.996097,19.266342,-1.979186,19.313171,-1.945365C19.392521,-1.884227,19.432196,-1.814634,19.432196,-1.736585C19.432196,-1.685853,19.415936,-1.631869,19.383415,-1.574634L18.599028,-0.333658L18.636101,-0.327805z"/>
    <path transform="matrix(1,0,0,-1,74.355629,-57.5)" style="stroke:#000000;stroke-width:0.050000mm;fill:none" d="M17.469271,1.447806L18.431223,1.447806C18.636749,1.429594,18.79805,1.339838,18.915123,1.178537C18.991871,1.07187,19.030245,0.957399,19.030245,0.835122C19.030245,0.771383,19.019838,0.705041,18.999027,0.636098C18.960003,0.506017,18.883904,0.400651,18.770731,0.320001C18.658861,0.23935,18.536587,0.199025,18.403906,0.199025L17.469271,0.199025L17.469271,1.447806z"/>
</svg>
