<?xml version="1.0" encoding="UTF-8" standalone="no"?>
<svg  version="1.1" xmlns="http://www.w3.org/2000/svg" width="30.7086px" height="1127.52px">
<path d="M30.7086 1154.45 L30.4116 1155.92 L29.6016 1157.12 L28.4003 1157.93 L26.9291 1158.23 L-26.9291 1158.23 L-28.4003 1157.93 L-29.6016 1157.12 L-30.4116 1155.92 L-30.7086 1154.45 L-30.7086 1100.59 L-30.4116 1099.12 L-29.6016 1097.92 L-28.4003 1097.11 L-26.9291 1096.81 L26.9291 1096.81 L28.4003 1097.11 L29.6016 1097.92 L30.4116 1099.12 L30.7086 1100.59 L30.7086 1154.45 Z " stroke="black" stroke-width="1" fill="none" />

<path d="M28.8189 1122.3 L28.2654 1123.64 L26.9291 1124.19 L-26.9291 1124.19 L-28.2654 1123.64 L-28.8189 1122.3 L-28.8189 1100.59 L-28.2654 1099.25 L-26.9291 1098.7 L26.9291 1098.7 L28.2654 1099.25 L28.8189 1100.59 L28.8189 1122.3 Z " stroke="black" stroke-width="1" fill="none" />

<path d="M28.8189 1154.45 L28.8189 1132.73 L28.2654 1131.4 L26.9291 1130.84 L-26.9291 1130.84 L-28.2654 1131.4 L-28.8189 1132.73 L-28.8189 1154.45 L-28.2654 1155.78 L-26.9291 1156.34 L26.9291 1156.34 L28.2654 1155.78 L28.8189 1154.45 Z " stroke="black" stroke-width="1" fill="none" />

<path d="M26.9291 1158.23 L26.9291 1158.23 " stroke="black" stroke-width="1" fill="none" />

<path d="M26.9291 1124.19 L26.9291 1124.19 " stroke="black" stroke-width="1" fill="none" />

<path d="M28.8189 1132.73 L28.8189 1132.73 " stroke="black" stroke-width="1" fill="none" />

<path d="M3 2 L-3 7.99999 " stroke="black" stroke-width="1" fill="none" />

<path d="M0 0 L0 9.99999 " stroke="black" stroke-width="1" fill="none" />

<path d="M3.99999 4.99999 L0 8.99999 " stroke="black" stroke-width="1" fill="none" />

<path d="M5.99999 6.99999 L2 11 " stroke="black" stroke-width="1" fill="none" />

<path d="M7.99999 8.99999 L3.99999 13 " stroke="black" stroke-width="1" fill="none" />

</svg>
