<?xml version="1.0" encoding="UTF-8" standalone="no"?>
<svg xmlns="http://www.w3.org/2000/svg" xmlns:xlink="http://www.w3.org/1999/xlink" width="19.635mm" height="197.924mm" viewBox="0.079585 -197.937286 19.635319 197.923859">
    <path transform="matrix(1,0,0,-1,17.598242,100.38562)" style="stroke:#000000;stroke-width:0.050000mm;fill:none" d="M0.793749,297.793762L-0.793749,296.206238"/>
    <path transform="matrix(1,0,0,-1,17.598242,100.38562)" style="stroke:#000000;stroke-width:0.050000mm;fill:none" d="M0,298.322906L0,295.677094"/>
    <path transform="matrix(1,0,0,-1,17.598242,100.38562)" style="stroke:#000000;stroke-width:0.050000mm;fill:none" d="M2.116664,295.941681L1.058332,294.883331"/>
    <path transform="matrix(1,0,0,-1,17.598242,100.38562)" style="stroke:#000000;stroke-width:0.050000mm;fill:none" d="M1.587498,296.470825L0.529166,295.412506"/>
    <path transform="matrix(1,0,0,-1,17.598242,100.38562)" style="stroke:#000000;stroke-width:0.050000mm;fill:none" d="M1.058332,297L0,295.941681"/>
    <path transform="matrix(-1,0,0,1,8.204587,-8.138427)" style="stroke:#000000;stroke-width:0.050000mm;fill:none" d="M-7.125,8.125C-7.677285,8.125,-8.125,7.677285,-8.125,7.125L-8.125,-7.125C-8.125,-7.677285,-7.677285,-8.125,-7.125,-8.125L7.125,-8.125C7.677285,-8.125,8.125,-7.677285,8.125,-7.125L8.125,7.125C8.125,7.677285,7.677285,8.125,7.125,8.125L-7.125,8.125z"/>
    <path transform="matrix(-1,0,0,1,8.204587,-8.138427)" style="stroke:#000000;stroke-width:0.050000mm;fill:none" d="M3.108372,-2.891269C3.225026,-2.812083,3.350181,-2.772957,3.483836,-2.773891C3.523835,-2.774171,3.564785,-2.777872,3.606688,-2.784994C3.901929,-2.838767,4.127187,-2.994491,4.282463,-3.252169C4.437739,-3.509846,4.525986,-3.795835,4.547204,-4.110137C4.550717,-4.165773,4.552283,-4.220908,4.551901,-4.27554C4.550101,-4.533095,4.503464,-4.784483,4.411992,-5.029703C4.30259,-5.327482,4.129369,-5.543349,3.89233,-5.677305C3.776747,-5.74284,3.65603,-5.775168,3.53018,-5.774289C3.290185,-5.772611,3.094727,-5.680511,2.943804,-5.497988C2.792874,-5.31644,2.678642,-5.119051,2.601106,-4.905821C2.530433,-4.687761,2.495902,-4.463612,2.497511,-4.233373C2.497907,-4.176789,2.500254,-4.120219,2.504552,-4.063662C2.528047,-3.773088,2.6099,-3.508287,2.750111,-3.269262C2.837981,-3.120604,2.957402,-2.994607,3.108372,-2.891269z"/>
    <path transform="matrix(-1,0,0,1,8.204587,-8.138427)" style="stroke:#000000;stroke-width:0.050000mm;fill:none" d="M3.454124,-5.349356C3.305139,-5.308314,3.190671,-5.21434,3.11072,-5.067437C3.030763,-4.921508,2.97776,-4.757719,2.951712,-4.576069C2.936853,-4.468645,2.929318,-4.360297,2.929106,-4.251025C2.929167,-4.242245,2.929225,-4.233952,2.92928,-4.226148C2.929737,-4.160783,2.933612,-4.094955,2.940905,-4.028663C2.961692,-3.846365,2.99833,-3.6993,3.050821,-3.587469C3.101339,-3.478552,3.176695,-3.375661,3.276886,-3.278798C3.345641,-3.212936,3.42392,-3.180311,3.511723,-3.180925C3.549771,-3.181191,3.589725,-3.187812,3.631587,-3.200788C3.748405,-3.237703,3.842525,-3.311534,3.913948,-3.42228C3.985364,-3.534001,4.038639,-3.658767,4.073774,-3.796577C4.108902,-3.935362,4.128411,-4.075502,4.1323,-4.216996C4.133064,-4.247246,4.133351,-4.276029,4.13316,-4.303346C4.13243,-4.407733,4.124472,-4.499387,4.109286,-4.578308C4.083941,-4.714719,4.024742,-4.879187,3.931686,-5.071712C3.837655,-5.26423,3.700886,-5.359862,3.521378,-5.358607C3.496013,-5.358429,3.473595,-5.355346,3.454124,-5.349356z"/>
    <path transform="matrix(-1,0,0,1,8.204587,-8.138427)" style="stroke:#000000;stroke-width:0.050000mm;fill:none" d="M0.987171,-4.032566L0.959356,-4.033835C0.785627,-4.043353,0.630639,-4.09349,0.494392,-4.184247C0.358137,-4.27598,0.254807,-4.403066,0.184402,-4.565504C0.139777,-4.668609,0.11709,-4.773819,0.116339,-4.881134C0.11561,-4.985521,0.135845,-5.091519,0.177045,-5.199127C0.259431,-5.416293,0.401267,-5.572898,0.602551,-5.668942C0.70758,-5.717482,0.822502,-5.746579,0.947316,-5.756232L0.97512,-5.756427L1.894122,-5.762851L1.907293,-5.762943C2.021545,-5.748132,2.086411,-5.680291,2.101891,-5.559421L2.119967,-2.97363C2.104344,-2.835957,2.036046,-2.766697,1.915073,-2.765851C1.794101,-2.765006,1.724353,-2.8333,1.705831,-2.970735L1.698373,-4.037538L0.987171,-4.032566z"/>
    <path transform="matrix(-1,0,0,1,8.204587,-8.138427)" style="stroke:#000000;stroke-width:0.050000mm;fill:none" d="M1.695478,-4.451674L0.984276,-4.446702C0.873059,-4.445925,0.774754,-4.482312,0.689359,-4.555863C0.60299,-4.629407,0.552099,-4.721737,0.536688,-4.832851C0.533604,-4.855269,0.53199,-4.876722,0.531847,-4.897209C0.53109,-5.005499,0.567972,-5.102833,0.642492,-5.189209C0.731537,-5.291298,0.843374,-5.342813,0.978005,-5.343754L1.689207,-5.348726L1.695478,-4.451674z"/>
    <path transform="matrix(-1,0,0,1,8.204587,-8.138427)" style="stroke:#000000;stroke-width:0.050000mm;fill:none" d="M-1.631488,-4.529394C-1.769878,-4.507939,-1.83866,-4.438188,-1.837835,-4.320142C-1.837003,-4.20112,-1.767252,-4.132338,-1.628583,-4.113795L-0.703728,-4.12026L-0.697006,-3.15882L-1.910147,-3.15034C-2.047562,-3.128891,-2.11586,-3.059631,-2.115041,-2.942561C-2.114223,-2.82549,-2.044966,-2.75768,-1.907272,-2.73913L-0.490722,-2.749033C-0.368883,-2.765495,-0.3001,-2.835246,-0.284375,-2.958286L-0.302441,-5.542613C-0.321877,-5.67126,-0.391621,-5.739067,-0.511673,-5.746033L-1.928224,-5.73613C-2.065706,-5.724437,-2.134008,-5.655665,-2.133128,-5.529815C-2.132241,-5.402988,-2.062989,-5.335666,-1.925369,-5.327847L-0.712229,-5.336328L-0.706633,-4.53586L-1.631488,-4.529394z"/>
    <path transform="matrix(-1,0,0,1,8.204587,-8.138427)" style="stroke:#000000;stroke-width:0.050000mm;fill:none" d="M-2.919689,-5.628221C-2.876272,-5.697794,-2.82432,-5.732793,-2.763834,-5.733215C-2.742371,-5.733366,-2.719902,-5.729132,-2.696426,-5.720516C-2.606448,-5.688949,-2.554274,-5.622483,-2.539906,-5.521117L-2.52184,-2.93679C-2.541373,-2.800065,-2.609186,-2.731296,-2.725281,-2.730485C-2.842352,-2.729666,-2.912096,-2.797473,-2.934513,-2.933905L-2.947536,-4.796786L-4.162995,-2.817022C-4.204495,-2.75234,-4.258415,-2.719767,-4.324755,-2.719303L-4.333534,-2.719242C-4.352071,-2.719112,-4.372091,-2.721899,-4.393595,-2.727603C-4.49232,-2.75423,-4.542037,-2.818274,-4.542747,-2.919735L-4.542767,-2.922662L-4.560833,-5.506989C-4.551056,-5.643646,-4.484713,-5.71338,-4.361803,-5.716191C-4.359851,-5.716204,-4.358876,-5.716211,-4.358876,-5.716211C-4.237903,-5.717057,-4.167665,-5.648278,-4.14816,-5.509874L-4.135127,-3.64553L-2.919689,-5.628221z"/>
    <path transform="matrix(-1,0,0,1,8.204587,-8.138427)" style="stroke:#000000;stroke-width:0.050000mm;fill:none" d="M4.564474,3.934486C4.42796,3.945197,4.36014,4.01299,4.361013,4.137865C4.361845,4.256886,4.430624,4.326163,4.567349,4.345696L5.511228,4.339097L5.519382,5.50541C5.529103,5.63998,5.595433,5.70781,5.71837,5.708902L5.724224,5.708861C5.843245,5.708029,5.912034,5.639254,5.930591,5.502536L5.912545,2.921135C5.894084,2.792481,5.824334,2.723698,5.703293,2.714788L4.286742,2.724691C4.15121,2.73637,4.083891,2.806111,4.084785,2.933913C4.085671,3.060739,4.154924,3.128061,4.292543,3.13588L5.502758,3.12742L5.508354,3.927888L4.564474,3.934486z"/>
    <path transform="matrix(-1,0,0,1,8.204587,-8.138427)" style="stroke:#000000;stroke-width:0.050000mm;fill:none" d="M2.995638,4.769376L2.102977,4.775617L2.539251,3.543268L2.995638,4.769376z"/>
    <path transform="matrix(-1,0,0,1,8.204587,-8.138427)" style="stroke:#000000;stroke-width:0.050000mm;fill:none" d="M1.956587,5.18787L1.808754,5.603059C1.751842,5.696143,1.681924,5.742974,1.599,5.743554L1.596073,5.743574L1.547669,5.727814C1.457737,5.703077,1.412434,5.642416,1.411759,5.545834C1.411588,5.521444,1.414331,5.495082,1.419987,5.46675L2.339926,2.872938C2.3715,2.783935,2.435574,2.738608,2.532151,2.736957L2.539467,2.736906C2.540443,2.736899,2.540931,2.736896,2.540931,2.736896C2.655654,2.819022,2.716942,2.863473,2.724794,2.870248C2.846633,2.993301,3.006222,3.42244,3.203562,4.157664C3.224602,4.236543,3.377867,4.668165,3.663357,5.45253L3.68586,5.531399C3.687886,5.542117,3.68893,5.551866,3.688991,5.560646C3.689435,5.624059,3.64831,5.672641,3.565617,5.70639C3.539351,5.717306,3.511584,5.722866,3.482317,5.723071C3.407197,5.723596,3.345902,5.67817,3.298433,5.586792L3.149241,5.179532L1.956587,5.18787z"/>
    <path transform="matrix(-1,0,0,1,8.204587,-8.138427)" style="stroke:#000000;stroke-width:0.050000mm;fill:none" d="M-0.903409,5.547384C-0.71126,5.679702,-0.507383,5.745108,-0.291778,5.7436C-0.278127,5.742529,-0.263984,5.741943,-0.249351,5.74184C-0.018205,5.730468,0.192911,5.645088,0.383996,5.485699C0.5741,5.325342,0.67638,5.092914,0.690837,4.788415L0.690632,4.759148L0.678018,2.954802C0.677814,2.925534,0.672264,2.899231,0.661369,2.875892C0.621752,2.791289,0.561457,2.74927,0.480483,2.749836C0.464874,2.749945,0.447327,2.752019,0.427843,2.756058C0.318727,2.778285,0.264561,2.845494,0.265346,2.957687L0.277959,4.762033C0.26587,4.986513,0.168508,5.155003,-0.014124,5.267501C-0.101552,5.321773,-0.191606,5.349232,-0.284286,5.34988C-0.384772,5.350583,-0.48743,5.319592,-0.592261,5.256909C-0.683366,5.203886,-0.75019,5.135083,-0.792733,5.0505C-0.836252,4.965924,-0.862272,4.872445,-0.870793,4.770063L-0.883407,2.965717C-0.88353,2.948157,-0.884597,2.934993,-0.88661,2.926227C-0.907861,2.817104,-0.971168,2.762911,-1.076531,2.763648C-1.087263,2.763723,-1.097991,2.764286,-1.108716,2.765336C-1.233509,2.777916,-1.295476,2.845668,-1.294616,2.968592L-1.282003,4.772938L-1.281798,4.802206C-1.27853,4.850965,-1.276374,4.880219,-1.275331,4.889967C-1.232276,5.187235,-1.108302,5.406374,-0.903409,5.547384z"/>
    <path transform="matrix(-1,0,0,1,8.204587,-8.138427)" style="stroke:#000000;stroke-width:0.050000mm;fill:none" d="M-2.064333,2.9769C-2.054557,2.840243,-1.988701,2.770512,-1.866767,2.767709L-1.860913,2.767668C-1.742867,2.766842,-1.673116,2.835625,-1.65166,2.974015L-1.633573,5.561269C-1.651216,5.6892,-1.720009,5.757487,-1.839951,5.766131L-3.394059,5.776995C-3.532654,5.769184,-3.602395,5.701865,-3.603282,5.575038C-3.604134,5.45309,-3.535836,5.383831,-3.398387,5.36726L-2.047678,5.359281L-2.064333,2.9769z"/>
    <path transform="matrix(-1,0,0,1,8.204587,-8.138427)" style="stroke:#000000;stroke-width:0.050000mm;fill:none" d="M-4.240409,3.196995C-4.103901,3.185309,-4.036088,3.11654,-4.036967,2.99069C-4.037854,2.863864,-4.106629,2.795074,-4.243294,2.784322L-5.728623,2.794706C-5.864154,2.806385,-5.931473,2.876126,-5.93058,3.003927C-5.929693,3.130754,-5.861413,3.198571,-5.725739,3.207379L-5.190142,3.203635L-5.173508,5.583088C-5.150115,5.719514,-5.079394,5.787313,-4.961349,5.786489C-4.960373,5.786482,-4.95891,5.786471,-4.956958,5.786458C-4.835999,5.783661,-4.770625,5.71491,-4.760834,5.580204L-4.777469,3.200749L-4.240409,3.196995z"/>
</svg>
