<?xml version="1.0" encoding="UTF-8" standalone="no"?>
<svg  version="1.1" xmlns="http://www.w3.org/2000/svg" width="565.651px" height="463.347px">
<path d="M32.7389 347.898 C45.2631 347.898, 55.416 358.051, 55.416 370.575 C55.416 383.099, 45.2631 393.252, 32.7389 393.252 " stroke="black" stroke-width="1" fill="none" />

<circle cx="108.329" cy="340.339" r="9.07086" stroke="black" stroke-width="1" fill="none" />


<circle cx="149.903" cy="415.929" r="9.44882" stroke="black" stroke-width="1" fill="none" />


<circle cx="289.746" cy="400.811" r="6.61417" stroke="black" stroke-width="1" fill="none" />


<circle cx="471.163" cy="340.339" r="9.07086" stroke="black" stroke-width="1" fill="none" />


<path d="M546.755 393.252 C534.23 393.252, 524.077 383.099, 524.077 370.575 C524.077 358.051, 534.23 347.898, 546.755 347.898 " stroke="black" stroke-width="1" fill="none" />

<path d="M32.7375 347.898 L19.3693 347.896 L17.9989 347.693 L16.4163 346.98 L15.0866 345.776 L14.1951 344.204 L13.8437 342.438 L13.8398 5.85043 L13.9926 4.54323 L14.4743 3.24432 L15.2567 2.10102 L16.3039 1.1742 L17.7938 0.446857 L19.4436 0.18152 L55.2636 0 L55.4146 19.0788 L524.076 19.0788 L524.076 0.181141 L560.67 0.223098 L562.529 0.785873 L564.085 1.93855 L565.193 3.61953 L565.64 5.50344 L565.64 342.578 L565.272 344.267 L564.411 345.767 L563.133 346.941 L561.559 347.674 L560.047 347.897 L546.753 347.898 " stroke="black" stroke-width="1" fill="none" />

<path d="M546.753 393.252 L559.982 393.252 L561.289 393.405 L562.715 393.954 L563.989 394.911 L564.914 396.127 L565.482 397.546 L565.651 398.921 L565.636 444.69 L565.272 446.314 L564.366 447.87 L563.072 449.028 L561.426 449.758 L560.054 449.944 L19.5091 449.945 L18.0685 449.759 L16.5325 449.101 L15.1698 447.924 L14.2718 446.446 L13.8605 444.76 L13.8398 398.921 L14.0259 397.481 L14.5774 396.125 L15.5501 394.863 L16.8355 393.922 L18.2041 393.404 L19.4436 393.252 L32.7375 393.252 " stroke="black" stroke-width="1" fill="none" />

<circle cx="289.746" cy="37.9764" r="6.61417" stroke="black" stroke-width="1" fill="none" />


</svg>
