<?xml version="1.0" encoding="UTF-8" standalone="no"?>
<svg  version="1.1" xmlns="http://www.w3.org/2000/svg" width="556.345px" height="452.943px">
<path d="M23.4329 347.717 C35.9572 347.717, 46.1101 357.869, 46.1101 370.394 C46.1101 382.918, 35.9572 393.071, 23.4329 393.071 " stroke="black" stroke-width="1" fill="none" />

<circle cx="99.0226" cy="340.157" r="9.07086" stroke="black" stroke-width="1" fill="none" />


<circle cx="140.597" cy="415.748" r="9.44882" stroke="black" stroke-width="1" fill="none" />


<circle cx="280.44" cy="37.7953" r="6.61417" stroke="black" stroke-width="1" fill="none" />


<circle cx="280.44" cy="400.63" r="6.61417" stroke="black" stroke-width="1" fill="none" />


<circle cx="461.857" cy="340.157" r="9.07086" stroke="black" stroke-width="1" fill="none" />


<path d="M537.449 393.071 C524.924 393.071, 514.772 382.918, 514.772 370.394 C514.772 357.869, 524.924 347.717, 537.449 347.717 " stroke="black" stroke-width="1" fill="none" />

<path d="M537.447 393.071 L550.676 393.071 L551.983 393.224 L553.409 393.773 L554.683 394.73 L555.609 395.946 L556.176 397.365 L556.345 398.74 L556.33 444.509 L555.966 446.133 L555.06 447.689 L553.766 448.847 L552.12 449.577 L550.748 449.763 L10.2032 449.764 L8.7625 449.578 L7.22659 448.92 L5.8638 447.743 L4.96583 446.265 L4.55459 444.579 L4.53388 398.74 L4.71998 397.299 L5.2714 395.944 L6.24413 394.682 L7.52951 393.741 L8.8982 393.223 L10.1377 393.071 L23.4315 393.071 " stroke="black" stroke-width="1" fill="none" />

<path d="M537.447 347.717 L550.741 347.716 L552.253 347.493 L553.827 346.76 L555.105 345.586 L555.966 344.086 L556.334 342.397 L556.334 5.3223 L555.888 3.43839 L554.779 1.7574 L553.223 0.604732 L551.364 0.041957 L514.77 5.68434e-14 " stroke="black" stroke-width="1" fill="none" />

<path d="M514.77 5.68434e-14 L10.1377 0.000378505 L8.48787 0.265716 L6.9979 0.993061 L5.95078 1.91988 L5.16839 3.06318 L4.68664 4.36209 L4.53388 5.66929 L4.53775 342.257 L4.88917 344.023 L5.78065 345.594 L7.11039 346.799 L8.69292 347.512 L10.0633 347.715 L23.4315 347.717 " stroke="black" stroke-width="1" fill="none" />

</svg>
