<?xml version="1.0" encoding="UTF-8" standalone="no"?>
<svg xmlns="http://www.w3.org/2000/svg" xmlns:xlink="http://www.w3.org/1999/xlink" width="17.500mm" height="7.500mm" viewBox="0.709824 -8.093590 17.500002 7.500008">
    <path transform="matrix(-1,0,0,1,46.459801,-79.343597)" style="stroke:#000000;stroke-width:0.050000mm;fill:none" d="M44.75,78.75L29.25,78.75C28.697716,78.75,28.25,78.302284,28.25,77.75L28.25,72.25C28.25,71.697716,28.697716,71.25,29.25,71.25L44.75,71.25C45.302284,71.25,45.75,71.697716,45.75,72.25L45.75,77.75C45.75,78.302284,45.302284,78.75,44.75,78.75z"/>
    <path transform="matrix(-1,0,0,1,46.459801,-79.344337)" style="stroke:#000000;stroke-width:0.050000mm;fill:none" d="M39.984634,75.494637C39.972927,75.551216,39.967072,75.60878,39.967072,75.66732C39.967072,75.699509,39.969025,75.732193,39.972927,75.765366C39.988537,75.898048,40.035366,76.020973,40.113415,76.134148C40.190487,76.246338,40.28756,76.333168,40.404633,76.394638C40.530487,76.460976,40.660732,76.494148,40.795364,76.494148C41.021706,76.494148,41.237804,76.465363,41.443657,76.407806C41.649513,76.349266,41.796341,76.193657,41.884148,75.940979C41.895855,75.908783,41.904633,75.87561,41.910488,75.841461C41.91634,75.80732,41.923172,75.77317,41.930977,75.739021C41.933903,75.723412,41.935368,75.707802,41.935368,75.692192C41.935368,75.640488,41.916828,75.594147,41.879757,75.553169C41.839756,75.510246,41.79195,75.488777,41.736343,75.488777C41.72366,75.488777,41.709999,75.489754,41.695366,75.491707C41.618294,75.507317,41.564632,75.555122,41.534389,75.635124L41.529999,75.648293C41.484146,75.860001,41.402683,75.986343,41.28561,76.027321C41.179268,76.064392,41.034389,76.082924,40.850975,76.082924L40.798294,76.082924C40.607075,76.082924,40.475853,75.993172,40.404633,75.81366C40.386097,75.765854,40.376831,75.71756,40.376831,75.668777C40.376831,75.634636,40.381218,75.599998,40.389999,75.56488C40.411465,75.479027,40.453903,75.40683,40.517319,75.348289C40.545609,75.323906,40.582684,75.300972,40.628536,75.27951L41.306099,74.982437L41.328049,74.970734C41.549511,74.853661,41.687073,74.687317,41.74073,74.47171C41.760242,74.398537,41.77,74.327316,41.77,74.258049C41.77,74.257072,41.77,74.255608,41.77,74.253662C41.77,74.090729,41.714878,73.939514,41.604633,73.800003C41.448536,73.600975,41.242683,73.501465,40.987072,73.501465L40.826099,73.505852C40.773415,73.51561,40.722683,73.525368,40.673904,73.535118C40.625122,73.5439,40.575855,73.559509,40.526096,73.581947C40.403172,73.639511,40.309025,73.718536,40.24366,73.819023C40.178291,73.91951,40.119267,74.02829,40.066586,74.145363C40.061707,74.156097,40.057316,74.168777,40.053413,74.183418C40.049511,74.199997,40.047562,74.216095,40.047562,74.231705C40.047562,74.260979,40.05439,74.288292,40.06805,74.31366C40.079758,74.338051,40.091949,74.356583,40.104633,74.36927C40.117317,74.38195,40.12756,74.390732,40.135365,74.395607C40.171463,74.420975,40.209999,74.433655,40.250977,74.433655C40.267559,74.433655,40.284634,74.431709,40.302197,74.427803C40.362682,74.414146,40.409023,74.375122,40.441219,74.31073C40.466587,74.254143,40.493904,74.196587,40.52317,74.138046C40.551464,74.078537,40.591465,74.029266,40.643169,73.990242C40.664635,73.974632,40.685612,73.963417,40.706097,73.956589C40.725609,73.948784,40.747562,73.940491,40.77195,73.931709L40.867073,73.915611L41.001709,73.911217C41.132439,73.91317,41.232441,73.969757,41.301708,74.080978C41.338779,74.137558,41.357319,74.199997,41.357319,74.268295C41.357319,74.284882,41.356342,74.301949,41.354389,74.319511C41.340733,74.427803,41.290001,74.511703,41.202194,74.57122C41.198292,74.574142,41.193901,74.57756,41.189026,74.581467C41.184147,74.584389,41.17878,74.587318,41.172928,74.59024L41.15683,74.597557L41.139267,74.604881L40.463169,74.903412L40.439754,74.913658L40.413414,74.926826L40.389999,74.940002C40.383171,74.944878,40.375854,74.949753,40.36805,74.954636C40.359268,74.958534,40.350975,74.962929,40.34317,74.967804C40.150002,75.094635,40.030487,75.270241,39.984634,75.494637z"/>
    <path transform="matrix(-1,0,0,1,46.459801,-79.344337)" style="stroke:#000000;stroke-width:0.050000mm;fill:none" d="M39.192924,73.709267C39.203659,73.572685,39.27,73.503418,39.391953,73.501465L39.397804,73.501465C39.515854,73.501465,39.585121,73.570732,39.60561,73.709267L39.60561,76.296585C39.587074,76.424393,39.517803,76.492195,39.397804,76.5L37.843658,76.5C37.705124,76.491219,37.635853,76.423416,37.635853,76.296585C37.635853,76.174637,37.704636,76.10585,37.842194,76.09024L39.192924,76.091705L39.192924,73.709267z"/>
    <path transform="matrix(-1,0,0,1,46.459801,-79.344337)" style="stroke:#000000;stroke-width:0.050000mm;fill:none" d="M36.809025,74.710243L35.884148,74.710243C35.745609,74.730728,35.676342,74.800003,35.676342,74.918045C35.676342,75.037071,35.745609,75.106339,35.884148,75.125854L36.809025,75.125854L36.809025,76.087318L35.595852,76.087318C35.458294,76.107803,35.389511,76.176582,35.389511,76.293655C35.389511,76.410728,35.458294,76.479027,35.595852,76.498535L37.01244,76.498535C37.134392,76.482925,37.203659,76.413658,37.220245,76.290733L37.220245,73.706345C37.201706,73.57756,37.132439,73.50927,37.01244,73.501465L35.595852,73.501465C35.458294,73.512192,35.389511,73.58049,35.389511,73.706345C35.389511,73.833168,35.458294,73.900978,35.595852,73.90976L36.809025,73.90976L36.809025,74.710243z"/>
    <path transform="matrix(-1,0,0,1,46.459801,-79.344337)" style="stroke:#000000;stroke-width:0.050000mm;fill:none" d="M34.572926,73.668289C34.615852,73.557076,34.681709,73.501465,34.770489,73.501465L34.782196,73.501465C34.792927,73.501465,34.804146,73.502441,34.815853,73.504387C34.927074,73.525856,34.982681,73.606339,34.982681,73.745857L34.476341,76.330246C34.438293,76.435608,34.372925,76.491707,34.280243,76.498535C34.275364,76.498535,34.27,76.498535,34.264145,76.498535C34.179268,76.498535,34.115852,76.449265,34.073902,76.350731L33.52512,74.462929L32.971951,76.350731C32.930977,76.449265,32.86512,76.498535,32.774391,76.498535C32.771461,76.498535,32.768047,76.498535,32.764145,76.498535C32.668537,76.494637,32.604633,76.438538,32.572437,76.330246L32.066097,73.745857C32.065121,73.736099,32.064632,73.726341,32.064632,73.716583C32.065609,73.59951,32.12122,73.529755,32.231464,73.507317C32.250977,73.503418,32.268536,73.501465,32.284145,73.501465C32.374878,73.501465,32.437317,73.557076,32.471462,73.668289L32.8139,75.418533L33.326096,73.668289C33.363171,73.568779,33.42561,73.519028,33.513412,73.519028L33.522194,73.519028C33.613903,73.52195,33.680733,73.571709,33.722683,73.668289L34.234879,75.421463L34.572926,73.668289z"/>
</svg>
