<?xml version="1.0" encoding="UTF-8" standalone="no"?>
<svg  version="1.1" xmlns="http://www.w3.org/2000/svg" width="559.792px" height="148.483px">
<circle cx="26.8823" cy="113.386" r="4.72441" stroke="black" stroke-width="1" fill="none" />


<circle cx="283.89" cy="9.44941" r="4.72441" stroke="black" stroke-width="1" fill="none" />


<circle cx="540.898" cy="113.386" r="4.72441" stroke="black" stroke-width="1" fill="none" />


<path d="M49.5592 134.169 L49.451 135.276 L49.1536 136.279 L48.6413 137.266 L47.9963 138.082 L47.1544 138.808 L46.1869 139.356 L45.1311 139.705 L44.165 139.836 L12.9652 139.801 L11.3546 139.355 L9.95368 138.469 L8.90107 137.264 L8.2101 135.757 L7.98441 134.173 L7.98613 5.52944 L8.31579 3.75942 L9.14383 2.2339 L10.443 0.996768 L12.0763 0.22386 L13.5816 0.00045799 L554.126 0 L555.164 0.0958407 L556.232 0.405641 L557.219 0.917914 L558.035 1.56294 L558.723 2.3515 L559.28 3.30663 L559.643 4.36432 L559.792 5.4597 L559.791 134.385 L559.643 135.48 L559.308 136.472 L558.76 137.44 L558.085 138.231 L557.277 138.886 L556.357 139.385 L555.367 139.705 L554.264 139.841 L523.338 139.816 L521.851 139.463 L520.57 138.769 L519.463 137.715 L518.653 136.344 L518.343 135.344 L518.221 134.173 L518.216 45.1725 L517.896 43.8216 L517.044 42.6141 L515.804 41.8293 L514.441 41.5748 L52.6051 41.6467 L51.3978 42.1112 L50.4764 42.8861 L49.8137 43.991 L49.5603 45.2649 L49.5592 134.173 " stroke="black" stroke-width="1" fill="none" />

</svg>
