<?xml version="1.0" encoding="UTF-8" standalone="no"?>
<svg  version="1.1" xmlns="http://www.w3.org/2000/svg" width="560.073px" height="147.008px">
<circle cx="27.1602" cy="113.386" r="6.61417" stroke="black" stroke-width="1" fill="none" />


<circle cx="284.168" cy="9.44882" r="6.61417" stroke="black" stroke-width="1" fill="none" />


<circle cx="541.176" cy="113.386" r="6.61417" stroke="black" stroke-width="1" fill="none" />


<path d="M506.848 22.6772 L518.498 22.6772 L49.8369 22.6772 L49.8369 134.173 L49.4831 136.145 L48.7634 137.493 L47.6064 138.681 L46.2714 139.438 L44.7236 139.815 L13.7916 139.841 L11.96 139.489 L10.3927 138.603 L9.13987 137.203 L8.41435 135.478 L8.26211 134.173 L8.26368 5.53599 L8.61592 3.69786 L9.59351 2.01915 L10.9624 0.839633 L12.7543 0.123552 L13.8659 0.000378505 L554.404 0 L555.851 0.187773 L557.497 0.917914 L558.871 2.17866 L559.766 3.82958 L560.073 5.66929 L560.069 134.385 L559.742 136.083 L558.961 137.546 L557.727 138.766 L556.181 139.557 L554.404 139.843 L523.616 139.816 L522.062 139.437 L520.573 138.557 L519.491 137.378 L518.784 135.951 L518.498 134.173 L518.498 22.6772 " stroke="black" stroke-width="1" fill="none" />

</svg>
